{
.appVersion = "1352";
DisplayStrings = (

glyphs = (
{
glyphname = .notdef;
lastChange = "2022-02-17 14:45:31 +0000";
layers = (
{
layerId = "769237BE-90A6-4D5E-A4C9-331744B3656A";
paths = (
{
closed = 1;
nodes = (
"62 13 LINE",
"437 13 LINE",
"437 913 LINE",
"62 913 LINE"
);
},
{
closed = 1;
nodes = (
"249 435 LINE",
"365 76 LINE",
"133 76 LINE"
);
},
{
closed = 1;
nodes = (
"124 822 LINE",
"240 464 LINE",
"124 106 LINE"
);
},
{
closed = 1;
nodes = (
"258 464 LINE",
"374 822 LINE",
"374 106 LINE"
);
},
{
closed = 1;
nodes = (
"133 851 LINE",
"365 851 LINE",
"249 492 LINE"
);
}
);
width = 499;
}
);
note = .notdef;
},
{
glyphname = A;
lastChange = "2022-02-17 14:45:31 +0000";
layers = (
{
layerId = "769237BE-90A6-4D5E-A4C9-331744B3656A";
paths = (
{
closed = 1;
nodes = (
"334 -78 OFFCURVE",
"482 40 OFFCURVE",
"651 277 CURVE",
"714 273 OFFCURVE",
"762 269 OFFCURVE",
"794 266 CURVE",
"791 230 OFFCURVE",
"789 197 OFFCURVE",
"789 166 CURVE SMOOTH",
"789 67 OFFCURVE",
"805 7 OFFCURVE",
"837 -13 CURVE SMOOTH",
"850 -22 OFFCURVE",
"861 -26 OFFCURVE",
"868 -26 CURVE SMOOTH",
"883 -26 OFFCURVE",
"891 -20 OFFCURVE",
"891 -9 CURVE SMOOTH",
"891 -1 OFFCURVE",
"885 4 OFFCURVE",
"873 7 CURVE SMOOTH",
"859 11 OFFCURVE",
"848 20 OFFCURVE",
"840 33 CURVE SMOOTH",
"829 52 OFFCURVE",
"823 95 OFFCURVE",
"823 160 CURVE SMOOTH",
"823 191 OFFCURVE",
"825 226 OFFCURVE",
"828 265 CURVE",
"903 263 OFFCURVE",
"940 281 OFFCURVE",
"940 319 CURVE SMOOTH",
"940 330 OFFCURVE",
"934 335 OFFCURVE",
"923 335 CURVE SMOOTH",
"915 335 OFFCURVE",
"910 334 OFFCURVE",
"907 321 CURVE SMOOTH",
"906 314 OFFCURVE",
"901 309 OFFCURVE",
"893 305 CURVE SMOOTH",
"885 301 OFFCURVE",
"864 299 OFFCURVE",
"830 299 CURVE",
"840 396 OFFCURVE",
"853 490 OFFCURVE",
"868 579 CURVE",
"880 632 LINE SMOOTH",
"885 660 OFFCURVE",
"888 677 OFFCURVE",
"888 684 CURVE SMOOTH",
"888 696 OFFCURVE",
"882 702 OFFCURVE",
"869 702 CURVE SMOOTH",
"864 702 OFFCURVE",
"859 700 OFFCURVE",
"856 695 CURVE SMOOTH",
"847 682 OFFCURVE",
"835 660 OFFCURVE",
"820 629 CURVE SMOOTH",
"765 517 OFFCURVE",
"703 411 OFFCURVE",
"634 312 CURVE",
"566 315 OFFCURVE",
"523 302 OFFCURVE",
"505 275 CURVE SMOOTH",
"503 272 OFFCURVE",
"502 269 OFFCURVE",
"502 266 CURVE SMOOTH",
"502 256 OFFCURVE",
"507 251 OFFCURVE",
"518 251 CURVE SMOOTH",
"523 251 OFFCURVE",
"528 253 OFFCURVE",
"533 257 CURVE SMOOTH",
"548 271 OFFCURVE",
"573 278 OFFCURVE",
"610 278 CURVE",
"456 64 OFFCURVE",
"322 -43 OFFCURVE",
"207 -43 CURVE SMOOTH",
"154 -43 OFFCURVE",
"113 -27 OFFCURVE",
"84 5 CURVE SMOOTH",
"58 34 OFFCURVE",
"45 71 OFFCURVE",
"45 115 CURVE SMOOTH",
"45 162 OFFCURVE",
"59 202 OFFCURVE",
"86 237 CURVE SMOOTH",
"116 274 OFFCURVE",
"154 293 OFFCURVE",
"200 293 CURVE SMOOTH",
"253 293 OFFCURVE",
"279 274 OFFCURVE",
"279 236 CURVE SMOOTH",
"279 225 OFFCURVE",
"284 220 OFFCURVE",
"294 220 CURVE SMOOTH",
"306 220 OFFCURVE",
"312 226 OFFCURVE",
"312 238 CURVE SMOOTH",
"312 268 OFFCURVE",
"300 291 OFFCURVE",
"277 307 CURVE SMOOTH",
"256 320 OFFCURVE",
"231 327 OFFCURVE",
"201 327 CURVE SMOOTH",
"144 327 OFFCURVE",
"98 305 OFFCURVE",
"62 260 CURVE SMOOTH",
"29 219 OFFCURVE",
"13 170 OFFCURVE",
"13 114 CURVE SMOOTH",
"13 61 OFFCURVE",
"29 16 OFFCURVE",
"60 -19 CURVE SMOOTH",
"95 -58 OFFCURVE",
"145 -78 OFFCURVE",
"209 -78 CURVE SMOOTH"
);
},
{
closed = 1;
nodes = (
"741 305 OFFCURVE",
"700 308 OFFCURVE",
"673 310 CURVE",
"726 386 OFFCURVE",
"779 476 OFFCURVE",
"834 579 CURVE",
"813 451 OFFCURVE",
"801 358 OFFCURVE",
"796 300 CURVE"
);
}
);
width = 940;
}
);
note = A;
unicode = 0041;
},
{
glyphname = AE;
lastChange = "2022-02-17 14:45:31 +0000";
layers = (
{
layerId = "769237BE-90A6-4D5E-A4C9-331744B3656A";
paths = (
{
closed = 1;
nodes = (
"334 -78 OFFCURVE",
"482 40 OFFCURVE",
"651 277 CURVE",
"684 276 OFFCURVE",
"731 272 OFFCURVE",
"792 267 CURVE",
"795 242 OFFCURVE",
"799 225 OFFCURVE",
"805 217 CURVE",
"795 191 OFFCURVE",
"790 164 OFFCURVE",
"790 136 CURVE SMOOTH",
"790 75 OFFCURVE",
"816 28 OFFCURVE",
"869 -7 CURVE SMOOTH",
"914 -37 OFFCURVE",
"968 -52 OFFCURVE",
"1031 -52 CURVE SMOOTH",
"1101 -52 OFFCURVE",
"1164 -39 OFFCURVE",
"1220 -12 CURVE SMOOTH",
"1288 19 OFFCURVE",
"1332 64 OFFCURVE",
"1353 123 CURVE SMOOTH",
"1358 140 OFFCURVE",
"1361 157 OFFCURVE",
"1361 176 CURVE SMOOTH",
"1361 234 OFFCURVE",
"1339 263 OFFCURVE",
"1294 263 CURVE SMOOTH",
"1259 263 OFFCURVE",
"1241 256 OFFCURVE",
"1241 242 CURVE SMOOTH",
"1241 230 OFFCURVE",
"1247 224 OFFCURVE",
"1258 224 CURVE SMOOTH",
"1266 224 OFFCURVE",
"1285 229 OFFCURVE",
"1293 229 CURVE SMOOTH",
"1316 229 OFFCURVE",
"1328 213 OFFCURVE",
"1328 181 CURVE SMOOTH",
"1328 116 OFFCURVE",
"1294 65 OFFCURVE",
"1225 28 CURVE SMOOTH",
"1168 -2 OFFCURVE",
"1104 -17 OFFCURVE",
"1032 -17 CURVE SMOOTH",
"975 -17 OFFCURVE",
"927 -6 OFFCURVE",
"890 17 CURVE SMOOTH",
"845 45 OFFCURVE",
"823 85 OFFCURVE",
"823 137 CURVE SMOOTH",
"823 183 OFFCURVE",
"839 226 OFFCURVE",
"872 266 CURVE",
"876 268 OFFCURVE",
"879 271 OFFCURVE",
"880 275 CURVE",
"923 323 OFFCURVE",
"978 357 OFFCURVE",
"1045 377 CURVE",
"1072 364 OFFCURVE",
"1110 358 OFFCURVE",
"1159 358 CURVE SMOOTH",
"1212 358 OFFCURVE",
"1238 370 OFFCURVE",
"1238 395 CURVE SMOOTH",
"1238 416 OFFCURVE",
"1219 427 OFFCURVE",
"1181 427 CURVE SMOOTH",
"1128 427 OFFCURVE",
"1084 422 OFFCURVE",
"1048 413 CURVE",
"1011 434 OFFCURVE",
"993 466 OFFCURVE",
"993 508 CURVE SMOOTH",
"993 560 OFFCURVE",
"1022 603 OFFCURVE",
"1080 637 CURVE SMOOTH",
"1131 666 OFFCURVE",
"1185 681 OFFCURVE",
"1242 681 CURVE SMOOTH",
"1273 681 OFFCURVE",
"1299 676 OFFCURVE",
"1320 665 CURVE SMOOTH",
"1346 652 OFFCURVE",
"1359 633 OFFCURVE",
"1359 606 CURVE SMOOTH",
"1359 559 OFFCURVE",
"1321 528 OFFCURVE",
"1273 528 CURVE SMOOTH",
"1252 528 OFFCURVE",
"1242 534 OFFCURVE",
"1242 547 CURVE SMOOTH",
"1242 551 OFFCURVE",
"1246 562 OFFCURVE",
"1246 566 CURVE SMOOTH",
"1246 578 OFFCURVE",
"1240 584 OFFCURVE",
"1228 584 CURVE SMOOTH",
"1216 584 OFFCURVE",
"1207 562 OFFCURVE",
"1207 550 CURVE SMOOTH",
"1207 517 OFFCURVE",
"1241 495 OFFCURVE",
"1273 495 CURVE SMOOTH",
"1304 495 OFFCURVE",
"1331 505 OFFCURVE",
"1356 525 CURVE SMOOTH",
"1381 545 OFFCURVE",
"1393 570 OFFCURVE",
"1393 601 CURVE SMOOTH",
"1393 641 OFFCURVE",
"1376 671 OFFCURVE",
"1342 691 CURVE SMOOTH",
"1315 707 OFFCURVE",
"1281 715 OFFCURVE",
"1240 715 CURVE SMOOTH",
"1174 715 OFFCURVE",
"1113 697 OFFCURVE",
"1056 662 CURVE SMOOTH",
"991 621 OFFCURVE",
"959 569 OFFCURVE",
"959 506 CURVE SMOOTH",
"959 465 OFFCURVE",
"975 430 OFFCURVE",
"1008 401 CURVE",
"946 378 OFFCURVE",
"895 344 OFFCURVE",
"856 299 CURVE",
"830 299 LINE",
"840 396 OFFCURVE",
"853 490 OFFCURVE",
"868 579 CURVE",
"880 632 LINE SMOOTH",
"885 660 OFFCURVE",
"888 677 OFFCURVE",
"888 684 CURVE SMOOTH",
"888 696 OFFCURVE",
"882 702 OFFCURVE",
"869 702 CURVE SMOOTH",
"864 702 OFFCURVE",
"859 700 OFFCURVE",
"856 695 CURVE SMOOTH",
"847 682 OFFCURVE",
"835 660 OFFCURVE",
"820 629 CURVE SMOOTH",
"765 517 OFFCURVE",
"703 411 OFFCURVE",
"634 312 CURVE",
"566 315 OFFCURVE",
"523 302 OFFCURVE",
"505 275 CURVE SMOOTH",
"503 272 OFFCURVE",
"502 269 OFFCURVE",
"502 266 CURVE SMOOTH",
"502 256 OFFCURVE",
"507 251 OFFCURVE",
"518 251 CURVE SMOOTH",
"523 251 OFFCURVE",
"528 253 OFFCURVE",
"533 257 CURVE SMOOTH",
"548 271 OFFCURVE",
"573 278 OFFCURVE",
"610 278 CURVE",
"456 64 OFFCURVE",
"322 -43 OFFCURVE",
"207 -43 CURVE SMOOTH",
"154 -43 OFFCURVE",
"113 -27 OFFCURVE",
"84 5 CURVE SMOOTH",
"58 34 OFFCURVE",
"45 71 OFFCURVE",
"45 115 CURVE SMOOTH",
"45 162 OFFCURVE",
"59 202 OFFCURVE",
"86 237 CURVE SMOOTH",
"116 274 OFFCURVE",
"154 293 OFFCURVE",
"200 293 CURVE SMOOTH",
"253 293 OFFCURVE",
"279 274 OFFCURVE",
"279 236 CURVE SMOOTH",
"279 225 OFFCURVE",
"284 220 OFFCURVE",
"294 220 CURVE SMOOTH",
"306 220 OFFCURVE",
"312 226 OFFCURVE",
"312 238 CURVE SMOOTH",
"312 268 OFFCURVE",
"300 291 OFFCURVE",
"277 307 CURVE SMOOTH",
"256 320 OFFCURVE",
"231 327 OFFCURVE",
"201 327 CURVE SMOOTH",
"144 327 OFFCURVE",
"98 305 OFFCURVE",
"62 260 CURVE SMOOTH",
"29 219 OFFCURVE",
"13 170 OFFCURVE",
"13 114 CURVE SMOOTH",
"13 61 OFFCURVE",
"29 16 OFFCURVE",
"60 -19 CURVE SMOOTH",
"95 -58 OFFCURVE",
"145 -78 OFFCURVE",
"209 -78 CURVE SMOOTH"
);
},
{
closed = 1;
nodes = (
"741 305 OFFCURVE",
"700 308 OFFCURVE",
"673 310 CURVE",
"726 386 OFFCURVE",
"779 476 OFFCURVE",
"834 579 CURVE",
"813 451 OFFCURVE",
"801 358 OFFCURVE",
"796 300 CURVE"
);
}
);
width = 1404;
}
);
note = AE;
unicode = 00C6;
},
{
glyphname = B;
lastChange = "2022-02-17 14:45:31 +0000";
layers = (
{
layerId = "769237BE-90A6-4D5E-A4C9-331744B3656A";
paths = (
{
closed = 1;
nodes = (
"119 -72 OFFCURVE",
"138 -59 OFFCURVE",
"154 -36 CURVE",
"195 -47 OFFCURVE",
"239 -52 OFFCURVE",
"286 -52 CURVE SMOOTH",
"353 -52 OFFCURVE",
"415 -41 OFFCURVE",
"470 -20 CURVE SMOOTH",
"535 5 OFFCURVE",
"584 43 OFFCURVE",
"617 93 CURVE SMOOTH",
"639 128 OFFCURVE",
"650 163 OFFCURVE",
"650 198 CURVE SMOOTH",
"650 274 OFFCURVE",
"598 342 OFFCURVE",
"515 381 CURVE",
"604 419 OFFCURVE",
"649 475 OFFCURVE",
"649 549 CURVE SMOOTH",
"649 599 OFFCURVE",
"625 639 OFFCURVE",
"578 670 CURVE SMOOTH",
"543 693 OFFCURVE",
"497 709 OFFCURVE",
"441 718 CURVE",
"442 719 OFFCURVE",
"442 721 OFFCURVE",
"442 723 CURVE SMOOTH",
"442 735 OFFCURVE",
"436 741 OFFCURVE",
"424 741 CURVE SMOOTH",
"415 741 OFFCURVE",
"405 735 OFFCURVE",
"394 724 CURVE",
"272 724 OFFCURVE",
"177 701 OFFCURVE",
"110 654 CURVE SMOOTH",
"54 615 OFFCURVE",
"26 569 OFFCURVE",
"26 515 CURVE SMOOTH",
"26 455 OFFCURVE",
"73 408 OFFCURVE",
"141 408 CURVE SMOOTH",
"180 408 OFFCURVE",
"209 422 OFFCURVE",
"228 451 CURVE SMOOTH",
"230 454 OFFCURVE",
"231 456 OFFCURVE",
"231 459 CURVE SMOOTH",
"231 470 OFFCURVE",
"225 476 OFFCURVE",
"213 476 CURVE SMOOTH",
"212 476 OFFCURVE",
"203 470 OFFCURVE",
"188 458 CURVE SMOOTH",
"173 447 OFFCURVE",
"156 441 OFFCURVE",
"137 441 CURVE SMOOTH",
"90 441 OFFCURVE",
"62 472 OFFCURVE",
"62 513 CURVE SMOOTH",
"62 576 OFFCURVE",
"99 624 OFFCURVE",
"174 657 CURVE SMOOTH",
"234 683 OFFCURVE",
"300 694 OFFCURVE",
"373 691 CURVE",
"334 618 OFFCURVE",
"297 514 OFFCURVE",
"262 380 CURVE SMOOTH",
"221 222 OFFCURVE",
"189 116 OFFCURVE",
"168 63 CURVE SMOOTH",
"161 43 OFFCURVE",
"151 23 OFFCURVE",
"140 4 CURVE",
"53 34 OFFCURVE",
"10 81 OFFCURVE",
"10 145 CURVE SMOOTH",
"10 174 OFFCURVE",
"20 202 OFFCURVE",
"40 229 CURVE SMOOTH",
"62 259 OFFCURVE",
"87 274 OFFCURVE",
"114 274 CURVE SMOOTH",
"121 274 OFFCURVE",
"135 269 OFFCURVE",
"140 269 CURVE SMOOTH",
"151 269 OFFCURVE",
"156 275 OFFCURVE",
"156 287 CURVE SMOOTH",
"156 301 OFFCURVE",
"142 308 OFFCURVE",
"115 308 CURVE SMOOTH",
"77 308 OFFCURVE",
"44 290 OFFCURVE",
"16 253 CURVE SMOOTH",
"-11 219 OFFCURVE",
"-24 183 OFFCURVE",
"-24 144 CURVE SMOOTH",
"-24 67 OFFCURVE",
"24 11 OFFCURVE",
"120 -24 CURVE",
"112 -35 OFFCURVE",
"106 -41 OFFCURVE",
"102 -41 CURVE SMOOTH",
"89 -41 OFFCURVE",
"83 -46 OFFCURVE",
"83 -55 CURVE SMOOTH",
"83 -64 OFFCURVE",
"88 -71 OFFCURVE",
"98 -75 CURVE"
);
},
{
closed = 1;
nodes = (
"248 -18 OFFCURVE",
"211 -14 OFFCURVE",
"174 -6 CURVE",
"183 11 OFFCURVE",
"192 30 OFFCURVE",
"201 51 CURVE SMOOTH",
"222 104 OFFCURVE",
"244 172 OFFCURVE",
"266 253 CURVE SMOOTH",
"285 322 OFFCURVE",
"303 390 OFFCURVE",
"321 459 CURVE SMOOTH",
"350 560 OFFCURVE",
"380 636 OFFCURVE",
"410 689 CURVE",
"547 673 OFFCURVE",
"615 626 OFFCURVE",
"615 548 CURVE SMOOTH",
"615 510 OFFCURVE",
"599 477 OFFCURVE",
"567 449 CURVE SMOOTH",
"539 424 OFFCURVE",
"504 408 OFFCURVE",
"463 401 CURVE",
"432 408 OFFCURVE",
"401 412 OFFCURVE",
"372 412 CURVE SMOOTH",
"361 412 OFFCURVE",
"348 410 OFFCURVE",
"334 405 CURVE SMOOTH",
"315 400 OFFCURVE",
"306 392 OFFCURVE",
"306 382 CURVE SMOOTH",
"306 373 OFFCURVE",
"315 366 OFFCURVE",
"333 361 CURVE SMOOTH",
"346 358 OFFCURVE",
"359 356 OFFCURVE",
"372 356 CURVE SMOOTH",
"397 356 OFFCURVE",
"427 359 OFFCURVE",
"461 366 CURVE",
"552 338 OFFCURVE",
"615 272 OFFCURVE",
"615 196 CURVE SMOOTH",
"615 166 OFFCURVE",
"605 136 OFFCURVE",
"586 107 CURVE SMOOTH",
"557 63 OFFCURVE",
"513 30 OFFCURVE",
"453 9 CURVE SMOOTH",
"403 -9 OFFCURVE",
"347 -18 OFFCURVE",
"286 -18 CURVE SMOOTH"
);
}
);
width = 682;
}
);
note = B;
unicode = 0042;
},
{
glyphname = C;
lastChange = "2022-02-17 14:45:31 +0000";
layers = (
{
layerId = "769237BE-90A6-4D5E-A4C9-331744B3656A";
paths = (
{
closed = 1;
nodes = (
"479 -83 OFFCURVE",
"568 -44 OFFCURVE",
"625 35 CURVE SMOOTH",
"644 62 OFFCURVE",
"654 80 OFFCURVE",
"654 90 CURVE SMOOTH",
"654 101 OFFCURVE",
"648 107 OFFCURVE",
"636 107 CURVE SMOOTH",
"628 107 OFFCURVE",
"618 94 OFFCURVE",
"605 67 CURVE SMOOTH",
"586 28 OFFCURVE",
"550 -1 OFFCURVE",
"498 -22 CURVE SMOOTH",
"455 -40 OFFCURVE",
"409 -49 OFFCURVE",
"360 -49 CURVE SMOOTH",
"270 -49 OFFCURVE",
"197 -20 OFFCURVE",
"142 39 CURVE SMOOTH",
"87 98 OFFCURVE",
"60 172 OFFCURVE",
"60 263 CURVE SMOOTH",
"60 375 OFFCURVE",
"99 474 OFFCURVE",
"177 559 CURVE SMOOTH",
"256 645 OFFCURVE",
"351 688 OFFCURVE",
"462 688 CURVE SMOOTH",
"521 688 OFFCURVE",
"570 674 OFFCURVE",
"609 647 CURVE SMOOTH",
"652 616 OFFCURVE",
"674 572 OFFCURVE",
"674 517 CURVE SMOOTH",
"674 479 OFFCURVE",
"660 448 OFFCURVE",
"633 423 CURVE SMOOTH",
"606 399 OFFCURVE",
"573 387 OFFCURVE",
"534 387 CURVE SMOOTH",
"483 387 OFFCURVE",
"444 411 OFFCURVE",
"444 458 CURVE SMOOTH",
"444 467 OFFCURVE",
"450 487 OFFCURVE",
"450 495 CURVE SMOOTH",
"450 505 OFFCURVE",
"444 511 OFFCURVE",
"432 511 CURVE SMOOTH",
"417 511 OFFCURVE",
"409 492 OFFCURVE",
"409 456 CURVE SMOOTH",
"409 424 OFFCURVE",
"422 398 OFFCURVE",
"449 378 CURVE SMOOTH",
"473 361 OFFCURVE",
"501 352 OFFCURVE",
"534 352 CURVE SMOOTH",
"581 352 OFFCURVE",
"622 368 OFFCURVE",
"656 399 CURVE SMOOTH",
"691 431 OFFCURVE",
"708 470 OFFCURVE",
"708 517 CURVE SMOOTH",
"708 583 OFFCURVE",
"682 635 OFFCURVE",
"631 672 CURVE SMOOTH",
"586 705 OFFCURVE",
"529 722 OFFCURVE",
"462 722 CURVE SMOOTH",
"339 722 OFFCURVE",
"234 673 OFFCURVE",
"148 576 CURVE SMOOTH",
"66 483 OFFCURVE",
"25 374 OFFCURVE",
"25 249 CURVE SMOOTH",
"25 148 OFFCURVE",
"55 68 OFFCURVE",
"116 8 CURVE SMOOTH",
"177 -53 OFFCURVE",
"258 -83 OFFCURVE",
"359 -83 CURVE SMOOTH"
);
}
);
width = 651;
}
);
note = C;
unicode = 0043;
},
{
glyphname = D;
lastChange = "2022-02-17 14:45:31 +0000";
layers = (
{
layerId = "769237BE-90A6-4D5E-A4C9-331744B3656A";
paths = (
{
closed = 1;
nodes = (
"120 -70 OFFCURVE",
"181 -44 OFFCURVE",
"238 7 CURVE",
"285 -31 OFFCURVE",
"354 -50 OFFCURVE",
"446 -50 CURVE SMOOTH",
"575 -50 OFFCURVE",
"686 -17 OFFCURVE",
"779 49 CURVE SMOOTH",
"884 123 OFFCURVE",
"936 222 OFFCURVE",
"936 347 CURVE SMOOTH",
"936 442 OFFCURVE",
"902 520 OFFCURVE",
"834 581 CURVE SMOOTH",
"774 634 OFFCURVE",
"695 669 OFFCURVE",
"598 685 CURVE",
"619 694 OFFCURVE",
"629 703 OFFCURVE",
"629 710 CURVE SMOOTH",
"629 722 OFFCURVE",
"624 728 OFFCURVE",
"613 728 CURVE SMOOTH",
"594 728 OFFCURVE",
"572 716 OFFCURVE",
"547 691 CURVE",
"530 694 OFFCURVE",
"504 695 OFFCURVE",
"471 695 CURVE SMOOTH",
"311 695 OFFCURVE",
"204 655 OFFCURVE",
"151 576 CURVE SMOOTH",
"134 550 OFFCURVE",
"125 523 OFFCURVE",
"125 496 CURVE SMOOTH",
"125 437 OFFCURVE",
"167 393 OFFCURVE",
"227 393 CURVE SMOOTH",
"237 393 OFFCURVE",
"250 396 OFFCURVE",
"266 401 CURVE SMOOTH",
"285 408 OFFCURVE",
"295 415 OFFCURVE",
"295 423 CURVE SMOOTH",
"295 435 OFFCURVE",
"289 441 OFFCURVE",
"278 441 CURVE SMOOTH",
"271 441 OFFCURVE",
"242 427 OFFCURVE",
"229 427 CURVE SMOOTH",
"188 427 OFFCURVE",
"159 456 OFFCURVE",
"159 497 CURVE SMOOTH",
"159 518 OFFCURVE",
"166 539 OFFCURVE",
"180 560 CURVE SMOOTH",
"228 628 OFFCURVE",
"322 662 OFFCURVE",
"463 662 CURVE",
"520 659 LINE",
"489 618 OFFCURVE",
"460 558 OFFCURVE",
"433 480 CURVE SMOOTH",
"412 415 OFFCURVE",
"390 351 OFFCURVE",
"369 287 CURVE",
"352 295 OFFCURVE",
"333 299 OFFCURVE",
"313 299 CURVE SMOOTH",
"270 299 OFFCURVE",
"235 285 OFFCURVE",
"208 256 CURVE SMOOTH",
"181 227 OFFCURVE",
"167 192 OFFCURVE",
"167 150 CURVE SMOOTH",
"167 103 OFFCURVE",
"183 63 OFFCURVE",
"214 30 CURVE",
"163 -14 OFFCURVE",
"109 -36 OFFCURVE",
"51 -36 CURVE SMOOTH",
"42 -36 OFFCURVE",
"16 -34 OFFCURVE",
"7 -34 CURVE SMOOTH",
"-4 -34 OFFCURVE",
"-9 -40 OFFCURVE",
"-9 -51 CURVE SMOOTH",
"-9 -62 OFFCURVE",
"-4 -68 OFFCURVE",
"7 -68 CURVE SMOOTH",
"18 -68 OFFCURVE",
"43 -70 OFFCURVE",
"54 -70 CURVE SMOOTH"
);
},
{
closed = 1;
nodes = (
"213 85 OFFCURVE",
"201 116 OFFCURVE",
"201 149 CURVE SMOOTH",
"201 217 OFFCURVE",
"245 265 OFFCURVE",
"313 265 CURVE SMOOTH",
"329 265 OFFCURVE",
"344 262 OFFCURVE",
"358 256 CURVE",
"321 169 OFFCURVE",
"281 102 OFFCURVE",
"238 55 CURVE"
);
},
{
closed = 1;
nodes = (
"364 -16 OFFCURVE",
"303 0 OFFCURVE",
"262 32 CURVE",
"307 80 OFFCURVE",
"348 148 OFFCURVE",
"385 236 CURVE",
"402 219 OFFCURVE",
"411 198 OFFCURVE",
"411 175 CURVE SMOOTH",
"411 166 OFFCURVE",
"408 154 OFFCURVE",
"401 141 CURVE SMOOTH",
"395 128 OFFCURVE",
"392 120 OFFCURVE",
"392 118 CURVE SMOOTH",
"392 107 OFFCURVE",
"397 102 OFFCURVE",
"407 102 CURVE SMOOTH",
"432 102 OFFCURVE",
"445 127 OFFCURVE",
"445 177 CURVE SMOOTH",
"445 214 OFFCURVE",
"430 245 OFFCURVE",
"399 269 CURVE",
"422 336 OFFCURVE",
"444 403 OFFCURVE",
"466 470 CURVE SMOOTH",
"495 553 OFFCURVE",
"526 615 OFFCURVE",
"560 656 CURVE",
"659 644 OFFCURVE",
"738 615 OFFCURVE",
"797 568 CURVE SMOOTH",
"866 513 OFFCURVE",
"901 440 OFFCURVE",
"901 347 CURVE SMOOTH",
"901 232 OFFCURVE",
"853 141 OFFCURVE",
"756 74 CURVE SMOOTH",
"670 14 OFFCURVE",
"567 -16 OFFCURVE",
"446 -16 CURVE SMOOTH"
);
}
);
width = 943;
}
);
note = D;
unicode = 0044;
},
{
glyphname = Eth;
lastChange = "2022-02-17 14:45:31 +0000";
layers = (
{
layerId = "769237BE-90A6-4D5E-A4C9-331744B3656A";
paths = (
{
closed = 1;
nodes = (
"120 -70 OFFCURVE",
"181 -44 OFFCURVE",
"238 7 CURVE",
"285 -31 OFFCURVE",
"354 -50 OFFCURVE",
"446 -50 CURVE SMOOTH",
"575 -50 OFFCURVE",
"686 -17 OFFCURVE",
"779 49 CURVE SMOOTH",
"884 123 OFFCURVE",
"936 222 OFFCURVE",
"936 347 CURVE SMOOTH",
"936 442 OFFCURVE",
"902 520 OFFCURVE",
"834 581 CURVE SMOOTH",
"774 634 OFFCURVE",
"695 669 OFFCURVE",
"598 685 CURVE",
"619 694 OFFCURVE",
"629 703 OFFCURVE",
"629 710 CURVE SMOOTH",
"629 722 OFFCURVE",
"624 728 OFFCURVE",
"613 728 CURVE SMOOTH",
"594 728 OFFCURVE",
"572 716 OFFCURVE",
"547 691 CURVE",
"530 694 OFFCURVE",
"504 695 OFFCURVE",
"471 695 CURVE SMOOTH",
"311 695 OFFCURVE",
"204 655 OFFCURVE",
"151 576 CURVE SMOOTH",
"134 550 OFFCURVE",
"125 523 OFFCURVE",
"125 496 CURVE SMOOTH",
"125 437 OFFCURVE",
"167 393 OFFCURVE",
"227 393 CURVE SMOOTH",
"237 393 OFFCURVE",
"250 396 OFFCURVE",
"266 401 CURVE SMOOTH",
"285 408 OFFCURVE",
"295 415 OFFCURVE",
"295 423 CURVE SMOOTH",
"295 435 OFFCURVE",
"289 441 OFFCURVE",
"278 441 CURVE SMOOTH",
"271 441 OFFCURVE",
"242 427 OFFCURVE",
"229 427 CURVE SMOOTH",
"188 427 OFFCURVE",
"159 456 OFFCURVE",
"159 497 CURVE SMOOTH",
"159 518 OFFCURVE",
"166 539 OFFCURVE",
"180 560 CURVE SMOOTH",
"228 628 OFFCURVE",
"322 662 OFFCURVE",
"463 662 CURVE",
"520 659 LINE",
"489 618 OFFCURVE",
"459 558 OFFCURVE",
"433 480 CURVE SMOOTH",
"402 388 OFFCURVE",
"375 292 OFFCURVE",
"332 202 CURVE",
"331 202 LINE SMOOTH",
"297 198 OFFCURVE",
"272 196 OFFCURVE",
"255 196 CURVE SMOOTH",
"247 196 OFFCURVE",
"238 208 OFFCURVE",
"231 208 CURVE SMOOTH",
"220 208 OFFCURVE",
"215 202 OFFCURVE",
"215 191 CURVE SMOOTH",
"215 172 OFFCURVE",
"237 162 OFFCURVE",
"253 162 CURVE SMOOTH",
"267 162 OFFCURVE",
"288 163 OFFCURVE",
"314 166 CURVE",
"293 127 OFFCURVE",
"268 90 OFFCURVE",
"238 55 CURVE",
"234 59 OFFCURVE",
"231 64 OFFCURVE",
"228 69 CURVE SMOOTH",
"225 74 OFFCURVE",
"220 76 OFFCURVE",
"215 76 CURVE SMOOTH",
"206 76 OFFCURVE",
"195 68 OFFCURVE",
"195 58 CURVE SMOOTH",
"195 55 OFFCURVE",
"196 52 OFFCURVE",
"198 49 CURVE SMOOTH",
"203 42 OFFCURVE",
"208 36 OFFCURVE",
"214 30 CURVE",
"163 -14 OFFCURVE",
"109 -36 OFFCURVE",
"51 -36 CURVE SMOOTH",
"42 -36 OFFCURVE",
"16 -34 OFFCURVE",
"7 -34 CURVE SMOOTH",
"-4 -34 OFFCURVE",
"-9 -40 OFFCURVE",
"-9 -51 CURVE SMOOTH",
"-9 -62 OFFCURVE",
"-4 -68 OFFCURVE",
"7 -68 CURVE SMOOTH",
"18 -68 OFFCURVE",
"43 -70 OFFCURVE",
"54 -70 CURVE SMOOTH"
);
},
{
closed = 1;
nodes = (
"364 -16 OFFCURVE",
"303 0 OFFCURVE",
"262 32 CURVE",
"301 72 OFFCURVE",
"332 120 OFFCURVE",
"357 172 CURVE",
"376 174 OFFCURVE",
"391 175 OFFCURVE",
"403 175 CURVE SMOOTH",
"412 175 OFFCURVE",
"437 171 OFFCURVE",
"446 171 CURVE SMOOTH",
"456 171 OFFCURVE",
"461 176 OFFCURVE",
"461 187 CURVE SMOOTH",
"461 197 OFFCURVE",
"456 203 OFFCURVE",
"447 205 CURVE SMOOTH",
"434 207 OFFCURVE",
"421 208 OFFCURVE",
"407 208 CURVE SMOOTH",
"398 208 OFFCURVE",
"387 207 OFFCURVE",
"373 206 CURVE",
"410 290 OFFCURVE",
"436 382 OFFCURVE",
"466 470 CURVE SMOOTH",
"494 553 OFFCURVE",
"526 615 OFFCURVE",
"560 656 CURVE",
"659 644 OFFCURVE",
"738 615 OFFCURVE",
"797 568 CURVE SMOOTH",
"866 513 OFFCURVE",
"901 440 OFFCURVE",
"901 347 CURVE SMOOTH",
"901 232 OFFCURVE",
"853 141 OFFCURVE",
"756 74 CURVE SMOOTH",
"670 14 OFFCURVE",
"567 -16 OFFCURVE",
"446 -16 CURVE SMOOTH"
);
}
);
width = 943;
}
);
note = Eth;
unicode = 00D0;
},
{
glyphname = E;
lastChange = "2022-02-17 14:45:31 +0000";
layers = (
{
layerId = "769237BE-90A6-4D5E-A4C9-331744B3656A";
paths = (
{
closed = 1;
nodes = (
"258 -52 OFFCURVE",
"321 -39 OFFCURVE",
"378 -12 CURVE SMOOTH",
"445 19 OFFCURVE",
"490 64 OFFCURVE",
"511 123 CURVE SMOOTH",
"516 140 OFFCURVE",
"519 157 OFFCURVE",
"519 176 CURVE SMOOTH",
"519 234 OFFCURVE",
"497 263 OFFCURVE",
"452 263 CURVE SMOOTH",
"417 263 OFFCURVE",
"399 256 OFFCURVE",
"399 242 CURVE SMOOTH",
"399 230 OFFCURVE",
"405 224 OFFCURVE",
"416 224 CURVE SMOOTH",
"424 224 OFFCURVE",
"443 229 OFFCURVE",
"451 229 CURVE SMOOTH",
"474 229 OFFCURVE",
"486 213 OFFCURVE",
"486 181 CURVE SMOOTH",
"486 116 OFFCURVE",
"452 65 OFFCURVE",
"383 28 CURVE SMOOTH",
"326 -2 OFFCURVE",
"262 -17 OFFCURVE",
"190 -17 CURVE SMOOTH",
"133 -17 OFFCURVE",
"85 -6 OFFCURVE",
"48 17 CURVE SMOOTH",
"3 45 OFFCURVE",
"-19 85 OFFCURVE",
"-19 137 CURVE SMOOTH",
"-19 193 OFFCURVE",
"5 244 OFFCURVE",
"52 290 CURVE SMOOTH",
"93 331 OFFCURVE",
"144 360 OFFCURVE",
"203 377 CURVE",
"230 364 OFFCURVE",
"268 358 OFFCURVE",
"317 358 CURVE SMOOTH",
"370 358 OFFCURVE",
"396 370 OFFCURVE",
"396 395 CURVE SMOOTH",
"396 416 OFFCURVE",
"377 427 OFFCURVE",
"339 427 CURVE SMOOTH",
"286 427 OFFCURVE",
"242 422 OFFCURVE",
"206 413 CURVE",
"169 434 OFFCURVE",
"151 466 OFFCURVE",
"151 508 CURVE SMOOTH",
"151 560 OFFCURVE",
"180 603 OFFCURVE",
"238 637 CURVE SMOOTH",
"289 666 OFFCURVE",
"343 681 OFFCURVE",
"400 681 CURVE SMOOTH",
"431 681 OFFCURVE",
"457 676 OFFCURVE",
"478 665 CURVE SMOOTH",
"504 652 OFFCURVE",
"517 633 OFFCURVE",
"517 606 CURVE SMOOTH",
"517 559 OFFCURVE",
"479 528 OFFCURVE",
"431 528 CURVE SMOOTH",
"410 528 OFFCURVE",
"400 534 OFFCURVE",
"400 547 CURVE SMOOTH",
"400 551 OFFCURVE",
"404 562 OFFCURVE",
"404 566 CURVE SMOOTH",
"404 578 OFFCURVE",
"398 584 OFFCURVE",
"386 584 CURVE SMOOTH",
"374 584 OFFCURVE",
"365 562 OFFCURVE",
"365 550 CURVE SMOOTH",
"365 517 OFFCURVE",
"399 495 OFFCURVE",
"431 495 CURVE SMOOTH",
"462 495 OFFCURVE",
"489 505 OFFCURVE",
"514 525 CURVE SMOOTH",
"539 545 OFFCURVE",
"551 570 OFFCURVE",
"551 601 CURVE SMOOTH",
"551 641 OFFCURVE",
"534 671 OFFCURVE",
"500 691 CURVE SMOOTH",
"473 707 OFFCURVE",
"438 715 OFFCURVE",
"397 715 CURVE SMOOTH",
"332 715 OFFCURVE",
"271 697 OFFCURVE",
"214 662 CURVE SMOOTH",
"149 621 OFFCURVE",
"117 569 OFFCURVE",
"117 506 CURVE SMOOTH",
"117 465 OFFCURVE",
"133 430 OFFCURVE",
"166 401 CURVE",
"105 378 OFFCURVE",
"55 345 OFFCURVE",
"15 301 CURVE SMOOTH",
"-30 252 OFFCURVE",
"-52 197 OFFCURVE",
"-52 136 CURVE SMOOTH",
"-52 75 OFFCURVE",
"-26 28 OFFCURVE",
"27 -7 CURVE SMOOTH",
"72 -37 OFFCURVE",
"126 -52 OFFCURVE",
"189 -52 CURVE SMOOTH"
);
}
);
width = 553;
}
);
note = E;
unicode = 0045;
},
{
glyphname = F;
lastChange = "2022-02-17 14:45:31 +0000";
layers = (
{
layerId = "769237BE-90A6-4D5E-A4C9-331744B3656A";
paths = (
{
closed = 1;
nodes = (
"422 -31 OFFCURVE",
"551 113 OFFCURVE",
"612 400 CURVE",
"661 400 LINE SMOOTH",
"673 400 OFFCURVE",
"679 406 OFFCURVE",
"679 418 CURVE SMOOTH",
"679 430 OFFCURVE",
"673 436 OFFCURVE",
"661 436 CURVE SMOOTH",
"620 436 LINE",
"636 503 OFFCURVE",
"663 558 OFFCURVE",
"700 601 CURVE",
"712 600 OFFCURVE",
"719 600 OFFCURVE",
"722 600 CURVE SMOOTH",
"741 600 OFFCURVE",
"761 605 OFFCURVE",
"782 614 CURVE SMOOTH",
"808 625 OFFCURVE",
"821 639 OFFCURVE",
"821 655 CURVE SMOOTH",
"821 677 OFFCURVE",
"808 688 OFFCURVE",
"782 688 CURVE SMOOTH",
"749 688 OFFCURVE",
"717 672 OFFCURVE",
"686 639 CURVE",
"662 642 OFFCURVE",
"634 650 OFFCURVE",
"601 662 CURVE SMOOTH",
"519 694 LINE SMOOTH",
"468 712 OFFCURVE",
"418 721 OFFCURVE",
"368 721 CURVE SMOOTH",
"307 721 OFFCURVE",
"253 705 OFFCURVE",
"207 673 CURVE SMOOTH",
"156 638 OFFCURVE",
"130 590 OFFCURVE",
"130 531 CURVE SMOOTH",
"130 468 OFFCURVE",
"169 422 OFFCURVE",
"230 422 CURVE SMOOTH",
"241 422 OFFCURVE",
"253 425 OFFCURVE",
"268 432 CURVE SMOOTH",
"283 439 OFFCURVE",
"291 447 OFFCURVE",
"291 456 CURVE SMOOTH",
"291 467 OFFCURVE",
"286 473 OFFCURVE",
"275 473 CURVE SMOOTH",
"267 473 OFFCURVE",
"244 458 OFFCURVE",
"225 458 CURVE SMOOTH",
"188 458 OFFCURVE",
"166 490 OFFCURVE",
"166 531 CURVE SMOOTH",
"166 580 OFFCURVE",
"188 618 OFFCURVE",
"232 647 CURVE SMOOTH",
"271 672 OFFCURVE",
"317 685 OFFCURVE",
"370 685 CURVE SMOOTH",
"417 685 OFFCURVE",
"468 674 OFFCURVE",
"522 653 CURVE SMOOTH",
"589 628 OFFCURVE",
"634 613 OFFCURVE",
"658 608 CURVE",
"623 559 OFFCURVE",
"598 502 OFFCURVE",
"582 436 CURVE",
"435 436 LINE SMOOTH",
"424 436 OFFCURVE",
"418 430 OFFCURVE",
"418 418 CURVE SMOOTH",
"418 406 OFFCURVE",
"424 400 OFFCURVE",
"435 400 CURVE SMOOTH",
"575 400 LINE",
"517 137 OFFCURVE",
"402 5 OFFCURVE",
"231 5 CURVE SMOOTH",
"180 5 OFFCURVE",
"137 16 OFFCURVE",
"102 39 CURVE SMOOTH",
"63 66 OFFCURVE",
"43 103 OFFCURVE",
"43 150 CURVE SMOOTH",
"43 239 OFFCURVE",
"105 303 OFFCURVE",
"194 303 CURVE SMOOTH",
"222 303 OFFCURVE",
"246 296 OFFCURVE",
"266 283 CURVE SMOOTH",
"289 268 OFFCURVE",
"300 248 OFFCURVE",
"300 223 CURVE SMOOTH",
"300 216 OFFCURVE",
"298 213 OFFCURVE",
"293 213 CURVE SMOOTH",
"282 212 OFFCURVE",
"276 206 OFFCURVE",
"276 195 CURVE SMOOTH",
"276 182 OFFCURVE",
"282 176 OFFCURVE",
"295 176 CURVE SMOOTH",
"307 176 OFFCURVE",
"317 182 OFFCURVE",
"325 193 CURVE SMOOTH",
"332 202 OFFCURVE",
"335 213 OFFCURVE",
"335 224 CURVE SMOOTH",
"335 261 OFFCURVE",
"320 290 OFFCURVE",
"290 311 CURVE SMOOTH",
"263 330 OFFCURVE",
"231 339 OFFCURVE",
"194 339 CURVE SMOOTH",
"139 339 OFFCURVE",
"94 321 OFFCURVE",
"59 286 CURVE SMOOTH",
"24 251 OFFCURVE",
"6 205 OFFCURVE",
"6 150 CURVE SMOOTH",
"6 93 OFFCURVE",
"29 48 OFFCURVE",
"76 14 CURVE SMOOTH",
"118 -16 OFFCURVE",
"168 -31 OFFCURVE",
"226 -31 CURVE SMOOTH"
);
}
);
width = 674;
}
);
note = F;
unicode = 0046;
},
{
glyphname = G;
lastChange = "2022-02-17 14:45:31 +0000";
layers = (
{
layerId = "769237BE-90A6-4D5E-A4C9-331744B3656A";
paths = (
{
closed = 1;
nodes = (
"298 -276 OFFCURVE",
"347 -259 OFFCURVE",
"400 -225 CURVE SMOOTH",
"449 -194 OFFCURVE",
"488 -158 OFFCURVE",
"516 -116 CURVE",
"526 -117 OFFCURVE",
"540 -122 OFFCURVE",
"557 -129 CURVE SMOOTH",
"575 -136 OFFCURVE",
"585 -140 OFFCURVE",
"587 -140 CURVE SMOOTH",
"599 -140 OFFCURVE",
"605 -134 OFFCURVE",
"605 -123 CURVE SMOOTH",
"605 -110 OFFCURVE",
"582 -98 OFFCURVE",
"535 -85 CURVE",
"548 -60 OFFCURVE",
"560 -28 OFFCURVE",
"571 10 CURVE",
"594 110 LINE",
"659 179 OFFCURVE",
"691 233 OFFCURVE",
"691 272 CURVE SMOOTH",
"691 296 OFFCURVE",
"678 308 OFFCURVE",
"652 308 CURVE SMOOTH",
"629 308 OFFCURVE",
"608 283 OFFCURVE",
"590 232 CURVE SMOOTH",
"583 213 OFFCURVE",
"574 178 OFFCURVE",
"562 126 CURVE",
"470 34 OFFCURVE",
"378 -12 OFFCURVE",
"285 -12 CURVE SMOOTH",
"218 -12 OFFCURVE",
"163 7 OFFCURVE",
"118 45 CURVE SMOOTH",
"71 85 OFFCURVE",
"47 137 OFFCURVE",
"47 202 CURVE SMOOTH",
"47 255 OFFCURVE",
"62 310 OFFCURVE",
"91 365 CURVE SMOOTH",
"117 415 OFFCURVE",
"151 460 OFFCURVE",
"194 501 CURVE",
"214 458 OFFCURVE",
"254 425 OFFCURVE",
"314 401 CURVE SMOOTH",
"364 382 OFFCURVE",
"416 372 OFFCURVE",
"470 372 CURVE SMOOTH",
"529 372 OFFCURVE",
"585 383 OFFCURVE",
"636 406 CURVE SMOOTH",
"703 435 OFFCURVE",
"737 477 OFFCURVE",
"737 530 CURVE SMOOTH",
"737 577 OFFCURVE",
"708 611 OFFCURVE",
"650 634 CURVE SMOOTH",
"608 651 OFFCURVE",
"560 660 OFFCURVE",
"507 660 CURVE SMOOTH",
"400 660 OFFCURVE",
"303 627 OFFCURVE",
"214 561 CURVE",
"213 589 OFFCURVE",
"220 616 OFFCURVE",
"236 641 CURVE SMOOTH",
"239 645 OFFCURVE",
"240 649 OFFCURVE",
"240 652 CURVE SMOOTH",
"240 663 OFFCURVE",
"234 669 OFFCURVE",
"222 669 CURVE SMOOTH",
"217 669 OFFCURVE",
"213 667 OFFCURVE",
"210 663 CURVE SMOOTH",
"190 638 OFFCURVE",
"180 608 OFFCURVE",
"180 571 CURVE SMOOTH",
"180 559 OFFCURVE",
"181 547 OFFCURVE",
"184 536 CURVE",
"134 493 OFFCURVE",
"94 443 OFFCURVE",
"63 386 CURVE SMOOTH",
"30 325 OFFCURVE",
"13 263 OFFCURVE",
"13 202 CURVE SMOOTH",
"13 128 OFFCURVE",
"40 68 OFFCURVE",
"95 21 CURVE SMOOTH",
"147 -24 OFFCURVE",
"210 -46 OFFCURVE",
"285 -46 CURVE SMOOTH",
"374 -46 OFFCURVE",
"462 -9 OFFCURVE",
"549 66 CURVE",
"535 3 OFFCURVE",
"518 -46 OFFCURVE",
"498 -81 CURVE",
"488 -80 OFFCURVE",
"477 -79 OFFCURVE",
"465 -79 CURVE SMOOTH",
"413 -79 OFFCURVE",
"356 -89 OFFCURVE",
"293 -110 CURVE SMOOTH",
"210 -137 OFFCURVE",
"168 -172 OFFCURVE",
"168 -215 CURVE SMOOTH",
"168 -236 OFFCURVE",
"178 -251 OFFCURVE",
"197 -262 CURVE SMOOTH",
"212 -271 OFFCURVE",
"230 -276 OFFCURVE",
"251 -276 CURVE SMOOTH"
);
},
{
closed = 1;
nodes = (
"220 -240 OFFCURVE",
"207 -233 OFFCURVE",
"207 -218 CURVE SMOOTH",
"207 -184 OFFCURVE",
"243 -157 OFFCURVE",
"316 -136 CURVE SMOOTH",
"372 -120 OFFCURVE",
"425 -112 OFFCURVE",
"474 -113 CURVE SMOOTH",
"477 -113 LINE",
"449 -150 OFFCURVE",
"415 -180 OFFCURVE",
"375 -203 CURVE SMOOTH",
"332 -228 OFFCURVE",
"290 -240 OFFCURVE",
"247 -240 CURVE SMOOTH"
);
},
{
closed = 1;
nodes = (
"418 408 OFFCURVE",
"370 416 OFFCURVE",
"325 433 CURVE SMOOTH",
"269 454 OFFCURVE",
"235 484 OFFCURVE",
"222 523 CURVE",
"306 591 OFFCURVE",
"401 625 OFFCURVE",
"506 625 CURVE SMOOTH",
"551 625 OFFCURVE",
"591 619 OFFCURVE",
"628 606 CURVE SMOOTH",
"678 589 OFFCURVE",
"703 563 OFFCURVE",
"703 528 CURVE SMOOTH",
"703 488 OFFCURVE",
"673 457 OFFCURVE",
"614 434 CURVE SMOOTH",
"568 417 OFFCURVE",
"520 408 OFFCURVE",
"469 408 CURVE SMOOTH"
);
}
);
width = 731;
}
);
note = G;
unicode = 0047;
},
{
glyphname = H;
lastChange = "2022-02-17 14:45:31 +0000";
layers = (
{
layerId = "769237BE-90A6-4D5E-A4C9-331744B3656A";
paths = (
{
closed = 1;
nodes = (
"242 -39 OFFCURVE",
"281 -30 OFFCURVE",
"318 -11 CURVE SMOOTH",
"429 43 OFFCURVE",
"506 157 OFFCURVE",
"550 332 CURVE",
"829 332 LINE",
"804 251 OFFCURVE",
"791 167 OFFCURVE",
"791 78 CURVE SMOOTH",
"791 20 OFFCURVE",
"806 -9 OFFCURVE",
"837 -9 CURVE SMOOTH",
"844 -9 OFFCURVE",
"848 -4 OFFCURVE",
"848 5 CURVE SMOOTH",
"848 13 OFFCURVE",
"845 19 OFFCURVE",
"838 22 CURVE SMOOTH",
"829 26 OFFCURVE",
"825 50 OFFCURVE",
"825 94 CURVE SMOOTH",
"825 145 OFFCURVE",
"836 215 OFFCURVE",
"859 303 CURVE SMOOTH",
"884 399 OFFCURVE",
"913 479 OFFCURVE",
"947 542 CURVE SMOOTH",
"987 619 OFFCURVE",
"1027 657 OFFCURVE",
"1067 657 CURVE SMOOTH",
"1083 657 LINE SMOOTH",
"1091 658 OFFCURVE",
"1095 664 OFFCURVE",
"1095 674 CURVE SMOOTH",
"1095 686 OFFCURVE",
"1085 692 OFFCURVE",
"1066 692 CURVE SMOOTH",
"1018 692 OFFCURVE",
"970 648 OFFCURVE",
"922 561 CURVE SMOOTH",
"891 507 OFFCURVE",
"864 442 OFFCURVE",
"840 366 CURVE",
"557 366 LINE",
"570 440 OFFCURVE",
"596 500 OFFCURVE",
"637 547 CURVE",
"710 548 OFFCURVE",
"746 564 OFFCURVE",
"746 597 CURVE SMOOTH",
"746 617 OFFCURVE",
"734 627 OFFCURVE",
"711 627 CURVE SMOOTH",
"682 627 OFFCURVE",
"653 612 OFFCURVE",
"623 583 CURVE",
"602 586 OFFCURVE",
"579 592 OFFCURVE",
"554 600 CURVE SMOOTH",
"487 625 LINE SMOOTH",
"430 646 OFFCURVE",
"379 657 OFFCURVE",
"335 657 CURVE SMOOTH",
"280 657 OFFCURVE",
"232 642 OFFCURVE",
"189 613 CURVE SMOOTH",
"141 580 OFFCURVE",
"117 537 OFFCURVE",
"117 484 CURVE SMOOTH",
"117 431 OFFCURVE",
"156 384 OFFCURVE",
"209 384 CURVE SMOOTH",
"219 384 OFFCURVE",
"230 387 OFFCURVE",
"242 393 CURVE SMOOTH",
"257 400 OFFCURVE",
"265 407 OFFCURVE",
"265 416 CURVE SMOOTH",
"265 427 OFFCURVE",
"259 432 OFFCURVE",
"247 432 CURVE SMOOTH",
"243 432 OFFCURVE",
"221 419 OFFCURVE",
"205 419 CURVE SMOOTH",
"172 419 OFFCURVE",
"151 449 OFFCURVE",
"151 484 CURVE SMOOTH",
"151 527 OFFCURVE",
"171 562 OFFCURVE",
"212 588 CURVE SMOOTH",
"248 611 OFFCURVE",
"290 622 OFFCURVE",
"337 622 CURVE SMOOTH",
"380 622 OFFCURVE",
"426 613 OFFCURVE",
"475 594 CURVE SMOOTH",
"537 571 OFFCURVE",
"578 557 OFFCURVE",
"598 553 CURVE",
"570 516 OFFCURVE",
"548 467 OFFCURVE",
"532 407 CURVE SMOOTH",
"507 311 OFFCURVE",
"493 260 OFFCURVE",
"491 253 CURVE SMOOTH",
"461 172 OFFCURVE",
"419 109 OFFCURVE",
"366 64 CURVE SMOOTH",
"312 18 OFFCURVE",
"255 -5 OFFCURVE",
"193 -5 CURVE SMOOTH",
"154 -5 OFFCURVE",
"120 6 OFFCURVE",
"90 28 CURVE SMOOTH",
"56 55 OFFCURVE",
"39 91 OFFCURVE",
"39 136 CURVE SMOOTH",
"39 175 OFFCURVE",
"52 209 OFFCURVE",
"79 237 CURVE SMOOTH",
"106 265 OFFCURVE",
"138 279 OFFCURVE",
"177 279 CURVE SMOOTH",
"198 279 OFFCURVE",
"219 271 OFFCURVE",
"240 255 CURVE SMOOTH",
"262 239 OFFCURVE",
"273 222 OFFCURVE",
"273 203 CURVE SMOOTH",
"273 198 OFFCURVE",
"271 195 OFFCURVE",
"266 195 CURVE SMOOTH",
"255 194 OFFCURVE",
"250 189 OFFCURVE",
"250 178 CURVE SMOOTH",
"250 167 OFFCURVE",
"255 161 OFFCURVE",
"265 161 CURVE SMOOTH",
"292 161 OFFCURVE",
"305 176 OFFCURVE",
"305 205 CURVE SMOOTH",
"305 234 OFFCURVE",
"290 260 OFFCURVE",
"261 282 CURVE SMOOTH",
"234 302 OFFCURVE",
"206 312 OFFCURVE",
"176 312 CURVE SMOOTH",
"129 312 OFFCURVE",
"88 294 OFFCURVE",
"55 259 CURVE SMOOTH",
"22 224 OFFCURVE",
"6 183 OFFCURVE",
"6 136 CURVE SMOOTH",
"6 84 OFFCURVE",
"26 41 OFFCURVE",
"67 8 CURVE SMOOTH",
"105 -23 OFFCURVE",
"150 -39 OFFCURVE",
"203 -39 CURVE SMOOTH"
);
}
);
width = 936;
}
);
note = H;
unicode = 0048;
},
{
glyphname = I;
lastChange = "2022-02-17 14:45:31 +0000";
layers = (
{
layerId = "769237BE-90A6-4D5E-A4C9-331744B3656A";
paths = (
{
closed = 1;
nodes = (
"227 -58 OFFCURVE",
"302 -4 OFFCURVE",
"358 104 CURVE SMOOTH",
"397 180 OFFCURVE",
"423 274 OFFCURVE",
"438 387 CURVE SMOOTH",
"444 435 OFFCURVE",
"455 478 OFFCURVE",
"472 515 CURVE SMOOTH",
"493 564 OFFCURVE",
"521 595 OFFCURVE",
"555 609 CURVE",
"564 607 OFFCURVE",
"572 606 OFFCURVE",
"579 606 CURVE SMOOTH",
"597 606 OFFCURVE",
"606 611 OFFCURVE",
"606 622 CURVE SMOOTH",
"606 637 OFFCURVE",
"595 645 OFFCURVE",
"572 645 CURVE SMOOTH",
"534 645 LINE",
"525 646 OFFCURVE",
"516 646 OFFCURVE",
"507 646 CURVE SMOOTH",
"442 646 OFFCURVE",
"381 627 OFFCURVE",
"326 587 CURVE SMOOTH",
"258 538 OFFCURVE",
"224 476 OFFCURVE",
"224 400 CURVE SMOOTH",
"224 352 OFFCURVE",
"241 320 OFFCURVE",
"275 303 CURVE SMOOTH",
"285 298 OFFCURVE",
"293 295 OFFCURVE",
"300 295 CURVE SMOOTH",
"312 295 OFFCURVE",
"325 297 OFFCURVE",
"338 300 CURVE SMOOTH",
"356 305 OFFCURVE",
"365 312 OFFCURVE",
"365 320 CURVE SMOOTH",
"365 332 OFFCURVE",
"361 338 OFFCURVE",
"352 338 CURVE SMOOTH",
"350 338 OFFCURVE",
"346 337 OFFCURVE",
"343 336 CURVE SMOOTH",
"328 331 OFFCURVE",
"314 329 OFFCURVE",
"303 329 CURVE SMOOTH",
"289 329 OFFCURVE",
"278 337 OFFCURVE",
"269 354 CURVE SMOOTH",
"262 368 OFFCURVE",
"258 383 OFFCURVE",
"258 400 CURVE SMOOTH",
"258 460 OFFCURVE",
"284 511 OFFCURVE",
"335 552 CURVE SMOOTH",
"382 591 OFFCURVE",
"437 611 OFFCURVE",
"500 613 CURVE",
"449 567 OFFCURVE",
"418 493 OFFCURVE",
"405 391 CURVE SMOOTH",
"392 287 OFFCURVE",
"368 199 OFFCURVE",
"331 127 CURVE SMOOTH",
"281 26 OFFCURVE",
"215 -24 OFFCURVE",
"132 -24 CURVE SMOOTH",
"80 -24 OFFCURVE",
"37 23 OFFCURVE",
"37 75 CURVE SMOOTH",
"37 89 OFFCURVE",
"42 105 OFFCURVE",
"51 122 CURVE SMOOTH",
"61 139 OFFCURVE",
"66 148 OFFCURVE",
"66 149 CURVE SMOOTH",
"66 160 OFFCURVE",
"60 166 OFFCURVE",
"49 166 CURVE SMOOTH",
"44 166 OFFCURVE",
"40 164 OFFCURVE",
"36 160 CURVE SMOOTH",
"15 137 OFFCURVE",
"4 108 OFFCURVE",
"4 75 CURVE SMOOTH",
"4 40 OFFCURVE",
"17 9 OFFCURVE",
"42 -18 CURVE SMOOTH",
"67 -45 OFFCURVE",
"98 -58 OFFCURVE",
"133 -58 CURVE SMOOTH"
);
}
);
width = 477;
}
);
note = I;
unicode = 0049;
},
{
glyphname = J;
lastChange = "2022-02-17 14:45:31 +0000";
layers = (
{
layerId = "769237BE-90A6-4D5E-A4C9-331744B3656A";
paths = (
{
closed = 1;
nodes = (
"372 -74 OFFCURVE",
"488 58 OFFCURVE",
"546 323 CURVE",
"559 330 OFFCURVE",
"574 342 OFFCURVE",
"591 358 CURVE SMOOTH",
"611 377 OFFCURVE",
"621 392 OFFCURVE",
"621 402 CURVE SMOOTH",
"621 413 OFFCURVE",
"617 419 OFFCURVE",
"608 419 CURVE SMOOTH",
"602 419 OFFCURVE",
"588 407 OFFCURVE",
"566 384 CURVE SMOOTH",
"557 374 LINE",
"568 433 OFFCURVE",
"577 475 OFFCURVE",
"584 499 CURVE SMOOTH",
"598 544 OFFCURVE",
"618 582 OFFCURVE",
"643 612 CURVE",
"715 612 OFFCURVE",
"751 627 OFFCURVE",
"751 657 CURVE SMOOTH",
"751 679 OFFCURVE",
"739 690 OFFCURVE",
"716 690 CURVE SMOOTH",
"687 690 OFFCURVE",
"657 675 OFFCURVE",
"627 645 CURVE",
"565 634 OFFCURVE",
"508 608 OFFCURVE",
"455 567 CURVE SMOOTH",
"394 520 OFFCURVE",
"363 467 OFFCURVE",
"363 409 CURVE SMOOTH",
"363 376 OFFCURVE",
"375 350 OFFCURVE",
"398 330 CURVE SMOOTH",
"419 312 OFFCURVE",
"445 303 OFFCURVE",
"476 303 CURVE SMOOTH",
"487 303 OFFCURVE",
"497 304 OFFCURVE",
"508 307 CURVE",
"453 76 OFFCURVE",
"349 -40 OFFCURVE",
"198 -40 CURVE SMOOTH",
"151 -40 OFFCURVE",
"111 -27 OFFCURVE",
"80 -2 CURVE SMOOTH",
"47 25 OFFCURVE",
"30 62 OFFCURVE",
"30 109 CURVE SMOOTH",
"30 155 OFFCURVE",
"43 193 OFFCURVE",
"70 224 CURVE SMOOTH",
"97 255 OFFCURVE",
"134 270 OFFCURVE",
"179 270 CURVE SMOOTH",
"207 270 OFFCURVE",
"231 263 OFFCURVE",
"251 250 CURVE SMOOTH",
"274 235 OFFCURVE",
"285 215 OFFCURVE",
"285 189 CURVE SMOOTH",
"285 177 OFFCURVE",
"274 154 OFFCURVE",
"274 149 CURVE SMOOTH",
"274 138 OFFCURVE",
"280 133 OFFCURVE",
"292 133 CURVE SMOOTH",
"300 133 OFFCURVE",
"307 141 OFFCURVE",
"313 156 CURVE SMOOTH",
"318 169 OFFCURVE",
"320 180 OFFCURVE",
"320 190 CURVE SMOOTH",
"320 226 OFFCURVE",
"306 255 OFFCURVE",
"277 276 CURVE SMOOTH",
"251 295 OFFCURVE",
"220 305 OFFCURVE",
"183 305 CURVE SMOOTH",
"127 305 OFFCURVE",
"82 286 OFFCURVE",
"47 249 CURVE SMOOTH",
"12 212 OFFCURVE",
"-5 165 OFFCURVE",
"-5 109 CURVE SMOOTH",
"-5 54 OFFCURVE",
"15 9 OFFCURVE",
"56 -26 CURVE SMOOTH",
"95 -58 OFFCURVE",
"142 -74 OFFCURVE",
"197 -74 CURVE SMOOTH"
);
},
{
closed = 1;
nodes = (
"432 337 OFFCURVE",
"397 364 OFFCURVE",
"397 409 CURVE SMOOTH",
"397 452 OFFCURVE",
"419 492 OFFCURVE",
"464 530 CURVE SMOOTH",
"501 563 OFFCURVE",
"545 587 OFFCURVE",
"594 602 CURVE",
"572 567 OFFCURVE",
"555 526 OFFCURVE",
"543 477 CURVE SMOOTH",
"540 468 OFFCURVE",
"532 424 OFFCURVE",
"517 346 CURVE",
"504 340 OFFCURVE",
"490 337 OFFCURVE",
"475 337 CURVE SMOOTH"
);
}
);
width = 601;
}
);
note = J;
unicode = 004A;
},
{
glyphname = K;
lastChange = "2022-02-17 14:45:31 +0000";
layers = (
{
layerId = "769237BE-90A6-4D5E-A4C9-331744B3656A";
paths = (
{
closed = 1;
nodes = (
"938 -97 OFFCURVE",
"949 -95 OFFCURVE",
"961 -92 CURVE SMOOTH",
"978 -87 OFFCURVE",
"986 -81 OFFCURVE",
"986 -74 CURVE SMOOTH",
"986 -62 OFFCURVE",
"980 -56 OFFCURVE",
"969 -56 CURVE SMOOTH",
"960 -56 OFFCURVE",
"936 -64 OFFCURVE",
"927 -64 CURVE SMOOTH",
"873 -64 OFFCURVE",
"814 -14 OFFCURVE",
"750 87 CURVE",
"687 198 LINE SMOOTH",
"662 245 OFFCURVE",
"639 281 OFFCURVE",
"620 307 CURVE",
"710 327 OFFCURVE",
"791 372 OFFCURVE",
"862 442 CURVE SMOOTH",
"926 505 OFFCURVE",
"977 583 OFFCURVE",
"1015 675 CURVE SMOOTH",
"1016 677 OFFCURVE",
"1016 679 OFFCURVE",
"1016 681 CURVE SMOOTH",
"1016 692 OFFCURVE",
"1010 698 OFFCURVE",
"998 698 CURVE SMOOTH",
"991 698 OFFCURVE",
"986 695 OFFCURVE",
"983 689 CURVE SMOOTH",
"968 658 OFFCURVE",
"957 635 OFFCURVE",
"951 619 CURVE",
"913 548 OFFCURVE",
"864 487 OFFCURVE",
"803 436 CURVE SMOOTH",
"738 382 OFFCURVE",
"668 349 OFFCURVE",
"593 336 CURVE",
"578 348 OFFCURVE",
"563 356 OFFCURVE",
"546 360 CURVE",
"561 441 OFFCURVE",
"576 496 OFFCURVE",
"590 524 CURVE",
"655 559 OFFCURVE",
"700 599 OFFCURVE",
"726 642 CURVE SMOOTH",
"733 654 OFFCURVE",
"737 664 OFFCURVE",
"737 672 CURVE SMOOTH",
"737 683 OFFCURVE",
"729 689 OFFCURVE",
"713 689 CURVE SMOOTH",
"686 689 OFFCURVE",
"657 671 OFFCURVE",
"625 636 CURVE SMOOTH",
"600 609 OFFCURVE",
"580 580 OFFCURVE",
"564 549 CURVE",
"518 526 OFFCURVE",
"478 514 OFFCURVE",
"443 514 CURVE SMOOTH",
"407 514 OFFCURVE",
"375 526 OFFCURVE",
"346 551 CURVE SMOOTH",
"343 554 OFFCURVE",
"339 556 OFFCURVE",
"334 556 CURVE SMOOTH",
"323 556 OFFCURVE",
"317 550 OFFCURVE",
"317 538 CURVE SMOOTH",
"317 534 OFFCURVE",
"318 531 OFFCURVE",
"321 528 CURVE SMOOTH",
"348 496 OFFCURVE",
"386 480 OFFCURVE",
"435 480 CURVE SMOOTH",
"469 480 OFFCURVE",
"505 487 OFFCURVE",
"543 502 CURVE",
"527 439 OFFCURVE",
"517 391 OFFCURVE",
"512 358 CURVE",
"497 352 OFFCURVE",
"490 342 OFFCURVE",
"490 329 CURVE SMOOTH",
"490 320 OFFCURVE",
"493 312 OFFCURVE",
"500 305 CURVE",
"444 70 OFFCURVE",
"339 -47 OFFCURVE",
"186 -47 CURVE SMOOTH",
"139 -47 OFFCURVE",
"100 -33 OFFCURVE",
"68 -6 CURVE SMOOTH",
"37 21 OFFCURVE",
"21 57 OFFCURVE",
"21 103 CURVE SMOOTH",
"21 196 OFFCURVE",
"80 264 OFFCURVE",
"172 264 CURVE SMOOTH",
"197 264 OFFCURVE",
"221 256 OFFCURVE",
"245 239 CURVE SMOOTH",
"270 222 OFFCURVE",
"282 202 OFFCURVE",
"282 179 CURVE SMOOTH",
"282 162 OFFCURVE",
"265 152 OFFCURVE",
"265 144 CURVE SMOOTH",
"265 133 OFFCURVE",
"271 127 OFFCURVE",
"283 127 CURVE SMOOTH",
"292 127 OFFCURVE",
"300 134 OFFCURVE",
"307 147 CURVE SMOOTH",
"313 158 OFFCURVE",
"316 169 OFFCURVE",
"316 179 CURVE SMOOTH",
"316 214 OFFCURVE",
"300 244 OFFCURVE",
"268 267 CURVE SMOOTH",
"239 288 OFFCURVE",
"207 299 OFFCURVE",
"171 299 CURVE SMOOTH",
"116 299 OFFCURVE",
"72 280 OFFCURVE",
"37 242 CURVE SMOOTH",
"3 204 OFFCURVE",
"-14 158 OFFCURVE",
"-14 103 CURVE SMOOTH",
"-14 47 OFFCURVE",
"5 3 OFFCURVE",
"43 -30 CURVE SMOOTH",
"81 -63 OFFCURVE",
"128 -80 OFFCURVE",
"184 -80 CURVE SMOOTH",
"280 -80 OFFCURVE",
"360 -39 OFFCURVE",
"423 44 CURVE SMOOTH",
"472 107 OFFCURVE",
"508 192 OFFCURVE",
"533 297 CURVE",
"556 297 OFFCURVE",
"573 298 OFFCURVE",
"582 300 CURVE",
"600 279 OFFCURVE",
"623 245 OFFCURVE",
"650 196 CURVE SMOOTH",
"706 97 OFFCURVE",
"743 35 OFFCURVE",
"760 11 CURVE SMOOTH",
"815 -61 OFFCURVE",
"870 -97 OFFCURVE",
"927 -97 CURVE SMOOTH"
);
}
);
width = 848;
}
);
note = K;
unicode = 004B;
},
{
glyphname = L;
lastChange = "2022-02-17 14:45:31 +0000";
layers = (
{
layerId = "769237BE-90A6-4D5E-A4C9-331744B3656A";
paths = (
{
closed = 1;
nodes = (
"759 -68 OFFCURVE",
"793 -46 OFFCURVE",
"793 -2 CURVE SMOOTH",
"793 8 OFFCURVE",
"788 13 OFFCURVE",
"778 13 CURVE SMOOTH",
"765 13 OFFCURVE",
"759 7 OFFCURVE",
"759 -6 CURVE SMOOTH",
"759 -25 OFFCURVE",
"736 -34 OFFCURVE",
"691 -34 CURVE SMOOTH",
"614 -34 OFFCURVE",
"527 -3 OFFCURVE",
"430 58 CURVE",
"458 93 OFFCURVE",
"484 140 OFFCURVE",
"507 199 CURVE SMOOTH",
"561 351 LINE",
"640 356 OFFCURVE",
"712 379 OFFCURVE",
"779 419 CURVE SMOOTH",
"854 464 OFFCURVE",
"902 520 OFFCURVE",
"922 589 CURVE SMOOTH",
"929 612 OFFCURVE",
"932 634 OFFCURVE",
"932 655 CURVE SMOOTH",
"932 736 OFFCURVE",
"892 776 OFFCURVE",
"811 776 CURVE SMOOTH",
"744 776 OFFCURVE",
"684 726 OFFCURVE",
"631 626 CURVE SMOOTH",
"607 581 OFFCURVE",
"575 501 OFFCURVE",
"536 385 CURVE",
"489 386 OFFCURVE",
"449 394 OFFCURVE",
"417 410 CURVE SMOOTH",
"376 430 OFFCURVE",
"356 461 OFFCURVE",
"356 502 CURVE SMOOTH",
"356 525 OFFCURVE",
"364 546 OFFCURVE",
"379 566 CURVE SMOOTH",
"390 581 OFFCURVE",
"402 591 OFFCURVE",
"414 597 CURVE SMOOTH",
"423 601 OFFCURVE",
"428 606 OFFCURVE",
"428 613 CURVE SMOOTH",
"428 624 OFFCURVE",
"422 630 OFFCURVE",
"409 630 CURVE SMOOTH",
"406 630 OFFCURVE",
"404 630 OFFCURVE",
"402 629 CURVE SMOOTH",
"358 608 OFFCURVE",
"323 557 OFFCURVE",
"323 502 CURVE SMOOTH",
"323 451 OFFCURVE",
"346 413 OFFCURVE",
"391 386 CURVE SMOOTH",
"428 364 OFFCURVE",
"473 352 OFFCURVE",
"526 351 CURVE",
"476 208 LINE",
"453 153 OFFCURVE",
"429 109 OFFCURVE",
"403 77 CURVE",
"334 121 OFFCURVE",
"288 148 OFFCURVE",
"266 159 CURVE SMOOTH",
"213 185 OFFCURVE",
"161 198 OFFCURVE",
"112 198 CURVE SMOOTH",
"77 198 OFFCURVE",
"47 190 OFFCURVE",
"23 173 CURVE SMOOTH",
"-4 154 OFFCURVE",
"-17 127 OFFCURVE",
"-17 92 CURVE SMOOTH",
"-17 43 OFFCURVE",
"6 4 OFFCURVE",
"51 -25 CURVE SMOOTH",
"90 -50 OFFCURVE",
"134 -62 OFFCURVE",
"185 -62 CURVE SMOOTH",
"272 -62 OFFCURVE",
"347 -30 OFFCURVE",
"408 33 CURVE",
"511 -34 OFFCURVE",
"605 -68 OFFCURVE",
"690 -68 CURVE SMOOTH"
);
},
{
closed = 1;
nodes = (
"143 -28 OFFCURVE",
"106 -18 OFFCURVE",
"73 1 CURVE SMOOTH",
"36 23 OFFCURVE",
"17 53 OFFCURVE",
"17 91 CURVE SMOOTH",
"17 115 OFFCURVE",
"27 134 OFFCURVE",
"46 147 CURVE SMOOTH",
"63 158 OFFCURVE",
"85 164 OFFCURVE",
"112 164 CURVE SMOOTH",
"184 164 OFFCURVE",
"273 126 OFFCURVE",
"379 51 CURVE",
"326 -2 OFFCURVE",
"261 -28 OFFCURVE",
"184 -28 CURVE SMOOTH"
);
},
{
closed = 1;
nodes = (
"606 486 OFFCURVE",
"634 557 OFFCURVE",
"657 600 CURVE SMOOTH",
"706 696 OFFCURVE",
"757 744 OFFCURVE",
"810 744 CURVE SMOOTH",
"867 744 OFFCURVE",
"896 714 OFFCURVE",
"896 654 CURVE SMOOTH",
"896 637 OFFCURVE",
"893 619 OFFCURVE",
"888 600 CURVE SMOOTH",
"872 541 OFFCURVE",
"831 491 OFFCURVE",
"765 451 CURVE SMOOTH",
"707 416 OFFCURVE",
"643 394 OFFCURVE",
"572 387 CURVE"
);
}
);
width = 832;
}
);
note = L;
unicode = 004C;
},
{
glyphname = M;
lastChange = "2022-02-17 14:45:31 +0000";
layers = (
{
layerId = "769237BE-90A6-4D5E-A4C9-331744B3656A";
paths = (
{
closed = 1;
nodes = (
"918 -50 OFFCURVE",
"927 -44 OFFCURVE",
"927 -33 CURVE SMOOTH",
"927 -22 OFFCURVE",
"920 -16 OFFCURVE",
"905 -14 CURVE SMOOTH",
"891 -13 OFFCURVE",
"881 -10 OFFCURVE",
"876 -5 CURVE SMOOTH",
"871 -1 OFFCURVE",
"868 8 OFFCURVE",
"868 22 CURVE SMOOTH",
"868 58 OFFCURVE",
"878 103 OFFCURVE",
"898 157 CURVE SMOOTH",
"905 177 OFFCURVE",
"924 220 OFFCURVE",
"954 285 CURVE SMOOTH",
"1012 414 OFFCURVE",
"1041 514 OFFCURVE",
"1041 585 CURVE SMOOTH",
"1041 618 OFFCURVE",
"1034 646 OFFCURVE",
"1020 667 CURVE SMOOTH",
"1003 692 OFFCURVE",
"979 705 OFFCURVE",
"947 705 CURVE SMOOTH",
"859 705 OFFCURVE",
"774 612 OFFCURVE",
"692 426 CURVE",
"698 463 OFFCURVE",
"701 497 OFFCURVE",
"701 526 CURVE SMOOTH",
"701 625 OFFCURVE",
"668 674 OFFCURVE",
"603 674 CURVE SMOOTH",
"520 674 OFFCURVE",
"440 583 OFFCURVE",
"364 400 CURVE",
"369 434 OFFCURVE",
"372 466 OFFCURVE",
"372 496 CURVE SMOOTH",
"372 643 OFFCURVE",
"312 716 OFFCURVE",
"193 716 CURVE SMOOTH",
"139 716 OFFCURVE",
"91 695 OFFCURVE",
"48 654 CURVE SMOOTH",
"6 613 OFFCURVE",
"-15 566 OFFCURVE",
"-15 511 CURVE SMOOTH",
"-15 470 OFFCURVE",
"-1 432 OFFCURVE",
"28 399 CURVE SMOOTH",
"57 366 OFFCURVE",
"93 349 OFFCURVE",
"134 349 CURVE SMOOTH",
"174 349 OFFCURVE",
"207 364 OFFCURVE",
"232 395 CURVE SMOOTH",
"255 422 OFFCURVE",
"267 454 OFFCURVE",
"267 489 CURVE SMOOTH",
"267 517 OFFCURVE",
"259 540 OFFCURVE",
"244 557 CURVE SMOOTH",
"227 576 OFFCURVE",
"203 586 OFFCURVE",
"172 586 CURVE SMOOTH",
"152 586 OFFCURVE",
"142 580 OFFCURVE",
"142 569 CURVE SMOOTH",
"142 558 OFFCURVE",
"150 553 OFFCURVE",
"166 553 CURVE SMOOTH",
"212 553 OFFCURVE",
"235 532 OFFCURVE",
"235 491 CURVE SMOOTH",
"235 465 OFFCURVE",
"226 441 OFFCURVE",
"207 420 CURVE SMOOTH",
"187 397 OFFCURVE",
"163 385 OFFCURVE",
"135 385 CURVE SMOOTH",
"104 385 OFFCURVE",
"76 398 OFFCURVE",
"53 424 CURVE SMOOTH",
"30 450 OFFCURVE",
"18 479 OFFCURVE",
"18 511 CURVE SMOOTH",
"18 556 OFFCURVE",
"36 596 OFFCURVE",
"72 631 CURVE SMOOTH",
"108 666 OFFCURVE",
"149 683 OFFCURVE",
"194 683 CURVE SMOOTH",
"285 683 OFFCURVE",
"330 622 OFFCURVE",
"330 500 CURVE SMOOTH",
"330 429 OFFCURVE",
"316 347 OFFCURVE",
"289 253 CURVE SMOOTH",
"215 13 LINE",
"215 10 LINE SMOOTH",
"215 -1 OFFCURVE",
"221 -6 OFFCURVE",
"234 -6 CURVE SMOOTH",
"241 -6 OFFCURVE",
"248 1 OFFCURVE",
"254 16 CURVE SMOOTH",
"257 26 OFFCURVE",
"261 36 OFFCURVE",
"265 46 CURVE SMOOTH",
"319 201 LINE SMOOTH",
"347 279 OFFCURVE",
"373 345 OFFCURVE",
"398 399 CURVE SMOOTH",
"471 560 OFFCURVE",
"539 640 OFFCURVE",
"601 640 CURVE SMOOTH",
"646 640 OFFCURVE",
"669 604 OFFCURVE",
"669 531 CURVE SMOOTH",
"669 450 OFFCURVE",
"638 319 OFFCURVE",
"575 137 CURVE SMOOTH",
"548 58 OFFCURVE",
"535 18 OFFCURVE",
"535 17 CURVE SMOOTH",
"535 6 OFFCURVE",
"542 1 OFFCURVE",
"555 1 CURVE SMOOTH",
"561 1 OFFCURVE",
"565 4 OFFCURVE",
"568 9 CURVE",
"588 64 OFFCURVE",
"602 106 OFFCURVE",
"611 134 CURVE SMOOTH",
"737 493 OFFCURVE",
"849 672 OFFCURVE",
"948 672 CURVE SMOOTH",
"987 672 OFFCURVE",
"1007 643 OFFCURVE",
"1007 586 CURVE SMOOTH",
"1007 516 OFFCURVE",
"978 419 OFFCURVE",
"921 296 CURVE SMOOTH",
"892 232 OFFCURVE",
"873 189 OFFCURVE",
"864 166 CURVE SMOOTH",
"845 113 OFFCURVE",
"835 67 OFFCURVE",
"835 28 CURVE SMOOTH",
"835 -24 OFFCURVE",
"857 -50 OFFCURVE",
"900 -50 CURVE SMOOTH"
);
}
);
width = 993;
}
);
note = M;
unicode = 004D;
},
{
glyphname = N;
lastChange = "2022-02-17 14:45:31 +0000";
layers = (
{
layerId = "769237BE-90A6-4D5E-A4C9-331744B3656A";
paths = (
{
closed = 1;
nodes = (
"606 -63 OFFCURVE",
"631 -53 OFFCURVE",
"631 -41 CURVE SMOOTH",
"631 -29 OFFCURVE",
"625 -23 OFFCURVE",
"614 -23 CURVE SMOOTH",
"609 -23 OFFCURVE",
"597 -29 OFFCURVE",
"592 -29 CURVE SMOOTH",
"578 -29 OFFCURVE",
"571 -17 OFFCURVE",
"571 6 CURVE SMOOTH",
"571 17 OFFCURVE",
"573 32 OFFCURVE",
"576 51 CURVE SMOOTH",
"586 97 OFFCURVE",
"606 150 OFFCURVE",
"637 210 CURVE SMOOTH",
"681 295 OFFCURVE",
"706 345 OFFCURVE",
"712 360 CURVE SMOOTH",
"736 419 OFFCURVE",
"748 477 OFFCURVE",
"748 534 CURVE SMOOTH",
"748 571 OFFCURVE",
"738 601 OFFCURVE",
"718 625 CURVE SMOOTH",
"696 651 OFFCURVE",
"667 664 OFFCURVE",
"630 664 CURVE SMOOTH",
"525 664 OFFCURVE",
"435 578 OFFCURVE",
"362 405 CURVE",
"369 439 OFFCURVE",
"373 470 OFFCURVE",
"373 498 CURVE SMOOTH",
"373 561 OFFCURVE",
"360 612 OFFCURVE",
"333 650 CURVE SMOOTH",
"302 694 OFFCURVE",
"255 716 OFFCURVE",
"194 716 CURVE SMOOTH",
"139 716 OFFCURVE",
"89 694 OFFCURVE",
"46 651 CURVE SMOOTH",
"3 608 OFFCURVE",
"-19 558 OFFCURVE",
"-19 503 CURVE SMOOTH",
"-19 460 OFFCURVE",
"-4 423 OFFCURVE",
"26 391 CURVE SMOOTH",
"56 359 OFFCURVE",
"92 343 OFFCURVE",
"135 343 CURVE SMOOTH",
"214 343 OFFCURVE",
"269 400 OFFCURVE",
"269 479 CURVE SMOOTH",
"269 508 OFFCURVE",
"262 532 OFFCURVE",
"248 553 CURVE SMOOTH",
"232 576 OFFCURVE",
"210 588 OFFCURVE",
"182 588 CURVE SMOOTH",
"155 588 OFFCURVE",
"142 582 OFFCURVE",
"142 569 CURVE SMOOTH",
"142 558 OFFCURVE",
"148 552 OFFCURVE",
"159 552 CURVE SMOOTH",
"163 552 OFFCURVE",
"174 554 OFFCURVE",
"178 554 CURVE SMOOTH",
"214 554 OFFCURVE",
"236 518 OFFCURVE",
"236 478 CURVE SMOOTH",
"236 419 OFFCURVE",
"194 378 OFFCURVE",
"135 378 CURVE SMOOTH",
"102 378 OFFCURVE",
"74 390 OFFCURVE",
"50 414 CURVE SMOOTH",
"27 439 OFFCURVE",
"15 468 OFFCURVE",
"15 501 CURVE SMOOTH",
"15 547 OFFCURVE",
"33 589 OFFCURVE",
"70 626 CURVE SMOOTH",
"107 664 OFFCURVE",
"149 683 OFFCURVE",
"194 683 CURVE SMOOTH",
"291 683 OFFCURVE",
"339 621 OFFCURVE",
"339 498 CURVE SMOOTH",
"339 443 OFFCURVE",
"323 362 OFFCURVE",
"291 256 CURVE SMOOTH",
"215 13 LINE",
"212 0 OFFCURVE",
"216 -6 OFFCURVE",
"229 -6 CURVE SMOOTH",
"242 -6 OFFCURVE",
"250 0 OFFCURVE",
"255 11 CURVE",
"266 46 LINE SMOOTH",
"301 157 OFFCURVE",
"336 254 OFFCURVE",
"370 337 CURVE SMOOTH",
"450 532 OFFCURVE",
"537 629 OFFCURVE",
"630 629 CURVE SMOOTH",
"657 629 OFFCURVE",
"679 620 OFFCURVE",
"694 601 CURVE SMOOTH",
"707 584 OFFCURVE",
"714 562 OFFCURVE",
"714 533 CURVE SMOOTH",
"714 482 OFFCURVE",
"702 426 OFFCURVE",
"678 366 CURVE SMOOTH",
"671 350 OFFCURVE",
"647 298 OFFCURVE",
"604 210 CURVE SMOOTH",
"573 147 OFFCURVE",
"552 94 OFFCURVE",
"542 50 CURVE SMOOTH",
"540 39 OFFCURVE",
"539 28 OFFCURVE",
"539 15 CURVE SMOOTH",
"539 -37 OFFCURVE",
"557 -63 OFFCURVE",
"593 -63 CURVE SMOOTH"
);
}
);
width = 694;
}
);
note = N;
unicode = 004E;
},
{
glyphname = Eng;
lastChange = "2022-02-17 14:45:31 +0000";
layers = (
{
background = {
hints = (
{
horizontal = 1;
place = "{-87, 34}";
type = Stem;
},
{
horizontal = 1;
place = "{290, 34}";
type = Stem;
},
{
horizontal = 1;
place = "{599, 78}";
type = Stem;
},
{
place = "{-5, 35}";
type = Stem;
},
{
place = "{285, 35}";
type = Stem;
},
{
place = "{363, 34}";
type = Stem;
},
{
horizontal = 1;
place = "{257, 35}";
type = Stem;
}
);
paths = (
{
closed = 1;
nodes = (
"570 139 OFFCURVE",
"527 -22 OFFCURVE",
"480 -137 CURVE SMOOTH",
"438 -239 OFFCURVE",
"385 -325 OFFCURVE",
"284 -325 CURVE SMOOTH",
"213 -325 OFFCURVE",
"167 -284 OFFCURVE",
"167 -223 CURVE SMOOTH",
"167 -157 OFFCURVE",
"209 -112 OFFCURVE",
"270 -112 CURVE SMOOTH",
"294 -112 OFFCURVE",
"305 -79 OFFCURVE",
"273 -79 CURVE SMOOTH",
"191 -79 OFFCURVE",
"134 -138 OFFCURVE",
"134 -223 CURVE SMOOTH",
"134 -301 OFFCURVE",
"197 -358 OFFCURVE",
"283 -358 CURVE SMOOTH",
"403 -358 OFFCURVE",
"463 -272 OFFCURVE",
"530 -103 CURVE SMOOTH",
"551 -50 OFFCURVE",
"634 193 OFFCURVE",
"686 304 CURVE",
"650 289 LINE"
);
}
);
};
layerId = "769237BE-90A6-4D5E-A4C9-331744B3656A";
paths = (
{
closed = 1;
nodes = (
"357 -345 OFFCURVE",
"419 -293 OFFCURVE",
"471 -214 CURVE SMOOTH",
"531 -119 OFFCURVE",
"645 177 OFFCURVE",
"712 360 CURVE SMOOTH",
"734 419 OFFCURVE",
"748 477 OFFCURVE",
"748 534 CURVE SMOOTH",
"748 571 OFFCURVE",
"738 601 OFFCURVE",
"718 625 CURVE SMOOTH",
"696 651 OFFCURVE",
"667 664 OFFCURVE",
"630 664 CURVE SMOOTH",
"525 664 OFFCURVE",
"435 578 OFFCURVE",
"362 405 CURVE",
"369 439 OFFCURVE",
"373 470 OFFCURVE",
"373 498 CURVE SMOOTH",
"373 561 OFFCURVE",
"360 612 OFFCURVE",
"333 650 CURVE SMOOTH",
"302 694 OFFCURVE",
"255 716 OFFCURVE",
"194 716 CURVE SMOOTH",
"139 716 OFFCURVE",
"89 694 OFFCURVE",
"46 651 CURVE SMOOTH",
"3 608 OFFCURVE",
"-19 558 OFFCURVE",
"-19 503 CURVE SMOOTH",
"-19 460 OFFCURVE",
"-4 423 OFFCURVE",
"26 391 CURVE SMOOTH",
"56 359 OFFCURVE",
"92 343 OFFCURVE",
"135 343 CURVE SMOOTH",
"214 343 OFFCURVE",
"269 400 OFFCURVE",
"269 479 CURVE SMOOTH",
"269 508 OFFCURVE",
"262 532 OFFCURVE",
"248 553 CURVE SMOOTH",
"232 576 OFFCURVE",
"210 588 OFFCURVE",
"182 588 CURVE SMOOTH",
"155 588 OFFCURVE",
"142 582 OFFCURVE",
"142 569 CURVE SMOOTH",
"142 558 OFFCURVE",
"148 552 OFFCURVE",
"159 552 CURVE SMOOTH",
"163 552 OFFCURVE",
"174 554 OFFCURVE",
"178 554 CURVE SMOOTH",
"214 554 OFFCURVE",
"236 518 OFFCURVE",
"236 478 CURVE SMOOTH",
"236 419 OFFCURVE",
"194 378 OFFCURVE",
"135 378 CURVE SMOOTH",
"102 378 OFFCURVE",
"74 390 OFFCURVE",
"50 414 CURVE SMOOTH",
"27 439 OFFCURVE",
"15 468 OFFCURVE",
"15 501 CURVE SMOOTH",
"15 547 OFFCURVE",
"33 589 OFFCURVE",
"70 626 CURVE SMOOTH",
"107 664 OFFCURVE",
"149 683 OFFCURVE",
"194 683 CURVE SMOOTH",
"291 683 OFFCURVE",
"339 621 OFFCURVE",
"339 498 CURVE SMOOTH",
"339 443 OFFCURVE",
"324 362 OFFCURVE",
"291 256 CURVE SMOOTH",
"215 13 LINE",
"212 0 OFFCURVE",
"216 -6 OFFCURVE",
"229 -6 CURVE SMOOTH",
"242 -6 OFFCURVE",
"250 0 OFFCURVE",
"255 11 CURVE",
"266 46 LINE SMOOTH",
"301 157 OFFCURVE",
"336 254 OFFCURVE",
"370 337 CURVE SMOOTH",
"450 532 OFFCURVE",
"537 629 OFFCURVE",
"630 629 CURVE SMOOTH",
"657 629 OFFCURVE",
"679 620 OFFCURVE",
"694 601 CURVE SMOOTH",
"707 584 OFFCURVE",
"714 562 OFFCURVE",
"714 533 CURVE SMOOTH",
"714 482 OFFCURVE",
"701 427 OFFCURVE",
"678 366 CURVE SMOOTH",
"588 129 OFFCURVE",
"502 -102 OFFCURVE",
"444 -193 CURVE SMOOTH",
"402 -258 OFFCURVE",
"347 -312 OFFCURVE",
"284 -312 CURVE SMOOTH",
"213 -312 OFFCURVE",
"167 -271 OFFCURVE",
"167 -210 CURVE SMOOTH",
"167 -144 OFFCURVE",
"209 -99 OFFCURVE",
"270 -99 CURVE SMOOTH",
"283 -99 OFFCURVE",
"293 -89 OFFCURVE",
"293 -80 CURVE SMOOTH",
"293 -72 OFFCURVE",
"287 -66 OFFCURVE",
"273 -66 CURVE SMOOTH",
"191 -66 OFFCURVE",
"134 -125 OFFCURVE",
"134 -210 CURVE SMOOTH",
"134 -288 OFFCURVE",
"197 -345 OFFCURVE",
"283 -345 CURVE SMOOTH"
);
}
);
width = 724;
}
);
unicode = 014A;
},
{
glyphname = O;
lastChange = "2022-02-17 14:45:31 +0000";
layers = (
{
layerId = "769237BE-90A6-4D5E-A4C9-331744B3656A";
paths = (
{
closed = 1;
nodes = (
"496 -57 OFFCURVE",
"598 -12 OFFCURVE",
"683 77 CURVE SMOOTH",
"766 164 OFFCURVE",
"808 268 OFFCURVE",
"808 389 CURVE SMOOTH",
"808 428 OFFCURVE",
"800 467 OFFCURVE",
"784 505 CURVE SMOOTH",
"763 554 OFFCURVE",
"735 579 OFFCURVE",
"700 579 CURVE",
"701 585 OFFCURVE",
"702 591 OFFCURVE",
"702 598 CURVE SMOOTH",
"702 642 OFFCURVE",
"680 675 OFFCURVE",
"637 698 CURVE SMOOTH",
"603 716 OFFCURVE",
"562 725 OFFCURVE",
"515 725 CURVE SMOOTH",
"438 725 OFFCURVE",
"361 701 OFFCURVE",
"286 654 CURVE SMOOTH",
"214 608 OFFCURVE",
"158 550 OFFCURVE",
"118 480 CURVE",
"58 517 OFFCURVE",
"18 568 OFFCURVE",
"-3 633 CURVE",
"-12 674 OFFCURVE",
"-11 695 OFFCURVE",
"-27 695 CURVE SMOOTH",
"-40 695 OFFCURVE",
"-46 689 OFFCURVE",
"-46 676 CURVE SMOOTH",
"-46 633 OFFCURVE",
"-31 589 OFFCURVE",
"0 546 CURVE SMOOTH",
"28 507 OFFCURVE",
"62 475 OFFCURVE",
"103 450 CURVE",
"72 385 OFFCURVE",
"56 317 OFFCURVE",
"56 245 CURVE SMOOTH",
"56 154 OFFCURVE",
"86 81 OFFCURVE",
"147 26 CURVE SMOOTH",
"208 -29 OFFCURVE",
"284 -57 OFFCURVE",
"375 -57 CURVE SMOOTH"
);
},
{
closed = 1;
nodes = (
"289 -23 OFFCURVE",
"222 1 OFFCURVE",
"169 50 CURVE SMOOTH",
"116 99 OFFCURVE",
"90 165 OFFCURVE",
"90 247 CURVE SMOOTH",
"90 312 OFFCURVE",
"104 374 OFFCURVE",
"132 433 CURVE",
"190 404 OFFCURVE",
"262 390 OFFCURVE",
"347 390 CURVE SMOOTH",
"418 390 OFFCURVE",
"483 401 OFFCURVE",
"542 423 CURVE SMOOTH",
"616 451 OFFCURVE",
"665 493 OFFCURVE",
"690 548 CURVE",
"704 540 OFFCURVE",
"714 534 OFFCURVE",
"721 531 CURVE",
"758 504 OFFCURVE",
"776 456 OFFCURVE",
"776 387 CURVE SMOOTH",
"776 276 OFFCURVE",
"736 180 OFFCURVE",
"657 99 CURVE SMOOTH",
"578 18 OFFCURVE",
"483 -23 OFFCURVE",
"372 -23 CURVE SMOOTH"
);
},
{
closed = 1;
nodes = (
"268 424 OFFCURVE",
"201 437 OFFCURVE",
"148 463 CURVE",
"184 527 OFFCURVE",
"235 581 OFFCURVE",
"302 625 CURVE SMOOTH",
"373 672 OFFCURVE",
"443 695 OFFCURVE",
"512 695 CURVE SMOOTH",
"552 695 OFFCURVE",
"586 688 OFFCURVE",
"615 675 CURVE SMOOTH",
"651 658 OFFCURVE",
"669 632 OFFCURVE",
"669 598 CURVE SMOOTH",
"669 540 OFFCURVE",
"629 495 OFFCURVE",
"548 462 CURVE SMOOTH",
"485 437 OFFCURVE",
"419 424 OFFCURVE",
"348 424 CURVE SMOOTH"
);
}
);
width = 829;
}
);
note = O;
unicode = 004F;
},
{
glyphname = Oslash;
lastChange = "2022-02-17 14:45:31 +0000";
layers = (
{
layerId = "769237BE-90A6-4D5E-A4C9-331744B3656A";
paths = (
{
closed = 1;
nodes = (
"-6 -38 OFFCURVE",
"-2 -37 OFFCURVE",
"1 -34 CURVE SMOOTH",
"76 43 LINE",
"122 -11 OFFCURVE",
"186 -38 OFFCURVE",
"269 -38 CURVE SMOOTH",
"338 -38 OFFCURVE",
"403 -16 OFFCURVE",
"463 29 CURVE SMOOTH",
"519 71 OFFCURVE",
"561 125 OFFCURVE",
"590 191 CURVE SMOOTH",
"614 247 OFFCURVE",
"626 307 OFFCURVE",
"626 372 CURVE SMOOTH",
"626 443 OFFCURVE",
"609 501 OFFCURVE",
"576 545 CURVE",
"717 686 LINE SMOOTH",
"720 689 OFFCURVE",
"721 693 OFFCURVE",
"721 697 CURVE SMOOTH",
"721 709 OFFCURVE",
"715 715 OFFCURVE",
"703 715 CURVE SMOOTH",
"699 715 OFFCURVE",
"695 714 OFFCURVE",
"692 711 CURVE SMOOTH",
"553 570 LINE",
"510 609 OFFCURVE",
"452 629 OFFCURVE",
"377 629 CURVE SMOOTH",
"374 629 OFFCURVE",
"368 629 OFFCURVE",
"361 628 CURVE SMOOTH",
"259 617 OFFCURVE",
"176 572 OFFCURVE",
"111 493 CURVE SMOOTH",
"48 417 OFFCURVE",
"17 327 OFFCURVE",
"17 222 CURVE SMOOTH",
"17 163 OFFCURVE",
"30 113 OFFCURVE",
"56 70 CURVE",
"-24 -9 LINE SMOOTH",
"-27 -12 OFFCURVE",
"-28 -16 OFFCURVE",
"-28 -20 CURVE SMOOTH",
"-28 -32 OFFCURVE",
"-22 -38 OFFCURVE",
"-10 -38 CURVE SMOOTH"
);
},
{
closed = 1;
nodes = (
"196 -4 OFFCURVE",
"139 19 OFFCURVE",
"100 66 CURVE",
"321 289 LINE",
"342 278 OFFCURVE",
"366 273 OFFCURVE",
"393 273 CURVE SMOOTH",
"434 273 OFFCURVE",
"472 283 OFFCURVE",
"509 303 CURVE SMOOTH",
"548 324 OFFCURVE",
"576 353 OFFCURVE",
"593 388 CURVE",
"593 371 LINE SMOOTH",
"593 311 OFFCURVE",
"582 255 OFFCURVE",
"559 204 CURVE SMOOTH",
"533 145 OFFCURVE",
"495 96 OFFCURVE",
"445 57 CURVE SMOOTH",
"391 16 OFFCURVE",
"333 -4 OFFCURVE",
"271 -4 CURVE SMOOTH"
);
},
{
closed = 1;
nodes = (
"61 130 OFFCURVE",
"51 171 OFFCURVE",
"51 219 CURVE SMOOTH",
"51 309 OFFCURVE",
"74 387 OFFCURVE",
"121 453 CURVE SMOOTH",
"150 494 OFFCURVE",
"189 528 OFFCURVE",
"236 554 CURVE SMOOTH",
"284 581 OFFCURVE",
"332 594 OFFCURVE",
"381 594 CURVE SMOOTH",
"440 594 OFFCURVE",
"488 577 OFFCURVE",
"527 544 CURVE",
"317 333 LINE",
"306 345 OFFCURVE",
"300 361 OFFCURVE",
"300 381 CURVE SMOOTH",
"300 389 OFFCURVE",
"305 410 OFFCURVE",
"305 418 CURVE SMOOTH",
"305 429 OFFCURVE",
"299 435 OFFCURVE",
"287 435 CURVE SMOOTH",
"273 435 OFFCURVE",
"266 417 OFFCURVE",
"266 381 CURVE SMOOTH",
"266 352 OFFCURVE",
"275 328 OFFCURVE",
"293 309 CURVE",
"80 95 LINE"
);
},
{
closed = 1;
nodes = (
"376 307 OFFCURVE",
"360 309 OFFCURVE",
"346 314 CURVE",
"550 519 LINE",
"565 498 OFFCURVE",
"572 474 OFFCURVE",
"572 448 CURVE SMOOTH",
"572 407 OFFCURVE",
"552 373 OFFCURVE",
"513 345 CURVE SMOOTH",
"478 320 OFFCURVE",
"438 307 OFFCURVE",
"395 307 CURVE SMOOTH"
);
}
);
width = 666;
}
);
note = Oslash;
unicode = 00D8;
},
{
glyphname = OE;
lastChange = "2022-02-17 14:45:31 +0000";
layers = (
{
layerId = "769237BE-90A6-4D5E-A4C9-331744B3656A";
paths = (
{
closed = 1;
nodes = (
"493 -57 OFFCURVE",
"594 -14 OFFCURVE",
"678 71 CURVE",
"694 31 OFFCURVE",
"725 0 OFFCURVE",
"771 -22 CURVE SMOOTH",
"812 -42 OFFCURVE",
"857 -52 OFFCURVE",
"906 -52 CURVE SMOOTH",
"976 -52 OFFCURVE",
"1039 -39 OFFCURVE",
"1095 -12 CURVE SMOOTH",
"1163 19 OFFCURVE",
"1207 64 OFFCURVE",
"1228 123 CURVE SMOOTH",
"1234 140 OFFCURVE",
"1237 157 OFFCURVE",
"1237 176 CURVE SMOOTH",
"1237 234 OFFCURVE",
"1214 263 OFFCURVE",
"1169 263 CURVE SMOOTH",
"1134 263 OFFCURVE",
"1116 256 OFFCURVE",
"1116 242 CURVE SMOOTH",
"1116 230 OFFCURVE",
"1122 224 OFFCURVE",
"1134 224 CURVE SMOOTH",
"1142 224 OFFCURVE",
"1160 229 OFFCURVE",
"1168 229 CURVE SMOOTH",
"1191 229 OFFCURVE",
"1203 213 OFFCURVE",
"1203 181 CURVE SMOOTH",
"1203 116 OFFCURVE",
"1169 65 OFFCURVE",
"1100 28 CURVE SMOOTH",
"1044 -2 OFFCURVE",
"980 -17 OFFCURVE",
"907 -17 CURVE SMOOTH",
"858 -17 OFFCURVE",
"815 -8 OFFCURVE",
"780 9 CURVE SMOOTH",
"739 30 OFFCURVE",
"713 60 OFFCURVE",
"703 99 CURVE",
"756 163 OFFCURVE",
"790 236 OFFCURVE",
"803 318 CURVE",
"838 345 OFFCURVE",
"877 364 OFFCURVE",
"920 377 CURVE",
"947 364 OFFCURVE",
"985 358 OFFCURVE",
"1034 358 CURVE SMOOTH",
"1087 358 OFFCURVE",
"1113 370 OFFCURVE",
"1113 395 CURVE SMOOTH",
"1113 416 OFFCURVE",
"1094 427 OFFCURVE",
"1056 427 CURVE SMOOTH",
"1003 427 OFFCURVE",
"959 422 OFFCURVE",
"923 413 CURVE",
"886 434 OFFCURVE",
"868 466 OFFCURVE",
"868 508 CURVE SMOOTH",
"868 560 OFFCURVE",
"897 603 OFFCURVE",
"955 637 CURVE SMOOTH",
"1006 666 OFFCURVE",
"1060 681 OFFCURVE",
"1117 681 CURVE SMOOTH",
"1148 681 OFFCURVE",
"1174 676 OFFCURVE",
"1195 665 CURVE SMOOTH",
"1221 652 OFFCURVE",
"1234 633 OFFCURVE",
"1234 606 CURVE SMOOTH",
"1234 559 OFFCURVE",
"1196 528 OFFCURVE",
"1148 528 CURVE SMOOTH",
"1127 528 OFFCURVE",
"1117 534 OFFCURVE",
"1117 547 CURVE SMOOTH",
"1117 551 OFFCURVE",
"1121 562 OFFCURVE",
"1121 566 CURVE SMOOTH",
"1121 578 OFFCURVE",
"1115 584 OFFCURVE",
"1103 584 CURVE SMOOTH",
"1091 584 OFFCURVE",
"1083 562 OFFCURVE",
"1083 550 CURVE SMOOTH",
"1083 517 OFFCURVE",
"1116 495 OFFCURVE",
"1148 495 CURVE SMOOTH",
"1179 495 OFFCURVE",
"1206 505 OFFCURVE",
"1231 525 CURVE SMOOTH",
"1256 545 OFFCURVE",
"1268 570 OFFCURVE",
"1268 601 CURVE SMOOTH",
"1268 641 OFFCURVE",
"1251 671 OFFCURVE",
"1217 691 CURVE SMOOTH",
"1190 707 OFFCURVE",
"1156 715 OFFCURVE",
"1115 715 CURVE SMOOTH",
"1049 715 OFFCURVE",
"988 697 OFFCURVE",
"931 662 CURVE SMOOTH",
"866 621 OFFCURVE",
"834 569 OFFCURVE",
"834 506 CURVE SMOOTH",
"834 465 OFFCURVE",
"850 430 OFFCURVE",
"883 401 CURVE",
"856 391 OFFCURVE",
"831 379 OFFCURVE",
"807 364 CURVE",
"808 372 OFFCURVE",
"808 380 OFFCURVE",
"808 389 CURVE SMOOTH",
"808 428 OFFCURVE",
"800 467 OFFCURVE",
"784 505 CURVE SMOOTH",
"763 554 OFFCURVE",
"735 579 OFFCURVE",
"700 579 CURVE",
"701 585 OFFCURVE",
"702 591 OFFCURVE",
"702 598 CURVE SMOOTH",
"702 642 OFFCURVE",
"680 675 OFFCURVE",
"637 698 CURVE SMOOTH",
"603 716 OFFCURVE",
"562 725 OFFCURVE",
"515 725 CURVE SMOOTH",
"438 725 OFFCURVE",
"361 701 OFFCURVE",
"286 654 CURVE SMOOTH",
"214 608 OFFCURVE",
"158 550 OFFCURVE",
"118 480 CURVE",
"58 517 OFFCURVE",
"18 568 OFFCURVE",
"-3 633 CURVE",
"-12 674 OFFCURVE",
"-11 695 OFFCURVE",
"-27 695 CURVE SMOOTH",
"-40 695 OFFCURVE",
"-46 689 OFFCURVE",
"-46 676 CURVE SMOOTH",
"-46 633 OFFCURVE",
"-31 589 OFFCURVE",
"0 546 CURVE SMOOTH",
"28 507 OFFCURVE",
"62 475 OFFCURVE",
"103 450 CURVE",
"72 385 OFFCURVE",
"56 317 OFFCURVE",
"56 245 CURVE SMOOTH",
"56 154 OFFCURVE",
"86 81 OFFCURVE",
"147 26 CURVE SMOOTH",
"208 -29 OFFCURVE",
"284 -57 OFFCURVE",
"375 -57 CURVE SMOOTH"
);
},
{
closed = 1;
nodes = (
"289 -23 OFFCURVE",
"222 1 OFFCURVE",
"169 50 CURVE SMOOTH",
"116 99 OFFCURVE",
"90 165 OFFCURVE",
"90 247 CURVE SMOOTH",
"90 312 OFFCURVE",
"104 374 OFFCURVE",
"132 433 CURVE",
"190 404 OFFCURVE",
"262 390 OFFCURVE",
"347 390 CURVE SMOOTH",
"418 390 OFFCURVE",
"483 401 OFFCURVE",
"542 423 CURVE SMOOTH",
"616 451 OFFCURVE",
"665 493 OFFCURVE",
"690 548 CURVE",
"704 540 OFFCURVE",
"714 534 OFFCURVE",
"721 531 CURVE",
"758 504 OFFCURVE",
"776 456 OFFCURVE",
"776 387 CURVE SMOOTH",
"776 276 OFFCURVE",
"736 180 OFFCURVE",
"657 99 CURVE SMOOTH",
"578 18 OFFCURVE",
"483 -23 OFFCURVE",
"372 -23 CURVE SMOOTH"
);
},
{
closed = 1;
nodes = (
"268 424 OFFCURVE",
"201 437 OFFCURVE",
"148 463 CURVE",
"184 527 OFFCURVE",
"235 581 OFFCURVE",
"302 625 CURVE SMOOTH",
"373 672 OFFCURVE",
"443 695 OFFCURVE",
"512 695 CURVE SMOOTH",
"552 695 OFFCURVE",
"586 688 OFFCURVE",
"615 675 CURVE SMOOTH",
"651 658 OFFCURVE",
"669 632 OFFCURVE",
"669 598 CURVE SMOOTH",
"669 540 OFFCURVE",
"629 495 OFFCURVE",
"548 462 CURVE SMOOTH",
"485 437 OFFCURVE",
"419 424 OFFCURVE",
"348 424 CURVE SMOOTH"
);
}
);
width = 1283;
}
);
note = OE;
unicode = 0152;
},
{
glyphname = P;
lastChange = "2022-02-17 14:45:31 +0000";
layers = (
{
layerId = "769237BE-90A6-4D5E-A4C9-331744B3656A";
paths = (
{
closed = 1;
nodes = (
"12 -77 OFFCURVE",
"62 -44 OFFCURVE",
"117 22 CURVE SMOOTH",
"155 68 OFFCURVE",
"189 121 OFFCURVE",
"219 181 CURVE",
"237 178 OFFCURVE",
"255 177 OFFCURVE",
"273 177 CURVE SMOOTH",
"376 177 OFFCURVE",
"467 202 OFFCURVE",
"546 251 CURVE SMOOTH",
"638 309 OFFCURVE",
"684 387 OFFCURVE",
"684 486 CURVE SMOOTH",
"684 554 OFFCURVE",
"660 610 OFFCURVE",
"611 653 CURVE SMOOTH",
"568 691 OFFCURVE",
"511 715 OFFCURVE",
"441 724 CURVE",
"446 731 OFFCURVE",
"453 736 OFFCURVE",
"462 741 CURVE SMOOTH",
"474 746 OFFCURVE",
"480 752 OFFCURVE",
"480 757 CURVE SMOOTH",
"480 766 OFFCURVE",
"474 771 OFFCURVE",
"461 771 CURVE SMOOTH",
"442 771 OFFCURVE",
"423 757 OFFCURVE",
"404 728 CURVE",
"367 728 LINE SMOOTH",
"278 728 OFFCURVE",
"200 713 OFFCURVE",
"133 682 CURVE SMOOTH",
"46 641 OFFCURVE",
"3 580 OFFCURVE",
"3 499 CURVE SMOOTH",
"3 470 OFFCURVE",
"15 446 OFFCURVE",
"40 427 CURVE SMOOTH",
"62 410 OFFCURVE",
"88 402 OFFCURVE",
"118 402 CURVE SMOOTH",
"147 402 OFFCURVE",
"170 416 OFFCURVE",
"185 443 CURVE SMOOTH",
"186 445 OFFCURVE",
"187 447 OFFCURVE",
"187 450 CURVE SMOOTH",
"187 461 OFFCURVE",
"181 466 OFFCURVE",
"170 466 CURVE SMOOTH",
"166 466 OFFCURVE",
"160 460 OFFCURVE",
"151 449 CURVE SMOOTH",
"144 440 OFFCURVE",
"133 436 OFFCURVE",
"118 436 CURVE SMOOTH",
"99 436 OFFCURVE",
"82 441 OFFCURVE",
"65 452 CURVE SMOOTH",
"46 465 OFFCURVE",
"37 479 OFFCURVE",
"37 495 CURVE SMOOTH",
"37 566 OFFCURVE",
"78 619 OFFCURVE",
"159 654 CURVE SMOOTH",
"221 682 OFFCURVE",
"294 696 OFFCURVE",
"377 696 CURVE SMOOTH",
"380 696 OFFCURVE",
"383 696 OFFCURVE",
"385 695 CURVE",
"358 642 OFFCURVE",
"327 564 OFFCURVE",
"291 459 CURVE SMOOTH",
"253 349 OFFCURVE",
"222 270 OFFCURVE",
"199 221 CURVE",
"182 226 OFFCURVE",
"168 235 OFFCURVE",
"156 247 CURVE SMOOTH",
"151 252 OFFCURVE",
"146 255 OFFCURVE",
"139 255 CURVE SMOOTH",
"130 255 OFFCURVE",
"125 249 OFFCURVE",
"125 238 CURVE SMOOTH",
"125 219 OFFCURVE",
"145 203 OFFCURVE",
"185 190 CURVE",
"153 126 OFFCURVE",
"124 78 OFFCURVE",
"97 47 CURVE SMOOTH",
"58 0 OFFCURVE",
"13 -30 OFFCURVE",
"-38 -43 CURVE SMOOTH",
"-47 -46 OFFCURVE",
"-52 -51 OFFCURVE",
"-52 -58 CURVE SMOOTH",
"-52 -71 OFFCURVE",
"-46 -77 OFFCURVE",
"-33 -77 CURVE SMOOTH"
);
},
{
closed = 1;
nodes = (
"260 211 OFFCURVE",
"247 212 OFFCURVE",
"234 213 CURVE",
"256 259 OFFCURVE",
"286 339 OFFCURVE",
"325 454 CURVE SMOOTH",
"360 558 OFFCURVE",
"393 637 OFFCURVE",
"422 692 CURVE",
"488 685 OFFCURVE",
"541 665 OFFCURVE",
"581 634 CURVE SMOOTH",
"627 597 OFFCURVE",
"650 548 OFFCURVE",
"650 486 CURVE SMOOTH",
"650 397 OFFCURVE",
"608 328 OFFCURVE",
"524 277 CURVE SMOOTH",
"452 233 OFFCURVE",
"368 211 OFFCURVE",
"273 211 CURVE SMOOTH"
);
}
);
width = 672;
}
);
note = P;
unicode = 0050;
},
{
glyphname = Thorn;
lastChange = "2022-02-17 14:45:31 +0000";
layers = (
{
layerId = "769237BE-90A6-4D5E-A4C9-331744B3656A";
paths = (
{
closed = 1;
nodes = (
"12 -77 OFFCURVE",
"62 -44 OFFCURVE",
"117 22 CURVE SMOOTH",
"155 68 OFFCURVE",
"170 80 OFFCURVE",
"200 140 CURVE",
"218 137 OFFCURVE",
"236 136 OFFCURVE",
"254 136 CURVE SMOOTH",
"357 136 OFFCURVE",
"448 161 OFFCURVE",
"527 210 CURVE SMOOTH",
"619 268 OFFCURVE",
"665 346 OFFCURVE",
"665 445 CURVE SMOOTH",
"665 513 OFFCURVE",
"641 569 OFFCURVE",
"592 612 CURVE SMOOTH",
"549 650 OFFCURVE",
"492 674 OFFCURVE",
"422 683 CURVE",
"427 690 OFFCURVE",
"452 757 OFFCURVE",
"494 830 CURVE SMOOTH",
"500 841 OFFCURVE",
"516 865 OFFCURVE",
"516 870 CURVE SMOOTH",
"516 879 OFFCURVE",
"510 884 OFFCURVE",
"497 884 CURVE SMOOTH",
"478 884 OFFCURVE",
"421 768 OFFCURVE",
"385 687 CURVE",
"348 687 LINE SMOOTH",
"333 687 OFFCURVE",
"327 678 OFFCURVE",
"327 669 CURVE SMOOTH",
"327 657 OFFCURVE",
"336 646 OFFCURVE",
"349 653 CURVE SMOOTH",
"351 654 OFFCURVE",
"358 654 OFFCURVE",
"362 654 CURVE SMOOTH",
"366 654 LINE",
"339 601 OFFCURVE",
"308 523 OFFCURVE",
"272 418 CURVE SMOOTH",
"234 308 OFFCURVE",
"203 229 OFFCURVE",
"180 180 CURVE",
"163 185 OFFCURVE",
"149 194 OFFCURVE",
"137 206 CURVE SMOOTH",
"132 211 OFFCURVE",
"127 214 OFFCURVE",
"120 214 CURVE SMOOTH",
"111 214 OFFCURVE",
"106 208 OFFCURVE",
"106 197 CURVE SMOOTH",
"106 178 OFFCURVE",
"126 162 OFFCURVE",
"166 149 CURVE",
"134 85 OFFCURVE",
"124 78 OFFCURVE",
"97 47 CURVE SMOOTH",
"58 0 OFFCURVE",
"13 -30 OFFCURVE",
"-38 -43 CURVE SMOOTH",
"-47 -46 OFFCURVE",
"-52 -51 OFFCURVE",
"-52 -58 CURVE SMOOTH",
"-52 -71 OFFCURVE",
"-46 -77 OFFCURVE",
"-33 -77 CURVE SMOOTH"
);
},
{
closed = 1;
nodes = (
"241 170 OFFCURVE",
"228 171 OFFCURVE",
"215 172 CURVE",
"237 218 OFFCURVE",
"267 298 OFFCURVE",
"306 413 CURVE SMOOTH",
"341 517 OFFCURVE",
"374 596 OFFCURVE",
"403 651 CURVE",
"469 644 OFFCURVE",
"522 624 OFFCURVE",
"562 593 CURVE SMOOTH",
"608 556 OFFCURVE",
"631 507 OFFCURVE",
"631 445 CURVE SMOOTH",
"631 356 OFFCURVE",
"589 287 OFFCURVE",
"505 236 CURVE SMOOTH",
"433 192 OFFCURVE",
"349 170 OFFCURVE",
"254 170 CURVE SMOOTH"
);
}
);
width = 672;
}
);
note = Thorn;
unicode = 00DE;
},
{
glyphname = Q;
lastChange = "2022-02-17 14:45:31 +0000";
layers = (
{
layerId = "769237BE-90A6-4D5E-A4C9-331744B3656A";
paths = (
{
closed = 1;
nodes = (
"741 -149 OFFCURVE",
"754 -147 OFFCURVE",
"768 -143 CURVE SMOOTH",
"786 -138 OFFCURVE",
"795 -130 OFFCURVE",
"795 -121 CURVE SMOOTH",
"795 -110 OFFCURVE",
"790 -105 OFFCURVE",
"779 -105 CURVE SMOOTH",
"767 -105 OFFCURVE",
"741 -114 OFFCURVE",
"730 -114 CURVE SMOOTH",
"681 -114 OFFCURVE",
"615 -84 OFFCURVE",
"534 -24 CURVE",
"613 7 OFFCURVE",
"676 54 OFFCURVE",
"722 118 CURVE SMOOTH",
"769 183 OFFCURVE",
"792 257 OFFCURVE",
"792 341 CURVE SMOOTH",
"792 447 OFFCURVE",
"758 537 OFFCURVE",
"691 611 CURVE SMOOTH",
"621 687 OFFCURVE",
"534 725 OFFCURVE",
"429 725 CURVE SMOOTH",
"333 725 OFFCURVE",
"248 692 OFFCURVE",
"174 626 CURVE SMOOTH",
"101 560 OFFCURVE",
"64 482 OFFCURVE",
"64 392 CURVE SMOOTH",
"64 359 OFFCURVE",
"69 327 OFFCURVE",
"80 294 CURVE SMOOTH",
"83 286 OFFCURVE",
"89 282 OFFCURVE",
"97 282 CURVE SMOOTH",
"109 282 OFFCURVE",
"115 286 OFFCURVE",
"115 293 CURVE SMOOTH",
"115 295 OFFCURVE",
"115 298 OFFCURVE",
"114 300 CURVE SMOOTH",
"106 326 OFFCURVE",
"102 353 OFFCURVE",
"102 381 CURVE SMOOTH",
"102 464 OFFCURVE",
"132 535 OFFCURVE",
"192 596 CURVE SMOOTH",
"255 660 OFFCURVE",
"334 692 OFFCURVE",
"429 692 CURVE SMOOTH",
"524 692 OFFCURVE",
"603 657 OFFCURVE",
"666 588 CURVE SMOOTH",
"727 521 OFFCURVE",
"757 439 OFFCURVE",
"757 342 CURVE SMOOTH",
"757 261 OFFCURVE",
"734 190 OFFCURVE",
"688 129 CURVE SMOOTH",
"642 69 OFFCURVE",
"580 26 OFFCURVE",
"502 0 CURVE",
"310 156 LINE SMOOTH",
"212 232 OFFCURVE",
"146 270 OFFCURVE",
"113 270 CURVE SMOOTH",
"76 270 OFFCURVE",
"57 243 OFFCURVE",
"57 190 CURVE SMOOTH",
"57 137 OFFCURVE",
"82 87 OFFCURVE",
"133 41 CURVE SMOOTH",
"176 2 OFFCURVE",
"226 -25 OFFCURVE",
"283 -41 CURVE SMOOTH",
"315 -50 OFFCURVE",
"348 -55 OFFCURVE",
"381 -55 CURVE SMOOTH",
"418 -55 OFFCURVE",
"457 -49 OFFCURVE",
"496 -38 CURVE",
"592 -112 OFFCURVE",
"670 -149 OFFCURVE",
"730 -149 CURVE SMOOTH"
);
},
{
closed = 1;
nodes = (
"310 -20 OFFCURVE",
"241 3 OFFCURVE",
"178 48 CURVE SMOOTH",
"120 89 OFFCURVE",
"91 137 OFFCURVE",
"91 191 CURVE SMOOTH",
"91 222 OFFCURVE",
"98 237 OFFCURVE",
"111 237 CURVE SMOOTH",
"138 237 OFFCURVE",
"197 201 OFFCURVE",
"290 129 CURVE SMOOTH",
"462 -12 LINE",
"437 -17 OFFCURVE",
"411 -20 OFFCURVE",
"385 -20 CURVE SMOOTH"
);
}
);
width = 829;
}
);
note = Q;
unicode = 0051;
},
{
glyphname = R;
lastChange = "2022-02-17 14:45:31 +0000";
layers = (
{
layerId = "769237BE-90A6-4D5E-A4C9-331744B3656A";
paths = (
{
closed = 1;
nodes = (
"69 -61 OFFCURVE",
"86 -56 OFFCURVE",
"99 -47 CURVE SMOOTH",
"140 -20 OFFCURVE",
"189 72 OFFCURVE",
"248 227 CURVE",
"265 219 OFFCURVE",
"285 214 OFFCURVE",
"310 212 CURVE",
"352 133 OFFCURVE",
"391 75 OFFCURVE",
"427 38 CURVE SMOOTH",
"482 -18 OFFCURVE",
"545 -46 OFFCURVE",
"615 -46 CURVE SMOOTH",
"626 -46 OFFCURVE",
"631 -40 OFFCURVE",
"631 -29 CURVE SMOOTH",
"631 -18 OFFCURVE",
"626 -12 OFFCURVE",
"615 -12 CURVE SMOOTH",
"556 -12 OFFCURVE",
"502 12 OFFCURVE",
"453 60 CURVE SMOOTH",
"418 94 OFFCURVE",
"383 145 OFFCURVE",
"348 212 CURVE",
"425 215 OFFCURVE",
"498 240 OFFCURVE",
"566 285 CURVE SMOOTH",
"644 337 OFFCURVE",
"683 399 OFFCURVE",
"683 471 CURVE SMOOTH",
"683 534 OFFCURVE",
"659 586 OFFCURVE",
"611 626 CURVE SMOOTH",
"569 661 OFFCURVE",
"515 683 OFFCURVE",
"450 692 CURVE",
"451 703 OFFCURVE",
"442 712 OFFCURVE",
"431 712 CURVE SMOOTH",
"426 712 OFFCURVE",
"417 707 OFFCURVE",
"406 696 CURVE",
"374 696 LINE SMOOTH",
"303 697 OFFCURVE",
"238 684 OFFCURVE",
"180 657 CURVE SMOOTH",
"105 623 OFFCURVE",
"68 573 OFFCURVE",
"68 508 CURVE SMOOTH",
"68 481 OFFCURVE",
"79 458 OFFCURVE",
"100 441 CURVE SMOOTH",
"119 424 OFFCURVE",
"143 416 OFFCURVE",
"171 416 CURVE SMOOTH",
"209 416 OFFCURVE",
"237 431 OFFCURVE",
"256 461 CURVE SMOOTH",
"258 464 OFFCURVE",
"259 466 OFFCURVE",
"259 469 CURVE SMOOTH",
"259 480 OFFCURVE",
"253 486 OFFCURVE",
"240 486 CURVE SMOOTH",
"238 486 OFFCURVE",
"230 480 OFFCURVE",
"216 468 CURVE SMOOTH",
"203 456 OFFCURVE",
"188 450 OFFCURVE",
"171 450 CURVE SMOOTH",
"132 450 OFFCURVE",
"102 474 OFFCURVE",
"102 511 CURVE SMOOTH",
"102 560 OFFCURVE",
"134 599 OFFCURVE",
"199 628 CURVE SMOOTH",
"251 651 OFFCURVE",
"306 662 OFFCURVE",
"365 662 CURVE SMOOTH",
"382 662 LINE",
"357 621 OFFCURVE",
"334 570 OFFCURVE",
"311 508 CURVE SMOOTH",
"255 348 LINE",
"248 352 OFFCURVE",
"240 354 OFFCURVE",
"231 354 CURVE SMOOTH",
"202 354 OFFCURVE",
"188 340 OFFCURVE",
"188 311 CURVE SMOOTH",
"188 290 OFFCURVE",
"199 269 OFFCURVE",
"220 248 CURVE",
"175 125 OFFCURVE",
"136 44 OFFCURVE",
"103 4 CURVE SMOOTH",
"88 -14 OFFCURVE",
"75 -23 OFFCURVE",
"62 -23 CURVE SMOOTH",
"48 -23 LINE SMOOTH",
"32 -23 OFFCURVE",
"24 -29 OFFCURVE",
"24 -41 CURVE SMOOTH",
"24 -54 OFFCURVE",
"33 -61 OFFCURVE",
"50 -61 CURVE SMOOTH"
);
},
{
closed = 1;
nodes = (
"225 295 OFFCURVE",
"221 305 OFFCURVE",
"221 312 CURVE SMOOTH",
"221 317 OFFCURVE",
"223 320 OFFCURVE",
"228 320 CURVE SMOOTH",
"233 320 OFFCURVE",
"239 318 OFFCURVE",
"244 314 CURVE",
"233 284 LINE"
);
},
{
closed = 1;
nodes = (
"280 249 OFFCURVE",
"270 253 OFFCURVE",
"260 260 CURVE",
"269 284 LINE",
"278 271 OFFCURVE",
"285 259 OFFCURVE",
"291 248 CURVE"
);
},
{
closed = 1;
nodes = (
"314 278 OFFCURVE",
"299 304 OFFCURVE",
"284 323 CURVE",
"303 381 OFFCURVE",
"323 439 OFFCURVE",
"343 498 CURVE SMOOTH",
"370 573 OFFCURVE",
"395 628 OFFCURVE",
"418 661 CURVE",
"482 656 OFFCURVE",
"535 639 OFFCURVE",
"576 610 CURVE SMOOTH",
"625 575 OFFCURVE",
"649 529 OFFCURVE",
"649 471 CURVE SMOOTH",
"649 406 OFFCURVE",
"611 351 OFFCURVE",
"536 306 CURVE SMOOTH",
"469 266 OFFCURVE",
"401 246 OFFCURVE",
"330 245 CURVE"
);
}
);
width = 672;
}
);
note = R;
unicode = 0052;
},
{
glyphname = S;
lastChange = "2022-02-17 14:45:31 +0000";
layers = (
{
layerId = "769237BE-90A6-4D5E-A4C9-331744B3656A";
paths = (
{
closed = 1;
nodes = (
"303 -50 OFFCURVE",
"375 -29 OFFCURVE",
"435 14 CURVE SMOOTH",
"500 61 OFFCURVE",
"533 122 OFFCURVE",
"533 197 CURVE SMOOTH",
"533 269 OFFCURVE",
"502 323 OFFCURVE",
"441 358 CURVE",
"269 424 LINE SMOOTH",
"208 449 OFFCURVE",
"177 484 OFFCURVE",
"177 531 CURVE SMOOTH",
"177 572 OFFCURVE",
"198 606 OFFCURVE",
"240 633 CURVE SMOOTH",
"277 656 OFFCURVE",
"319 668 OFFCURVE",
"364 668 CURVE SMOOTH",
"401 668 OFFCURVE",
"431 660 OFFCURVE",
"454 645 CURVE SMOOTH",
"481 627 OFFCURVE",
"494 601 OFFCURVE",
"494 567 CURVE SMOOTH",
"494 531 OFFCURVE",
"459 503 OFFCURVE",
"428 503 CURVE SMOOTH",
"415 503 OFFCURVE",
"406 508 OFFCURVE",
"403 519 CURVE SMOOTH",
"399 534 OFFCURVE",
"393 542 OFFCURVE",
"385 542 CURVE SMOOTH",
"374 542 OFFCURVE",
"368 536 OFFCURVE",
"368 525 CURVE SMOOTH",
"368 492 OFFCURVE",
"394 470 OFFCURVE",
"427 470 CURVE SMOOTH",
"454 470 OFFCURVE",
"478 479 OFFCURVE",
"498 498 CURVE SMOOTH",
"519 517 OFFCURVE",
"529 540 OFFCURVE",
"529 567 CURVE SMOOTH",
"529 610 OFFCURVE",
"512 644 OFFCURVE",
"478 669 CURVE SMOOTH",
"448 691 OFFCURVE",
"411 702 OFFCURVE",
"368 702 CURVE SMOOTH",
"311 702 OFFCURVE",
"261 688 OFFCURVE",
"218 660 CURVE SMOOTH",
"168 627 OFFCURVE",
"143 583 OFFCURVE",
"143 528 CURVE SMOOTH",
"143 471 OFFCURVE",
"174 429 OFFCURVE",
"235 402 CURVE",
"406 339 LINE",
"468 308 OFFCURVE",
"499 261 OFFCURVE",
"499 196 CURVE SMOOTH",
"499 132 OFFCURVE",
"469 80 OFFCURVE",
"410 39 CURVE SMOOTH",
"355 1 OFFCURVE",
"290 -16 OFFCURVE",
"216 -16 CURVE SMOOTH",
"160 -16 OFFCURVE",
"114 -3 OFFCURVE",
"77 22 CURVE SMOOTH",
"35 51 OFFCURVE",
"14 91 OFFCURVE",
"14 142 CURVE SMOOTH",
"14 179 OFFCURVE",
"29 211 OFFCURVE",
"58 239 CURVE SMOOTH",
"88 267 OFFCURVE",
"122 281 OFFCURVE",
"159 281 CURVE SMOOTH",
"183 281 OFFCURVE",
"201 274 OFFCURVE",
"212 260 CURVE SMOOTH",
"218 254 OFFCURVE",
"224 241 OFFCURVE",
"230 222 CURVE SMOOTH",
"234 209 OFFCURVE",
"240 202 OFFCURVE",
"247 202 CURVE SMOOTH",
"258 202 OFFCURVE",
"264 207 OFFCURVE",
"264 218 CURVE SMOOTH",
"264 278 OFFCURVE",
"216 316 OFFCURVE",
"157 316 CURVE SMOOTH",
"111 316 OFFCURVE",
"70 298 OFFCURVE",
"34 263 CURVE SMOOTH",
"-2 228 OFFCURVE",
"-20 187 OFFCURVE",
"-20 141 CURVE SMOOTH",
"-20 79 OFFCURVE",
"5 31 OFFCURVE",
"55 -4 CURVE SMOOTH",
"99 -34 OFFCURVE",
"154 -50 OFFCURVE",
"219 -50 CURVE SMOOTH"
);
}
);
width = 538;
}
);
note = S;
unicode = 0053;
},
{
glyphname = Germandbls;
lastChange = "2022-02-17 14:45:31 +0000";
layers = (
{
layerId = "769237BE-90A6-4D5E-A4C9-331744B3656A";
paths = (
{
closed = 1;
nodes = (
"-82 -189 LINE SMOOTH",
"-43 -189 OFFCURVE",
"-6 -147 OFFCURVE",
"32 -76 CURVE SMOOTH",
"85 25 OFFCURVE",
"160 401 OFFCURVE",
"178 452 CURVE SMOOTH",
"221 576 OFFCURVE",
"274 656 OFFCURVE",
"376 656 CURVE SMOOTH",
"441 656 OFFCURVE",
"490 610 OFFCURVE",
"490 548 CURVE SMOOTH",
"490 511 OFFCURVE",
"475 478 OFFCURVE",
"443 450 CURVE SMOOTH",
"415 425 OFFCURVE",
"381 409 OFFCURVE",
"340 402 CURVE",
"310 409 OFFCURVE",
"278 413 OFFCURVE",
"249 413 CURVE SMOOTH",
"223 413 OFFCURVE",
"202 398 OFFCURVE",
"202 381 CURVE SMOOTH",
"202 363 OFFCURVE",
"219 355 OFFCURVE",
"249 355 CURVE SMOOTH",
"274 355 OFFCURVE",
"304 358 OFFCURVE",
"338 365 CURVE",
"431 336 OFFCURVE",
"490 269 OFFCURVE",
"490 196 CURVE SMOOTH",
"490 105 OFFCURVE",
"414 42 OFFCURVE",
"308 10 CURVE SMOOTH",
"281 2 OFFCURVE",
"247 -1 OFFCURVE",
"215 -1 CURVE SMOOTH",
"177 -1 OFFCURVE",
"142 3 OFFCURVE",
"123 7 CURVE SMOOTH",
"107 11 OFFCURVE",
"99 3 OFFCURVE",
"99 -12 CURVE SMOOTH",
"99 -21 OFFCURVE",
"105 -27 OFFCURVE",
"117 -29 CURVE SMOOTH",
"140 -34 OFFCURVE",
"172 -37 OFFCURVE",
"207 -37 CURVE SMOOTH",
"248 -37 OFFCURVE",
"292 -32 OFFCURVE",
"327 -21 CURVE SMOOTH",
"443 17 OFFCURVE",
"529 91 OFFCURVE",
"529 198 CURVE SMOOTH",
"529 273 OFFCURVE",
"478 341 OFFCURVE",
"395 381 CURVE",
"483 419 OFFCURVE",
"528 475 OFFCURVE",
"528 549 CURVE SMOOTH",
"528 631 OFFCURVE",
"454 686 OFFCURVE",
"372 686 CURVE SMOOTH",
"272 686 OFFCURVE",
"195 609 OFFCURVE",
"159 508 CURVE SMOOTH",
"125 417 OFFCURVE",
"50 30 OFFCURVE",
"3 -58 CURVE SMOOTH",
"-28 -117 OFFCURVE",
"-56 -148 OFFCURVE",
"-79 -152 CURVE SMOOTH",
"-92 -155 OFFCURVE",
"-100 -160 OFFCURVE",
"-100 -168 CURVE SMOOTH",
"-100 -178 OFFCURVE",
"-94 -184 OFFCURVE",
"-83 -189 CURVE"
);
}
);
width = 627;
}
);
unicode = 1E9E;
},
{
glyphname = Schwa;
lastChange = "2022-02-17 14:45:31 +0000";
layers = (
{
layerId = "769237BE-90A6-4D5E-A4C9-331744B3656A";
paths = (
{
closed = 1;
nodes = (
"542 -83 OFFCURVE",
"708 139 OFFCURVE",
"708 390 CURVE SMOOTH",
"708 594 OFFCURVE",
"575 722 OFFCURVE",
"374 722 CURVE SMOOTH",
"254 722 OFFCURVE",
"165 683 OFFCURVE",
"108 604 CURVE SMOOTH",
"89 577 OFFCURVE",
"79 559 OFFCURVE",
"79 549 CURVE SMOOTH",
"79 538 OFFCURVE",
"85 532 OFFCURVE",
"97 532 CURVE SMOOTH",
"105 532 OFFCURVE",
"115 545 OFFCURVE",
"128 572 CURVE SMOOTH",
"147 611 OFFCURVE",
"183 640 OFFCURVE",
"235 661 CURVE SMOOTH",
"278 679 OFFCURVE",
"324 688 OFFCURVE",
"373 688 CURVE SMOOTH",
"556 688 OFFCURVE",
"673 558 OFFCURVE",
"673 376 CURVE SMOOTH",
"673 153 OFFCURVE",
"498 -49 OFFCURVE",
"271 -49 CURVE SMOOTH",
"155 -49 OFFCURVE",
"59 8 OFFCURVE",
"59 122 CURVE SMOOTH",
"59 252 OFFCURVE",
"241 352 OFFCURVE",
"427 352 CURVE SMOOTH",
"566 352 OFFCURVE",
"655 328 OFFCURVE",
"655 281 CURVE SMOOTH",
"655 272 OFFCURVE",
"655 249 OFFCURVE",
"646 225 CURVE SMOOTH",
"644 220 OFFCURVE",
"643 216 OFFCURVE",
"643 214 CURVE SMOOTH",
"643 209 OFFCURVE",
"646 206 OFFCURVE",
"655 205 CURVE SMOOTH",
"668 203 OFFCURVE",
"690 244 OFFCURVE",
"690 283 CURVE SMOOTH",
"690 360 OFFCURVE",
"574 387 OFFCURVE",
"427 387 CURVE SMOOTH",
"273 387 OFFCURVE",
"25 314 OFFCURVE",
"25 122 CURVE SMOOTH",
"25 -21 OFFCURVE",
"135 -83 OFFCURVE",
"271 -83 CURVE SMOOTH"
);
}
);
width = 651;
}
);
unicode = 018F;
},
{
glyphname = T;
lastChange = "2022-02-17 14:45:31 +0000";
layers = (
{
layerId = "769237BE-90A6-4D5E-A4C9-331744B3656A";
paths = (
{
closed = 1;
nodes = (
"230 -43 OFFCURVE",
"331 51 OFFCURVE",
"387 239 CURVE",
"399 290 OFFCURVE",
"411 342 OFFCURVE",
"424 393 CURVE SMOOTH",
"439 451 OFFCURVE",
"460 499 OFFCURVE",
"488 537 CURVE",
"562 513 OFFCURVE",
"622 501 OFFCURVE",
"668 501 CURVE SMOOTH",
"698 501 OFFCURVE",
"724 505 OFFCURVE",
"745 514 CURVE SMOOTH",
"770 525 OFFCURVE",
"782 535 OFFCURVE",
"782 546 CURVE SMOOTH",
"782 558 OFFCURVE",
"776 564 OFFCURVE",
"764 564 CURVE SMOOTH",
"763 564 OFFCURVE",
"761 563 OFFCURVE",
"759 562 CURVE SMOOTH",
"752 559 LINE SMOOTH",
"720 542 OFFCURVE",
"693 534 OFFCURVE",
"671 534 CURVE SMOOTH",
"632 534 OFFCURVE",
"579 544 OFFCURVE",
"512 564 CURVE",
"514 567 OFFCURVE",
"517 569 OFFCURVE",
"520 571 CURVE SMOOTH",
"544 585 LINE SMOOTH",
"555 592 OFFCURVE",
"560 599 OFFCURVE",
"560 604 CURVE SMOOTH",
"560 615 OFFCURVE",
"555 621 OFFCURVE",
"544 621 CURVE SMOOTH",
"525 621 OFFCURVE",
"503 606 OFFCURVE",
"476 577 CURVE",
"330 628 LINE SMOOTH",
"271 648 OFFCURVE",
"221 658 OFFCURVE",
"179 658 CURVE SMOOTH",
"131 658 OFFCURVE",
"89 647 OFFCURVE",
"54 624 CURVE SMOOTH",
"13 597 OFFCURVE",
"-8 561 OFFCURVE",
"-8 514 CURVE SMOOTH",
"-8 489 OFFCURVE",
"0 466 OFFCURVE",
"17 445 CURVE SMOOTH",
"34 424 OFFCURVE",
"56 414 OFFCURVE",
"81 414 CURVE SMOOTH",
"96 414 OFFCURVE",
"109 418 OFFCURVE",
"121 425 CURVE SMOOTH",
"136 434 OFFCURVE",
"143 445 OFFCURVE",
"143 459 CURVE SMOOTH",
"143 470 OFFCURVE",
"138 475 OFFCURVE",
"129 475 CURVE SMOOTH",
"127 475 OFFCURVE",
"125 474 OFFCURVE",
"124 473 CURVE SMOOTH",
"112 461 OFFCURVE",
"104 447 OFFCURVE",
"81 447 CURVE SMOOTH",
"49 447 OFFCURVE",
"25 481 OFFCURVE",
"25 514 CURVE SMOOTH",
"25 550 OFFCURVE",
"42 578 OFFCURVE",
"75 598 CURVE SMOOTH",
"104 615 OFFCURVE",
"138 624 OFFCURVE",
"177 624 CURVE SMOOTH",
"234 624 OFFCURVE",
"326 599 OFFCURVE",
"453 548 CURVE",
"420 501 OFFCURVE",
"398 448 OFFCURVE",
"386 387 CURVE SMOOTH",
"363 269 OFFCURVE",
"335 182 OFFCURVE",
"303 126 CURVE SMOOTH",
"252 36 OFFCURVE",
"181 -9 OFFCURVE",
"90 -9 CURVE SMOOTH",
"41 -9 OFFCURVE",
"0 3 OFFCURVE",
"-33 28 CURVE SMOOTH",
"-70 56 OFFCURVE",
"-88 93 OFFCURVE",
"-88 139 CURVE SMOOTH",
"-88 177 OFFCURVE",
"-76 210 OFFCURVE",
"-51 239 CURVE SMOOTH",
"-26 268 OFFCURVE",
"4 282 OFFCURVE",
"41 282 CURVE SMOOTH",
"71 282 OFFCURVE",
"94 273 OFFCURVE",
"109 256 CURVE SMOOTH",
"122 241 OFFCURVE",
"128 222 OFFCURVE",
"128 200 CURVE SMOOTH",
"128 191 OFFCURVE",
"127 182 OFFCURVE",
"125 173 CURVE",
"122 166 OFFCURVE",
"133 154 OFFCURVE",
"142 154 CURVE SMOOTH",
"151 154 OFFCURVE",
"157 162 OFFCURVE",
"160 177 CURVE SMOOTH",
"162 187 OFFCURVE",
"163 197 OFFCURVE",
"163 206 CURVE SMOOTH",
"163 239 OFFCURVE",
"150 267 OFFCURVE",
"124 288 CURVE SMOOTH",
"101 307 OFFCURVE",
"73 316 OFFCURVE",
"42 316 CURVE SMOOTH",
"-5 316 OFFCURVE",
"-44 298 OFFCURVE",
"-75 263 CURVE SMOOTH",
"-106 228 OFFCURVE",
"-122 187 OFFCURVE",
"-122 140 CURVE SMOOTH",
"-122 85 OFFCURVE",
"-101 40 OFFCURVE",
"-58 5 CURVE SMOOTH",
"-19 -27 OFFCURVE",
"29 -43 OFFCURVE",
"85 -43 CURVE SMOOTH"
);
}
);
width = 435;
}
);
note = T;
unicode = 0054;
},
{
glyphname = U;
lastChange = "2022-02-17 14:45:31 +0000";
layers = (
{
layerId = "769237BE-90A6-4D5E-A4C9-331744B3656A";
paths = (
{
closed = 1;
nodes = (
"527 -30 OFFCURVE",
"626 55 OFFCURVE",
"713 226 CURVE",
"702 176 OFFCURVE",
"697 134 OFFCURVE",
"697 100 CURVE SMOOTH",
"697 16 OFFCURVE",
"736 -26 OFFCURVE",
"814 -26 CURVE SMOOTH",
"825 -26 OFFCURVE",
"830 -20 OFFCURVE",
"830 -9 CURVE SMOOTH",
"830 3 OFFCURVE",
"819 9 OFFCURVE",
"797 10 CURVE SMOOTH",
"755 10 OFFCURVE",
"734 42 OFFCURVE",
"734 105 CURVE SMOOTH",
"734 169 OFFCURVE",
"751 255 OFFCURVE",
"784 362 CURVE SMOOTH",
"868 616 LINE SMOOTH",
"870 624 OFFCURVE",
"871 630 OFFCURVE",
"871 635 CURVE SMOOTH",
"871 646 OFFCURVE",
"866 652 OFFCURVE",
"855 652 CURVE SMOOTH",
"845 652 OFFCURVE",
"836 643 OFFCURVE",
"829 625 CURVE SMOOTH",
"817 586 LINE SMOOTH",
"696 198 OFFCURVE",
"564 4 OFFCURVE",
"423 4 CURVE SMOOTH",
"360 4 OFFCURVE",
"328 32 OFFCURVE",
"328 88 CURVE SMOOTH",
"328 141 OFFCURVE",
"348 219 OFFCURVE",
"388 323 CURVE SMOOTH",
"439 456 OFFCURVE",
"455 500 OFFCURVE",
"462 527 CURVE SMOOTH",
"469 554 OFFCURVE",
"472 580 OFFCURVE",
"472 605 CURVE SMOOTH",
"472 657 OFFCURVE",
"457 698 OFFCURVE",
"427 727 CURVE SMOOTH",
"394 759 OFFCURVE",
"346 775 OFFCURVE",
"283 775 CURVE SMOOTH",
"200 775 OFFCURVE",
"126 745 OFFCURVE",
"61 684 CURVE SMOOTH",
"-6 623 OFFCURVE",
"-40 551 OFFCURVE",
"-40 469 CURVE SMOOTH",
"-40 419 OFFCURVE",
"-22 379 OFFCURVE",
"14 348 CURVE SMOOTH",
"48 319 OFFCURVE",
"90 305 OFFCURVE",
"140 305 CURVE SMOOTH",
"194 305 OFFCURVE",
"241 324 OFFCURVE",
"281 361 CURVE SMOOTH",
"321 399 OFFCURVE",
"341 445 OFFCURVE",
"341 499 CURVE SMOOTH",
"341 572 OFFCURVE",
"309 608 OFFCURVE",
"245 608 CURVE SMOOTH",
"198 608 OFFCURVE",
"174 600 OFFCURVE",
"174 584 CURVE SMOOTH",
"174 572 OFFCURVE",
"179 566 OFFCURVE",
"190 566 CURVE SMOOTH",
"202 566 OFFCURVE",
"233 574 OFFCURVE",
"245 574 CURVE SMOOTH",
"286 574 OFFCURVE",
"307 549 OFFCURVE",
"307 500 CURVE SMOOTH",
"307 454 OFFCURVE",
"290 416 OFFCURVE",
"257 385 CURVE SMOOTH",
"224 354 OFFCURVE",
"184 339 OFFCURVE",
"137 339 CURVE SMOOTH",
"56 339 OFFCURVE",
"-6 389 OFFCURVE",
"-6 468 CURVE SMOOTH",
"-6 541 OFFCURVE",
"24 605 OFFCURVE",
"85 660 CURVE SMOOTH",
"144 715 OFFCURVE",
"210 742 OFFCURVE",
"283 742 CURVE SMOOTH",
"387 742 OFFCURVE",
"439 697 OFFCURVE",
"439 608 CURVE SMOOTH",
"439 586 OFFCURVE",
"436 561 OFFCURVE",
"429 534 CURVE SMOOTH",
"423 510 OFFCURVE",
"406 466 OFFCURVE",
"355 329 CURVE SMOOTH",
"314 222 OFFCURVE",
"294 144 OFFCURVE",
"294 93 CURVE SMOOTH",
"294 11 OFFCURVE",
"335 -30 OFFCURVE",
"418 -30 CURVE SMOOTH"
);
}
);
width = 849;
}
);
note = U;
unicode = 0055;
},
{
glyphname = V;
lastChange = "2022-02-17 14:45:31 +0000";
layers = (
{
layerId = "769237BE-90A6-4D5E-A4C9-331744B3656A";
paths = (
{
closed = 1;
nodes = (
"518 -70 OFFCURVE",
"523 -68 OFFCURVE",
"526 -63 CURVE SMOOTH",
"539 -41 OFFCURVE",
"548 -24 OFFCURVE",
"553 -13 CURVE SMOOTH",
"784 412 OFFCURVE",
"940 624 OFFCURVE",
"1021 624 CURVE SMOOTH",
"1036 624 OFFCURVE",
"1043 630 OFFCURVE",
"1043 641 CURVE SMOOTH",
"1043 652 OFFCURVE",
"1036 657 OFFCURVE",
"1023 657 CURVE SMOOTH",
"956 657 OFFCURVE",
"865 569 OFFCURVE",
"749 394 CURVE SMOOTH",
"696 314 OFFCURVE",
"627 193 OFFCURVE",
"540 32 CURVE",
"554 138 OFFCURVE",
"561 227 OFFCURVE",
"561 300 CURVE SMOOTH",
"561 573 OFFCURVE",
"476 710 OFFCURVE",
"306 710 CURVE SMOOTH",
"231 710 OFFCURVE",
"168 683 OFFCURVE",
"116 628 CURVE SMOOTH",
"64 574 OFFCURVE",
"38 509 OFFCURVE",
"38 434 CURVE SMOOTH",
"38 382 OFFCURVE",
"54 339 OFFCURVE",
"85 305 CURVE SMOOTH",
"118 269 OFFCURVE",
"160 251 OFFCURVE",
"211 251 CURVE SMOOTH",
"255 251 OFFCURVE",
"291 266 OFFCURVE",
"318 295 CURVE SMOOTH",
"321 298 OFFCURVE",
"322 301 OFFCURVE",
"322 305 CURVE SMOOTH",
"322 316 OFFCURVE",
"316 322 OFFCURVE",
"305 322 CURVE SMOOTH",
"303 322 OFFCURVE",
"299 320 OFFCURVE",
"292 316 CURVE",
"265 295 OFFCURVE",
"238 285 OFFCURVE",
"211 285 CURVE SMOOTH",
"126 285 OFFCURVE",
"71 347 OFFCURVE",
"71 435 CURVE SMOOTH",
"71 501 OFFCURVE",
"94 558 OFFCURVE",
"139 605 CURVE SMOOTH",
"184 652 OFFCURVE",
"240 676 OFFCURVE",
"305 676 CURVE SMOOTH",
"454 676 OFFCURVE",
"528 551 OFFCURVE",
"528 301 CURVE SMOOTH",
"528 223 OFFCURVE",
"519 117 OFFCURVE",
"500 -16 CURVE SMOOTH",
"497 -38 OFFCURVE",
"495 -50 OFFCURVE",
"495 -53 CURVE SMOOTH",
"495 -64 OFFCURVE",
"501 -70 OFFCURVE",
"513 -70 CURVE SMOOTH"
);
}
);
width = 782;
}
);
note = V;
unicode = 0056;
},
{
glyphname = W;
lastChange = "2022-02-17 14:45:31 +0000";
layers = (
{
layerId = "769237BE-90A6-4D5E-A4C9-331744B3656A";
paths = (
{
closed = 1;
nodes = (
"554 -39 OFFCURVE",
"669 84 OFFCURVE",
"765 330 CURVE",
"756 274 OFFCURVE",
"752 225 OFFCURVE",
"752 182 CURVE SMOOTH",
"752 49 OFFCURVE",
"791 -18 OFFCURVE",
"868 -18 CURVE SMOOTH",
"940 -18 OFFCURVE",
"1010 35 OFFCURVE",
"1078 141 CURVE SMOOTH",
"1126 216 OFFCURVE",
"1165 300 OFFCURVE",
"1196 395 CURVE SMOOTH",
"1214 452 OFFCURVE",
"1223 517 OFFCURVE",
"1223 591 CURVE SMOOTH",
"1223 650 OFFCURVE",
"1212 687 OFFCURVE",
"1191 702 CURVE SMOOTH",
"1187 705 OFFCURVE",
"1181 706 OFFCURVE",
"1174 706 CURVE SMOOTH",
"1163 706 OFFCURVE",
"1158 703 OFFCURVE",
"1158 696 CURVE SMOOTH",
"1158 691 OFFCURVE",
"1161 686 OFFCURVE",
"1167 679 CURVE SMOOTH",
"1181 662 OFFCURVE",
"1188 631 OFFCURVE",
"1188 584 CURVE SMOOTH",
"1188 517 OFFCURVE",
"1180 458 OFFCURVE",
"1163 407 CURVE SMOOTH",
"1134 317 OFFCURVE",
"1098 237 OFFCURVE",
"1054 167 CURVE SMOOTH",
"991 66 OFFCURVE",
"928 16 OFFCURVE",
"865 16 CURVE SMOOTH",
"810 16 OFFCURVE",
"783 68 OFFCURVE",
"783 172 CURVE SMOOTH",
"783 242 OFFCURVE",
"795 331 OFFCURVE",
"819 439 CURVE SMOOTH",
"834 508 OFFCURVE",
"849 569 OFFCURVE",
"866 621 CURVE SMOOTH",
"867 624 OFFCURVE",
"867 627 OFFCURVE",
"867 630 CURVE SMOOTH",
"867 643 OFFCURVE",
"862 649 OFFCURVE",
"852 649 CURVE SMOOTH",
"843 649 OFFCURVE",
"836 642 OFFCURVE",
"830 629 CURVE",
"823 608 OFFCURVE",
"817 593 OFFCURVE",
"814 582 CURVE SMOOTH",
"759 413 OFFCURVE",
"714 294 OFFCURVE",
"679 225 CURVE SMOOTH",
"602 72 OFFCURVE",
"517 -5 OFFCURVE",
"426 -5 CURVE SMOOTH",
"365 -5 OFFCURVE",
"335 24 OFFCURVE",
"335 83 CURVE SMOOTH",
"335 144 OFFCURVE",
"353 221 OFFCURVE",
"389 314 CURVE SMOOTH",
"438 440 OFFCURVE",
"456 481 OFFCURVE",
"462 505 CURVE SMOOTH",
"471 540 OFFCURVE",
"475 572 OFFCURVE",
"475 602 CURVE SMOOTH",
"475 661 OFFCURVE",
"458 706 OFFCURVE",
"423 737 CURVE SMOOTH",
"391 766 OFFCURVE",
"349 780 OFFCURVE",
"297 780 CURVE SMOOTH",
"217 780 OFFCURVE",
"143 752 OFFCURVE",
"75 695 CURVE SMOOTH",
"0 633 OFFCURVE",
"-37 558 OFFCURVE",
"-37 470 CURVE SMOOTH",
"-37 421 OFFCURVE",
"-19 381 OFFCURVE",
"17 350 CURVE SMOOTH",
"50 321 OFFCURVE",
"92 306 OFFCURVE",
"142 306 CURVE SMOOTH",
"195 306 OFFCURVE",
"241 324 OFFCURVE",
"279 359 CURVE SMOOTH",
"318 394 OFFCURVE",
"337 439 OFFCURVE",
"337 492 CURVE SMOOTH",
"337 556 OFFCURVE",
"298 609 OFFCURVE",
"234 609 CURVE SMOOTH",
"195 609 OFFCURVE",
"177 600 OFFCURVE",
"177 585 CURVE SMOOTH",
"177 574 OFFCURVE",
"182 569 OFFCURVE",
"193 569 CURVE SMOOTH",
"202 569 OFFCURVE",
"226 575 OFFCURVE",
"235 575 CURVE SMOOTH",
"278 575 OFFCURVE",
"303 539 OFFCURVE",
"303 494 CURVE SMOOTH",
"303 449 OFFCURVE",
"287 412 OFFCURVE",
"256 383 CURVE SMOOTH",
"225 355 OFFCURVE",
"186 341 OFFCURVE",
"140 341 CURVE SMOOTH",
"59 341 OFFCURVE",
"-2 391 OFFCURVE",
"-2 470 CURVE SMOOTH",
"-2 547 OFFCURVE",
"31 613 OFFCURVE",
"98 670 CURVE SMOOTH",
"160 722 OFFCURVE",
"226 748 OFFCURVE",
"296 748 CURVE SMOOTH",
"339 748 OFFCURVE",
"373 736 OFFCURVE",
"398 713 CURVE SMOOTH",
"426 687 OFFCURVE",
"440 649 OFFCURVE",
"440 600 CURVE SMOOTH",
"440 574 OFFCURVE",
"436 545 OFFCURVE",
"428 513 CURVE SMOOTH",
"423 491 OFFCURVE",
"404 449 OFFCURVE",
"355 320 CURVE SMOOTH",
"319 225 OFFCURVE",
"301 148 OFFCURVE",
"301 90 CURVE SMOOTH",
"301 4 OFFCURVE",
"341 -39 OFFCURVE",
"421 -39 CURVE SMOOTH"
);
}
);
width = 1174;
}
);
note = W;
unicode = 0057;
},
{
glyphname = X;
lastChange = "2022-02-17 14:45:31 +0000";
layers = (
{
layerId = "769237BE-90A6-4D5E-A4C9-331744B3656A";
paths = (
{
closed = 1;
nodes = (
"-12 -46 OFFCURVE",
"-6 -40 OFFCURVE",
"0 -28 CURVE SMOOTH",
"33 34 OFFCURVE",
"122 139 OFFCURVE",
"265 288 CURVE",
"376 129 LINE SMOOTH",
"421 67 OFFCURVE",
"464 18 OFFCURVE",
"503 -17 CURVE SMOOTH",
"506 -20 OFFCURVE",
"509 -21 OFFCURVE",
"513 -21 CURVE SMOOTH",
"525 -21 OFFCURVE",
"531 -16 OFFCURVE",
"531 -6 CURVE SMOOTH",
"531 -2 OFFCURVE",
"529 2 OFFCURVE",
"526 6 CURVE SMOOTH",
"429 113 OFFCURVE",
"350 215 OFFCURVE",
"289 312 CURVE",
"350 375 OFFCURVE",
"397 426 OFFCURVE",
"430 465 CURVE SMOOTH",
"501 547 OFFCURVE",
"536 603 OFFCURVE",
"536 632 CURVE SMOOTH",
"536 643 OFFCURVE",
"530 648 OFFCURVE",
"519 648 CURVE SMOOTH",
"511 648 OFFCURVE",
"505 644 OFFCURVE",
"502 635 CURVE SMOOTH",
"486 592 OFFCURVE",
"454 543 OFFCURVE",
"407 488 CURVE SMOOTH",
"347 423 OFFCURVE",
"301 374 OFFCURVE",
"270 342 CURVE",
"169 495 OFFCURVE",
"119 589 OFFCURVE",
"119 622 CURVE SMOOTH",
"119 633 OFFCURVE",
"113 638 OFFCURVE",
"102 638 CURVE SMOOTH",
"91 638 OFFCURVE",
"85 632 OFFCURVE",
"85 621 CURVE SMOOTH",
"85 582 OFFCURVE",
"139 480 OFFCURVE",
"247 317 CURVE",
"63 130 OFFCURVE",
"-29 17 OFFCURVE",
"-29 -22 CURVE SMOOTH",
"-29 -38 OFFCURVE",
"-26 -46 OFFCURVE",
"-19 -46 CURVE SMOOTH"
);
}
);
width = 593;
}
);
note = X;
unicode = 0058;
},
{
glyphname = Y;
lastChange = "2022-02-17 14:45:31 +0000";
layers = (
{
layerId = "769237BE-90A6-4D5E-A4C9-331744B3656A";
paths = (
{
closed = 1;
nodes = (
"297 -295 OFFCURVE",
"349 -267 OFFCURVE",
"403 -211 CURVE SMOOTH",
"444 -168 OFFCURVE",
"479 -119 OFFCURVE",
"509 -62 CURVE",
"560 -72 OFFCURVE",
"605 -90 OFFCURVE",
"642 -116 CURVE SMOOTH",
"669 -135 OFFCURVE",
"674 -148 OFFCURVE",
"671 -161 CURVE SMOOTH",
"668 -178 LINE",
"668 -189 OFFCURVE",
"672 -195 OFFCURVE",
"681 -195 CURVE SMOOTH",
"694 -195 OFFCURVE",
"704 -173 OFFCURVE",
"704 -158 CURVE SMOOTH",
"704 -129 OFFCURVE",
"688 -104 OFFCURVE",
"657 -83 CURVE SMOOTH",
"620 -58 OFFCURVE",
"575 -40 OFFCURVE",
"523 -29 CURVE",
"566 64 OFFCURVE",
"593 167 OFFCURVE",
"604 282 CURVE",
"656 387 OFFCURVE",
"682 471 OFFCURVE",
"682 534 CURVE SMOOTH",
"682 590 OFFCURVE",
"658 627 OFFCURVE",
"629 627 CURVE SMOOTH",
"614 627 OFFCURVE",
"602 617 OFFCURVE",
"591 598 CURVE SMOOTH",
"579 576 OFFCURVE",
"573 544 OFFCURVE",
"572 503 CURVE SMOOTH",
"571 408 OFFCURVE",
"571 338 OFFCURVE",
"571 292 CURVE",
"541 234 OFFCURVE",
"505 182 OFFCURVE",
"462 135 CURVE SMOOTH",
"406 73 OFFCURVE",
"355 42 OFFCURVE",
"310 42 CURVE SMOOTH",
"286 42 OFFCURVE",
"267 53 OFFCURVE",
"253 75 CURVE SMOOTH",
"241 95 OFFCURVE",
"235 118 OFFCURVE",
"235 145 CURVE SMOOTH",
"235 187 OFFCURVE",
"253 252 OFFCURVE",
"290 339 CURVE SMOOTH",
"327 426 OFFCURVE",
"345 497 OFFCURVE",
"345 550 CURVE SMOOTH",
"345 604 OFFCURVE",
"327 647 OFFCURVE",
"290 679 CURVE SMOOTH",
"255 708 OFFCURVE",
"211 723 OFFCURVE",
"158 723 CURVE SMOOTH",
"102 723 OFFCURVE",
"54 702 OFFCURVE",
"14 660 CURVE SMOOTH",
"-26 619 OFFCURVE",
"-46 570 OFFCURVE",
"-46 513 CURVE SMOOTH",
"-46 468 OFFCURVE",
"-32 429 OFFCURVE",
"-3 395 CURVE SMOOTH",
"28 358 OFFCURVE",
"65 340 OFFCURVE",
"109 340 CURVE SMOOTH",
"153 340 OFFCURVE",
"191 367 OFFCURVE",
"203 410 CURVE SMOOTH",
"206 419 OFFCURVE",
"199 430 OFFCURVE",
"188 430 CURVE SMOOTH",
"181 430 OFFCURVE",
"175 425 OFFCURVE",
"170 415 CURVE SMOOTH",
"154 388 OFFCURVE",
"135 374 OFFCURVE",
"113 374 CURVE SMOOTH",
"77 374 OFFCURVE",
"47 388 OFFCURVE",
"23 417 CURVE SMOOTH",
"0 444 OFFCURVE",
"-11 476 OFFCURVE",
"-11 513 CURVE SMOOTH",
"-11 560 OFFCURVE",
"6 601 OFFCURVE",
"39 635 CURVE SMOOTH",
"73 670 OFFCURVE",
"114 687 OFFCURVE",
"161 687 CURVE SMOOTH",
"250 687 OFFCURVE",
"309 639 OFFCURVE",
"309 550 CURVE SMOOTH",
"309 499 OFFCURVE",
"291 430 OFFCURVE",
"254 342 CURVE SMOOTH",
"217 254 OFFCURVE",
"199 188 OFFCURVE",
"199 143 CURVE SMOOTH",
"199 106 OFFCURVE",
"209 75 OFFCURVE",
"228 50 CURVE SMOOTH",
"249 21 OFFCURVE",
"277 7 OFFCURVE",
"313 7 CURVE SMOOTH",
"355 7 OFFCURVE",
"401 30 OFFCURVE",
"452 77 CURVE SMOOTH",
"489 112 OFFCURVE",
"525 155 OFFCURVE",
"559 206 CURVE",
"544 120 OFFCURVE",
"521 43 OFFCURVE",
"489 -24 CURVE",
"478 -23 OFFCURVE",
"467 -22 OFFCURVE",
"456 -22 CURVE SMOOTH",
"399 -22 OFFCURVE",
"339 -42 OFFCURVE",
"277 -81 CURVE SMOOTH",
"208 -125 OFFCURVE",
"173 -175 OFFCURVE",
"173 -231 CURVE SMOOTH",
"173 -271 OFFCURVE",
"208 -295 OFFCURVE",
"248 -295 CURVE SMOOTH"
);
},
{
closed = 1;
nodes = (
"227 -261 OFFCURVE",
"206 -250 OFFCURVE",
"206 -234 CURVE SMOOTH",
"206 -188 OFFCURVE",
"237 -146 OFFCURVE",
"299 -108 CURVE SMOOTH",
"354 -73 OFFCURVE",
"407 -56 OFFCURVE",
"456 -56 CURVE SMOOTH",
"473 -56 LINE",
"446 -107 OFFCURVE",
"414 -151 OFFCURVE",
"378 -188 CURVE SMOOTH",
"331 -237 OFFCURVE",
"287 -261 OFFCURVE",
"247 -261 CURVE SMOOTH"
);
},
{
closed = 1;
nodes = (
"608 395 OFFCURVE",
"607 412 OFFCURVE",
"607 428 CURVE SMOOTH",
"607 505 OFFCURVE",
"612 553 OFFCURVE",
"619 572 CURVE SMOOTH",
"623 582 OFFCURVE",
"628 587 OFFCURVE",
"632 587 CURVE SMOOTH",
"634 587 LINE",
"643 584 OFFCURVE",
"648 567 OFFCURVE",
"648 538 CURVE SMOOTH",
"648 499 OFFCURVE",
"635 446 OFFCURVE",
"608 377 CURVE"
);
}
);
width = 654;
}
);
note = Y;
unicode = 0059;
},
{
glyphname = Z;
lastChange = "2022-02-17 14:45:31 +0000";
layers = (
{
layerId = "769237BE-90A6-4D5E-A4C9-331744B3656A";
paths = (
{
closed = 1;
nodes = (
"476 -55 OFFCURVE",
"521 -39 OFFCURVE",
"554 -7 CURVE SMOOTH",
"583 21 OFFCURVE",
"598 55 OFFCURVE",
"598 96 CURVE SMOOTH",
"598 132 OFFCURVE",
"586 163 OFFCURVE",
"562 190 CURVE SMOOTH",
"538 217 OFFCURVE",
"506 230 OFFCURVE",
"465 230 CURVE SMOOTH",
"406 230 OFFCURVE",
"366 204 OFFCURVE",
"345 153 CURVE SMOOTH",
"341 141 OFFCURVE",
"350 130 OFFCURVE",
"362 130 CURVE SMOOTH",
"368 130 OFFCURVE",
"374 136 OFFCURVE",
"381 147 CURVE SMOOTH",
"391 162 OFFCURVE",
"400 173 OFFCURVE",
"407 179 CURVE SMOOTH",
"422 190 OFFCURVE",
"441 196 OFFCURVE",
"464 196 CURVE SMOOTH",
"524 196 OFFCURVE",
"563 149 OFFCURVE",
"563 96 CURVE SMOOTH",
"563 65 OFFCURVE",
"551 38 OFFCURVE",
"528 17 CURVE SMOOTH",
"501 -7 OFFCURVE",
"464 -19 OFFCURVE",
"416 -19 CURVE SMOOTH",
"375 -19 OFFCURVE",
"314 -10 OFFCURVE",
"234 9 CURVE SMOOTH",
"155 28 OFFCURVE",
"94 37 OFFCURVE",
"53 37 CURVE SMOOTH",
"46 37 OFFCURVE",
"38 37 OFFCURVE",
"31 36 CURVE",
"92 110 OFFCURVE",
"189 217 OFFCURVE",
"321 358 CURVE SMOOTH",
"448 493 OFFCURVE",
"543 599 OFFCURVE",
"604 674 CURVE SMOOTH",
"606 677 OFFCURVE",
"607 680 OFFCURVE",
"607 683 CURVE SMOOTH",
"607 696 OFFCURVE",
"601 702 OFFCURVE",
"590 702 CURVE SMOOTH",
"588 702 OFFCURVE",
"586 702 OFFCURVE",
"584 701 CURVE SMOOTH",
"557 690 OFFCURVE",
"527 684 OFFCURVE",
"494 684 CURVE SMOOTH",
"473 684 OFFCURVE",
"440 687 OFFCURVE",
"393 693 CURVE SMOOTH",
"346 700 OFFCURVE",
"311 703 OFFCURVE",
"288 703 CURVE SMOOTH",
"253 703 OFFCURVE",
"224 698 OFFCURVE",
"199 688 CURVE SMOOTH",
"140 663 OFFCURVE",
"93 600 OFFCURVE",
"93 539 CURVE SMOOTH",
"93 479 OFFCURVE",
"134 438 OFFCURVE",
"194 438 CURVE SMOOTH",
"227 438 OFFCURVE",
"254 453 OFFCURVE",
"274 483 CURVE SMOOTH",
"276 486 OFFCURVE",
"277 489 OFFCURVE",
"277 492 CURVE SMOOTH",
"277 503 OFFCURVE",
"271 509 OFFCURVE",
"259 509 CURVE SMOOTH",
"257 509 OFFCURVE",
"249 503 OFFCURVE",
"236 490 CURVE SMOOTH",
"223 478 OFFCURVE",
"209 472 OFFCURVE",
"194 472 CURVE SMOOTH",
"154 472 OFFCURVE",
"128 498 OFFCURVE",
"128 537 CURVE SMOOTH",
"128 585 OFFCURVE",
"168 637 OFFCURVE",
"213 656 CURVE SMOOTH",
"231 664 OFFCURVE",
"255 668 OFFCURVE",
"284 668 CURVE SMOOTH",
"307 668 OFFCURVE",
"341 665 OFFCURVE",
"386 659 CURVE SMOOTH",
"432 653 OFFCURVE",
"463 650 OFFCURVE",
"480 650 CURVE SMOOTH",
"503 650 OFFCURVE",
"523 651 OFFCURVE",
"540 653 CURVE",
"251 340 LINE SMOOTH",
"139 218 OFFCURVE",
"46 111 OFFCURVE",
"-29 20 CURVE SMOOTH",
"-31 17 OFFCURVE",
"-32 14 OFFCURVE",
"-32 10 CURVE SMOOTH",
"-32 1 OFFCURVE",
"-24 -8 OFFCURVE",
"-14 -8 CURVE SMOOTH",
"-13 -8 OFFCURVE",
"-11 -8 OFFCURVE",
"-9 -7 CURVE SMOOTH",
"11 0 OFFCURVE",
"32 4 OFFCURVE",
"53 4 CURVE SMOOTH",
"94 4 OFFCURVE",
"155 -6 OFFCURVE",
"235 -25 CURVE SMOOTH",
"315 -45 OFFCURVE",
"376 -55 OFFCURVE",
"418 -55 CURVE SMOOTH"
);
}
);
width = 585;
}
);
note = Z;
unicode = 005A;
},
{
glyphname = a;
lastChange = "2022-02-17 14:45:31 +0000";
layers = (
{
layerId = "769237BE-90A6-4D5E-A4C9-331744B3656A";
paths = (
{
closed = 1;
nodes = (
"380 -7 OFFCURVE",
"416 7 OFFCURVE",
"448 36 CURVE SMOOTH",
"472 58 OFFCURVE",
"494 86 OFFCURVE",
"511 114 CURVE SMOOTH",
"513 117 OFFCURVE",
"516 123 OFFCURVE",
"516 130 CURVE SMOOTH",
"516 140 OFFCURVE",
"510 143 OFFCURVE",
"504 143 CURVE SMOOTH",
"494 143 OFFCURVE",
"485 129 OFFCURVE",
"477 117 CURVE SMOOTH",
"463 96 OFFCURVE",
"445 73 OFFCURVE",
"425 56 CURVE SMOOTH",
"396 31 OFFCURVE",
"374 21 OFFCURVE",
"355 21 CURVE SMOOTH",
"322 21 OFFCURVE",
"301 47 OFFCURVE",
"301 93 CURVE SMOOTH",
"301 116 OFFCURVE",
"306 144 OFFCURVE",
"317 175 CURVE SMOOTH",
"349 266 LINE",
"352 279 OFFCURVE",
"346 285 OFFCURVE",
"330 285 CURVE SMOOTH",
"323 285 OFFCURVE",
"319 282 OFFCURVE",
"316 277 CURVE",
"304 246 OFFCURVE",
"295 221 OFFCURVE",
"289 204 CURVE SMOOTH",
"270 152 OFFCURVE",
"250 113 OFFCURVE",
"231 88 CURVE SMOOTH",
"200 48 OFFCURVE",
"164 28 OFFCURVE",
"122 28 CURVE SMOOTH",
"73 28 OFFCURVE",
"48 60 OFFCURVE",
"48 124 CURVE SMOOTH",
"48 138 OFFCURVE",
"49 153 OFFCURVE",
"52 168 CURVE SMOOTH",
"59 213 OFFCURVE",
"82 257 OFFCURVE",
"121 301 CURVE SMOOTH",
"162 349 OFFCURVE",
"204 373 OFFCURVE",
"245 373 CURVE SMOOTH",
"286 373 OFFCURVE",
"307 355 OFFCURVE",
"307 318 CURVE SMOOTH",
"307 298 OFFCURVE",
"286 277 OFFCURVE",
"266 277 CURVE SMOOTH",
"262 277 OFFCURVE",
"253 280 OFFCURVE",
"249 280 CURVE SMOOTH",
"238 280 OFFCURVE",
"232 274 OFFCURVE",
"232 263 CURVE SMOOTH",
"232 250 OFFCURVE",
"244 243 OFFCURVE",
"268 243 CURVE SMOOTH",
"305 243 OFFCURVE",
"341 281 OFFCURVE",
"341 318 CURVE SMOOTH",
"341 374 OFFCURVE",
"301 407 OFFCURVE",
"246 407 CURVE SMOOTH",
"195 407 OFFCURVE",
"145 380 OFFCURVE",
"97 326 CURVE SMOOTH",
"54 277 OFFCURVE",
"27 227 OFFCURVE",
"18 174 CURVE SMOOTH",
"15 159 OFFCURVE",
"14 144 OFFCURVE",
"14 129 CURVE SMOOTH",
"14 91 OFFCURVE",
"21 60 OFFCURVE",
"36 37 CURVE SMOOTH",
"54 8 OFFCURVE",
"81 -6 OFFCURVE",
"118 -6 CURVE SMOOTH",
"175 -6 OFFCURVE",
"224 23 OFFCURVE",
"265 81 CURVE",
"260 23 OFFCURVE",
"299 -7 OFFCURVE",
"348 -7 CURVE SMOOTH"
);
}
);
width = 477;
}
);
note = a;
unicode = 0061;
},
{
glyphname = ae;
lastChange = "2022-02-17 14:45:31 +0000";
layers = (
{
layerId = "769237BE-90A6-4D5E-A4C9-331744B3656A";
paths = (
{
closed = 1;
nodes = (
"431 -13 OFFCURVE",
"471 0 OFFCURVE",
"509 25 CURVE SMOOTH",
"544 48 OFFCURVE",
"572 79 OFFCURVE",
"594 116 CURVE SMOOTH",
"596 119 OFFCURVE",
"597 122 OFFCURVE",
"597 125 CURVE SMOOTH",
"597 137 OFFCURVE",
"591 143 OFFCURVE",
"580 143 CURVE SMOOTH",
"575 143 OFFCURVE",
"570 140 OFFCURVE",
"566 135 CURVE SMOOTH",
"537 96 OFFCURVE",
"512 69 OFFCURVE",
"492 54 CURVE SMOOTH",
"463 32 OFFCURVE",
"428 21 OFFCURVE",
"389 21 CURVE SMOOTH",
"366 21 OFFCURVE",
"345 29 OFFCURVE",
"326 44 CURVE SMOOTH",
"305 60 OFFCURVE",
"295 80 OFFCURVE",
"295 104 CURVE SMOOTH",
"295 108 OFFCURVE",
"295 112 OFFCURVE",
"296 116 CURVE SMOOTH",
"300 143 OFFCURVE",
"307 171 OFFCURVE",
"318 200 CURVE",
"336 194 OFFCURVE",
"358 191 OFFCURVE",
"383 191 CURVE SMOOTH",
"434 191 OFFCURVE",
"479 202 OFFCURVE",
"518 223 CURVE SMOOTH",
"563 248 OFFCURVE",
"586 280 OFFCURVE",
"586 321 CURVE SMOOTH",
"586 372 OFFCURVE",
"548 400 OFFCURVE",
"495 400 CURVE SMOOTH",
"432 400 OFFCURVE",
"377 373 OFFCURVE",
"332 318 CURVE",
"332 374 OFFCURVE",
"292 407 OFFCURVE",
"237 407 CURVE SMOOTH",
"186 407 OFFCURVE",
"136 380 OFFCURVE",
"88 326 CURVE SMOOTH",
"45 277 OFFCURVE",
"18 227 OFFCURVE",
"9 174 CURVE SMOOTH",
"6 159 OFFCURVE",
"5 144 OFFCURVE",
"5 129 CURVE SMOOTH",
"5 91 OFFCURVE",
"12 60 OFFCURVE",
"27 37 CURVE SMOOTH",
"45 8 OFFCURVE",
"72 -6 OFFCURVE",
"109 -6 CURVE SMOOTH",
"164 -6 OFFCURVE",
"213 25 OFFCURVE",
"256 88 CURVE",
"257 61 OFFCURVE",
"270 38 OFFCURVE",
"294 19 CURVE SMOOTH",
"320 -2 OFFCURVE",
"352 -13 OFFCURVE",
"390 -13 CURVE SMOOTH"
);
},
{
closed = 1;
nodes = (
"64 28 OFFCURVE",
"39 60 OFFCURVE",
"39 124 CURVE SMOOTH",
"39 138 OFFCURVE",
"40 153 OFFCURVE",
"43 168 CURVE SMOOTH",
"50 213 OFFCURVE",
"73 257 OFFCURVE",
"112 301 CURVE SMOOTH",
"153 349 OFFCURVE",
"195 373 OFFCURVE",
"236 373 CURVE SMOOTH",
"277 373 OFFCURVE",
"298 355 OFFCURVE",
"298 318 CURVE SMOOTH",
"298 298 OFFCURVE",
"277 277 OFFCURVE",
"257 277 CURVE SMOOTH",
"253 277 OFFCURVE",
"244 280 OFFCURVE",
"240 280 CURVE SMOOTH",
"229 280 OFFCURVE",
"223 274 OFFCURVE",
"223 263 CURVE SMOOTH",
"223 250 OFFCURVE",
"235 243 OFFCURVE",
"259 243 CURVE SMOOTH",
"273 243 OFFCURVE",
"287 248 OFFCURVE",
"300 258 CURVE",
"280 204 LINE SMOOTH",
"261 152 OFFCURVE",
"241 113 OFFCURVE",
"222 88 CURVE SMOOTH",
"191 48 OFFCURVE",
"155 28 OFFCURVE",
"113 28 CURVE SMOOTH"
);
},
{
closed = 1;
nodes = (
"360 225 OFFCURVE",
"343 227 OFFCURVE",
"329 232 CURVE",
"339 263 LINE",
"355 292 OFFCURVE",
"376 316 OFFCURVE",
"402 335 CURVE SMOOTH",
"431 356 OFFCURVE",
"460 366 OFFCURVE",
"491 366 CURVE SMOOTH",
"532 366 OFFCURVE",
"552 352 OFFCURVE",
"552 323 CURVE SMOOTH",
"552 293 OFFCURVE",
"533 269 OFFCURVE",
"494 250 CURVE SMOOTH",
"460 233 OFFCURVE",
"422 225 OFFCURVE",
"381 225 CURVE SMOOTH"
);
}
);
width = 557;
}
);
note = ae;
unicode = 00E6;
},
{
glyphname = b;
lastChange = "2022-02-17 14:45:31 +0000";
layers = (
{
layerId = "769237BE-90A6-4D5E-A4C9-331744B3656A";
paths = (
{
closed = 1;
nodes = (
"158 -19 OFFCURVE",
"191 -2 OFFCURVE",
"220 32 CURVE SMOOTH",
"254 69 OFFCURVE",
"271 114 OFFCURVE",
"271 167 CURVE SMOOTH",
"271 234 OFFCURVE",
"246 267 OFFCURVE",
"195 267 CURVE SMOOTH",
"152 267 OFFCURVE",
"112 235 OFFCURVE",
"112 198 CURVE SMOOTH",
"112 185 OFFCURVE",
"120 166 OFFCURVE",
"133 166 CURVE SMOOTH",
"144 166 OFFCURVE",
"150 172 OFFCURVE",
"150 183 CURVE SMOOTH",
"150 188 OFFCURVE",
"146 194 OFFCURVE",
"146 197 CURVE SMOOTH",
"146 213 OFFCURVE",
"171 233 OFFCURVE",
"195 233 CURVE SMOOTH",
"222 233 OFFCURVE",
"236 211 OFFCURVE",
"236 167 CURVE SMOOTH",
"236 129 OFFCURVE",
"224 95 OFFCURVE",
"199 64 CURVE SMOOTH",
"173 33 OFFCURVE",
"148 18 OFFCURVE",
"120 18 CURVE SMOOTH",
"74 18 OFFCURVE",
"51 58 OFFCURVE",
"51 139 CURVE SMOOTH",
"51 196 OFFCURVE",
"59 251 OFFCURVE",
"76 302 CURVE",
"141 298 OFFCURVE",
"203 334 OFFCURVE",
"262 410 CURVE SMOOTH",
"317 480 OFFCURVE",
"344 548 OFFCURVE",
"344 614 CURVE SMOOTH",
"344 662 OFFCURVE",
"328 686 OFFCURVE",
"295 686 CURVE SMOOTH",
"268 686 OFFCURVE",
"242 671 OFFCURVE",
"215 640 CURVE SMOOTH",
"158 575 OFFCURVE",
"104 475 OFFCURVE",
"53 338 CURVE",
"45 340 OFFCURVE",
"39 341 OFFCURVE",
"35 341 CURVE SMOOTH",
"24 341 OFFCURVE",
"18 335 OFFCURVE",
"18 324 CURVE SMOOTH",
"18 314 OFFCURVE",
"25 308 OFFCURVE",
"40 305 CURVE SMOOTH",
"42 305 LINE",
"26 245 OFFCURVE",
"18 189 OFFCURVE",
"18 137 CURVE SMOOTH",
"18 33 OFFCURVE",
"53 -19 OFFCURVE",
"122 -19 CURVE SMOOTH"
);
},
{
closed = 1;
nodes = (
"139 471 OFFCURVE",
"192 569 OFFCURVE",
"248 629 CURVE SMOOTH",
"264 646 OFFCURVE",
"278 654 OFFCURVE",
"289 654 CURVE SMOOTH",
"302 654 OFFCURVE",
"309 642 OFFCURVE",
"309 618 CURVE SMOOTH",
"309 561 OFFCURVE",
"287 501 OFFCURVE",
"242 439 CURVE SMOOTH",
"195 373 OFFCURVE",
"143 339 OFFCURVE",
"88 336 CURVE"
);
}
);
width = 301;
}
);
note = b;
unicode = 0062;
},
{
glyphname = c;
lastChange = "2022-02-17 14:45:31 +0000";
layers = (
{
layerId = "769237BE-90A6-4D5E-A4C9-331744B3656A";
paths = (
{
closed = 1;
nodes = (
"240 -19 OFFCURVE",
"323 18 OFFCURVE",
"370 114 CURVE SMOOTH",
"371 116 OFFCURVE",
"373 124 OFFCURVE",
"373 127 CURVE SMOOTH",
"373 138 OFFCURVE",
"370 142 OFFCURVE",
"362 142 CURVE SMOOTH",
"353 142 OFFCURVE",
"343 128 OFFCURVE",
"336 117 CURVE SMOOTH",
"297 51 OFFCURVE",
"236 13 OFFCURVE",
"172 13 CURVE SMOOTH",
"88 13 OFFCURVE",
"43 74 OFFCURVE",
"43 161 CURVE SMOOTH",
"43 208 OFFCURVE",
"60 253 OFFCURVE",
"95 296 CURVE SMOOTH",
"130 339 OFFCURVE",
"171 360 OFFCURVE",
"217 360 CURVE SMOOTH",
"258 360 OFFCURVE",
"278 341 OFFCURVE",
"278 304 CURVE SMOOTH",
"278 271 OFFCURVE",
"254 240 OFFCURVE",
"218 240 CURVE SMOOTH",
"201 240 OFFCURVE",
"192 248 OFFCURVE",
"192 264 CURVE SMOOTH",
"192 285 OFFCURVE",
"186 295 OFFCURVE",
"174 295 CURVE SMOOTH",
"163 295 OFFCURVE",
"158 285 OFFCURVE",
"158 265 CURVE SMOOTH",
"158 226 OFFCURVE",
"176 206 OFFCURVE",
"213 206 CURVE SMOOTH",
"243 206 OFFCURVE",
"268 216 OFFCURVE",
"287 238 CURVE SMOOTH",
"304 257 OFFCURVE",
"312 279 OFFCURVE",
"312 305 CURVE SMOOTH",
"312 330 OFFCURVE",
"304 350 OFFCURVE",
"289 367 CURVE SMOOTH",
"272 385 OFFCURVE",
"248 394 OFFCURVE",
"217 394 CURVE SMOOTH",
"161 394 OFFCURVE",
"112 368 OFFCURVE",
"69 317 CURVE SMOOTH",
"29 268 OFFCURVE",
"9 216 OFFCURVE",
"9 159 CURVE SMOOTH",
"9 106 OFFCURVE",
"23 64 OFFCURVE",
"50 32 CURVE SMOOTH",
"79 -2 OFFCURVE",
"120 -19 OFFCURVE",
"173 -19 CURVE SMOOTH"
);
}
);
width = 336;
}
);
note = c;
unicode = 0063;
},
{
glyphname = d;
lastChange = "2022-02-17 14:45:31 +0000";
layers = (
{
layerId = "769237BE-90A6-4D5E-A4C9-331744B3656A";
paths = (
{
closed = 1;
nodes = (
"459 -16 OFFCURVE",
"524 55 OFFCURVE",
"554 114 CURVE",
"555 117 OFFCURVE",
"558 128 OFFCURVE",
"558 132 CURVE SMOOTH",
"558 137 OFFCURVE",
"556 143 OFFCURVE",
"549 143 CURVE SMOOTH",
"539 143 OFFCURVE",
"526 127 OFFCURVE",
"520 117 CURVE SMOOTH",
"490 66 OFFCURVE",
"445 16 OFFCURVE",
"389 16 CURVE SMOOTH",
"342 16 OFFCURVE",
"315 54 OFFCURVE",
"311 123 CURVE",
"380 242 OFFCURVE",
"422 315 OFFCURVE",
"437 343 CURVE SMOOTH",
"493 450 OFFCURVE",
"521 526 OFFCURVE",
"521 569 CURVE SMOOTH",
"521 604 OFFCURVE",
"503 622 OFFCURVE",
"468 622 CURVE SMOOTH",
"405 622 OFFCURVE",
"350 538 OFFCURVE",
"305 370 CURVE",
"290 385 OFFCURVE",
"269 393 OFFCURVE",
"242 393 CURVE SMOOTH",
"189 393 OFFCURVE",
"137 370 OFFCURVE",
"88 324 CURVE SMOOTH",
"33 273 OFFCURVE",
"5 212 OFFCURVE",
"5 143 CURVE SMOOTH",
"5 103 OFFCURVE",
"15 69 OFFCURVE",
"35 41 CURVE SMOOTH",
"57 10 OFFCURVE",
"88 -6 OFFCURVE",
"127 -6 CURVE SMOOTH",
"185 -6 OFFCURVE",
"237 23 OFFCURVE",
"284 82 CURVE",
"297 17 OFFCURVE",
"332 -16 OFFCURVE",
"388 -16 CURVE SMOOTH"
);
},
{
closed = 1;
nodes = (
"99 28 OFFCURVE",
"76 40 OFFCURVE",
"60 64 CURVE SMOOTH",
"47 85 OFFCURVE",
"40 112 OFFCURVE",
"40 144 CURVE SMOOTH",
"40 197 OFFCURVE",
"60 245 OFFCURVE",
"100 290 CURVE SMOOTH",
"141 335 OFFCURVE",
"187 357 OFFCURVE",
"239 357 CURVE SMOOTH",
"272 357 OFFCURVE",
"291 345 OFFCURVE",
"294 320 CURVE",
"288 296 LINE SMOOTH",
"285 285 OFFCURVE",
"274 280 OFFCURVE",
"259 280 CURVE SMOOTH",
"253 280 LINE",
"250 281 OFFCURVE",
"248 281 OFFCURVE",
"247 281 CURVE SMOOTH",
"235 281 OFFCURVE",
"229 275 OFFCURVE",
"229 262 CURVE SMOOTH",
"229 251 OFFCURVE",
"238 246 OFFCURVE",
"256 246 CURVE SMOOTH",
"265 246 OFFCURVE",
"274 247 OFFCURVE",
"281 249 CURVE",
"278 220 OFFCURVE",
"276 193 OFFCURVE",
"276 167 CURVE SMOOTH",
"276 155 OFFCURVE",
"276 143 OFFCURVE",
"277 131 CURVE",
"234 62 OFFCURVE",
"184 28 OFFCURVE",
"128 28 CURVE SMOOTH"
);
},
{
closed = 1;
nodes = (
"314 253 OFFCURVE",
"324 314 OFFCURVE",
"341 376 CURVE SMOOTH",
"360 445 OFFCURVE",
"383 500 OFFCURVE",
"410 540 CURVE SMOOTH",
"433 573 OFFCURVE",
"453 589 OFFCURVE",
"470 589 CURVE SMOOTH",
"482 589 OFFCURVE",
"488 581 OFFCURVE",
"488 566 CURVE SMOOTH",
"488 562 OFFCURVE",
"488 557 OFFCURVE",
"487 552 CURVE SMOOTH",
"481 515 OFFCURVE",
"456 454 OFFCURVE",
"411 369 CURVE SMOOTH",
"394 337 OFFCURVE",
"360 279 OFFCURVE",
"311 194 CURVE"
);
}
);
width = 520;
}
);
note = d;
unicode = 0064;
},
{
glyphname = eth;
lastChange = "2022-02-17 14:45:31 +0000";
layers = (
{
layerId = "769237BE-90A6-4D5E-A4C9-331744B3656A";
paths = (
{
closed = 1;
nodes = (
"186 -1 OFFCURVE",
"200 1 OFFCURVE",
"215 6 CURVE SMOOTH",
"275 26 OFFCURVE",
"326 64 OFFCURVE",
"367 119 CURVE SMOOTH",
"408 174 OFFCURVE",
"433 236 OFFCURVE",
"440 303 CURVE SMOOTH",
"442 327 OFFCURVE",
"444 352 OFFCURVE",
"444 377 CURVE SMOOTH",
"444 450 OFFCURVE",
"431 522 OFFCURVE",
"399 573 CURVE",
"415 580 OFFCURVE",
"427 586 OFFCURVE",
"437 591 CURVE SMOOTH",
"448 597 OFFCURVE",
"460 610 OFFCURVE",
"460 623 CURVE SMOOTH",
"460 627 OFFCURVE",
"459 630 OFFCURVE",
"457 634 CURVE SMOOTH",
"454 641 OFFCURVE",
"450 644 OFFCURVE",
"444 644 CURVE SMOOTH",
"442 644 OFFCURVE",
"438 643 OFFCURVE",
"435 641 CURVE SMOOTH",
"429 638 OFFCURVE",
"427 623 OFFCURVE",
"420 620 CURVE SMOOTH",
"410 614 OFFCURVE",
"396 608 OFFCURVE",
"379 600 CURVE",
"351 629 OFFCURVE",
"313 647 OFFCURVE",
"263 647 CURVE SMOOTH",
"242 647 OFFCURVE",
"218 644 OFFCURVE",
"192 637 CURVE SMOOTH",
"178 633 OFFCURVE",
"165 628 OFFCURVE",
"152 622 CURVE SMOOTH",
"131 612 OFFCURVE",
"123 603 OFFCURVE",
"123 596 CURVE SMOOTH",
"123 588 OFFCURVE",
"128 580 OFFCURVE",
"134 580 CURVE SMOOTH",
"136 580 LINE",
"146 583 OFFCURVE",
"172 598 OFFCURVE",
"197 605 CURVE SMOOTH",
"218 611 OFFCURVE",
"236 613 OFFCURVE",
"253 613 CURVE SMOOTH",
"288 613 OFFCURVE",
"315 602 OFFCURVE",
"337 584 CURVE",
"311 574 OFFCURVE",
"293 566 OFFCURVE",
"280 559 CURVE SMOOTH",
"267 552 OFFCURVE",
"256 545 OFFCURVE",
"246 537 CURVE SMOOTH",
"242 533 OFFCURVE",
"239 529 OFFCURVE",
"239 524 CURVE SMOOTH",
"239 522 OFFCURVE",
"240 518 OFFCURVE",
"242 515 CURVE SMOOTH",
"245 508 OFFCURVE",
"249 505 OFFCURVE",
"254 505 CURVE SMOOTH",
"257 505 OFFCURVE",
"260 506 OFFCURVE",
"263 508 CURVE SMOOTH",
"271 512 OFFCURVE",
"291 527 OFFCURVE",
"299 532 CURVE",
"360 558 LINE",
"393 511 OFFCURVE",
"405 441 OFFCURVE",
"408 374 CURVE",
"400 406 OFFCURVE",
"360 422 OFFCURVE",
"319 422 CURVE SMOOTH",
"303 422 OFFCURVE",
"286 419 OFFCURVE",
"271 414 CURVE SMOOTH",
"222 398 OFFCURVE",
"180 369 OFFCURVE",
"143 326 CURVE SMOOTH",
"101 277 OFFCURVE",
"77 221 OFFCURVE",
"70 159 CURVE SMOOTH",
"69 151 OFFCURVE",
"69 143 OFFCURVE",
"69 135 CURVE SMOOTH",
"69 61 OFFCURVE",
"107 -1 OFFCURVE",
"174 -1 CURVE SMOOTH"
);
},
{
closed = 1;
nodes = (
"133 36 OFFCURVE",
"106 93 OFFCURVE",
"106 153 CURVE SMOOTH",
"106 210 OFFCURVE",
"128 260 OFFCURVE",
"166 305 CURVE SMOOTH",
"196 340 OFFCURVE",
"230 365 OFFCURVE",
"272 378 CURVE SMOOTH",
"289 384 OFFCURVE",
"305 387 OFFCURVE",
"320 387 CURVE SMOOTH",
"337 387 OFFCURVE",
"352 383 OFFCURVE",
"365 374 CURVE SMOOTH",
"387 358 OFFCURVE",
"397 333 OFFCURVE",
"397 298 CURVE SMOOTH",
"397 291 OFFCURVE",
"397 284 OFFCURVE",
"396 276 CURVE SMOOTH",
"396 267 OFFCURVE",
"389 242 OFFCURVE",
"388 233 CURVE SMOOTH",
"388 230 LINE",
"377 196 OFFCURVE",
"362 163 OFFCURVE",
"340 133 CURVE SMOOTH",
"308 88 OFFCURVE",
"267 58 OFFCURVE",
"216 41 CURVE SMOOTH",
"206 38 OFFCURVE",
"196 36 OFFCURVE",
"187 36 CURVE SMOOTH"
);
}
);
width = 483;
}
);
note = eth;
unicode = 00F0;
},
{
glyphname = e;
lastChange = "2022-02-17 14:45:31 +0000";
layers = (
{
layerId = "769237BE-90A6-4D5E-A4C9-331744B3656A";
paths = (
{
closed = 1;
nodes = (
"245 -13 OFFCURVE",
"321 36 OFFCURVE",
"367 114 CURVE",
"368 117 OFFCURVE",
"371 122 OFFCURVE",
"371 131 CURVE SMOOTH",
"371 140 OFFCURVE",
"366 143 OFFCURVE",
"361 143 CURVE SMOOTH",
"350 143 OFFCURVE",
"343 133 OFFCURVE",
"333 117 CURVE SMOOTH",
"292 53 OFFCURVE",
"233 18 OFFCURVE",
"164 18 CURVE SMOOTH",
"85 18 OFFCURVE",
"43 75 OFFCURVE",
"43 156 CURVE SMOOTH",
"43 171 OFFCURVE",
"45 186 OFFCURVE",
"48 201 CURVE",
"66 194 OFFCURVE",
"88 191 OFFCURVE",
"115 191 CURVE SMOOTH",
"166 191 OFFCURVE",
"211 202 OFFCURVE",
"250 223 CURVE SMOOTH",
"295 248 OFFCURVE",
"318 280 OFFCURVE",
"318 321 CURVE SMOOTH",
"318 372 OFFCURVE",
"281 400 OFFCURVE",
"226 400 CURVE SMOOTH",
"174 400 OFFCURVE",
"126 379 OFFCURVE",
"83 338 CURVE SMOOTH",
"33 291 OFFCURVE",
"8 231 OFFCURVE",
"8 156 CURVE SMOOTH",
"8 56 OFFCURVE",
"65 -13 OFFCURVE",
"165 -13 CURVE SMOOTH"
);
},
{
closed = 1;
nodes = (
"90 225 OFFCURVE",
"72 228 OFFCURVE",
"57 234 CURVE",
"72 271 OFFCURVE",
"93 301 OFFCURVE",
"121 325 CURVE SMOOTH",
"152 352 OFFCURVE",
"186 366 OFFCURVE",
"223 366 CURVE SMOOTH",
"264 366 OFFCURVE",
"284 352 OFFCURVE",
"284 323 CURVE SMOOTH",
"284 293 OFFCURVE",
"265 269 OFFCURVE",
"226 250 CURVE SMOOTH",
"192 233 OFFCURVE",
"154 225 OFFCURVE",
"112 225 CURVE SMOOTH"
);
}
);
width = 333;
}
);
note = e;
unicode = 0065;
},
{
glyphname = schwa;
lastChange = "2022-02-17 14:45:31 +0000";
layers = (
{
layerId = "769237BE-90A6-4D5E-A4C9-331744B3656A";
paths = (
{
closed = 1;
nodes = (
"245 -1 OFFCURVE",
"293 20 OFFCURVE",
"336 61 CURVE SMOOTH",
"386 108 OFFCURVE",
"411 168 OFFCURVE",
"411 243 CURVE SMOOTH",
"411 343 OFFCURVE",
"354 412 OFFCURVE",
"277 412 CURVE SMOOTH",
"136 412 OFFCURVE",
"47 197 OFFCURVE",
"1 118 CURVE",
"0 115 OFFCURVE",
"-3 110 OFFCURVE",
"-3 101 CURVE SMOOTH",
"-3 92 OFFCURVE",
"2 89 OFFCURVE",
"7 89 CURVE SMOOTH",
"18 89 OFFCURVE",
"23 96 OFFCURVE",
"26 101 CURVE SMOOTH",
"76 184 OFFCURVE",
"159 381 OFFCURVE",
"276 381 CURVE SMOOTH",
"334 381 OFFCURVE",
"376 324 OFFCURVE",
"376 243 CURVE SMOOTH",
"376 228 OFFCURVE",
"374 213 OFFCURVE",
"371 198 CURVE",
"353 205 OFFCURVE",
"331 208 OFFCURVE",
"304 208 CURVE SMOOTH",
"253 208 OFFCURVE",
"208 197 OFFCURVE",
"169 176 CURVE SMOOTH",
"124 151 OFFCURVE",
"101 119 OFFCURVE",
"101 78 CURVE SMOOTH",
"101 27 OFFCURVE",
"138 -1 OFFCURVE",
"193 -1 CURVE SMOOTH"
);
},
{
closed = 1;
nodes = (
"155 33 OFFCURVE",
"135 47 OFFCURVE",
"135 76 CURVE SMOOTH",
"135 106 OFFCURVE",
"154 130 OFFCURVE",
"193 149 CURVE SMOOTH",
"227 166 OFFCURVE",
"265 174 OFFCURVE",
"307 174 CURVE SMOOTH",
"329 174 OFFCURVE",
"347 171 OFFCURVE",
"362 165 CURVE",
"347 128 OFFCURVE",
"326 98 OFFCURVE",
"298 74 CURVE SMOOTH",
"267 47 OFFCURVE",
"233 33 OFFCURVE",
"196 33 CURVE SMOOTH"
);
}
);
width = 436;
}
);
unicode = 0259;
},
{
glyphname = f;
lastChange = "2022-02-17 14:45:31 +0000";
layers = (
{
layerId = "769237BE-90A6-4D5E-A4C9-331744B3656A";
paths = (
{
closed = 1;
nodes = (
"85 -290 OFFCURVE",
"106 -276 OFFCURVE",
"124 -249 CURVE SMOOTH",
"145 -217 OFFCURVE",
"155 -177 OFFCURVE",
"155 -126 CURVE SMOOTH",
"155 -84 OFFCURVE",
"148 -49 OFFCURVE",
"135 -22 CURVE",
"218 -3 OFFCURVE",
"282 37 OFFCURVE",
"325 114 CURVE SMOOTH",
"327 117 OFFCURVE",
"328 124 OFFCURVE",
"328 130 CURVE SMOOTH",
"328 137 OFFCURVE",
"325 142 OFFCURVE",
"318 142 CURVE SMOOTH",
"311 142 OFFCURVE",
"298 129 OFFCURVE",
"291 117 CURVE SMOOTH",
"256 58 OFFCURVE",
"187 16 OFFCURVE",
"122 3 CURVE",
"92 38 OFFCURVE",
"63 55 OFFCURVE",
"30 58 CURVE",
"41 124 LINE",
"111 153 OFFCURVE",
"184 249 OFFCURVE",
"260 410 CURVE SMOOTH",
"311 519 OFFCURVE",
"337 601 OFFCURVE",
"337 654 CURVE SMOOTH",
"337 695 OFFCURVE",
"320 716 OFFCURVE",
"287 716 CURVE SMOOTH",
"221 716 OFFCURVE",
"155 620 OFFCURVE",
"89 427 CURVE SMOOTH",
"46 299 OFFCURVE",
"14 174 OFFCURVE",
"-7 51 CURVE",
"-20 43 OFFCURVE",
"-26 33 OFFCURVE",
"-26 20 CURVE SMOOTH",
"-26 9 OFFCURVE",
"-22 0 OFFCURVE",
"-14 -8 CURVE",
"-19 -49 OFFCURVE",
"-21 -86 OFFCURVE",
"-21 -118 CURVE SMOOTH",
"-21 -175 OFFCURVE",
"-12 -218 OFFCURVE",
"5 -249 CURVE SMOOTH",
"20 -276 OFFCURVE",
"39 -290 OFFCURVE",
"62 -290 CURVE SMOOTH"
);
},
{
closed = 1;
nodes = (
"53 -257 OFFCURVE",
"41 -248 OFFCURVE",
"31 -227 CURVE SMOOTH",
"19 -202 OFFCURVE",
"13 -164 OFFCURVE",
"13 -113 CURVE SMOOTH",
"13 -86 OFFCURVE",
"15 -57 OFFCURVE",
"18 -26 CURVE",
"31 -29 OFFCURVE",
"45 -31 OFFCURVE",
"61 -31 CURVE SMOOTH",
"73 -31 OFFCURVE",
"86 -30 OFFCURVE",
"99 -28 CURVE",
"114 -52 OFFCURVE",
"121 -86 OFFCURVE",
"121 -131 CURVE SMOOTH",
"121 -203 OFFCURVE",
"94 -252 OFFCURVE",
"66 -256 CURVE SMOOTH"
);
},
{
closed = 1;
nodes = (
"78 276 OFFCURVE",
"108 375 OFFCURVE",
"143 467 CURVE SMOOTH",
"170 541 OFFCURVE",
"198 598 OFFCURVE",
"226 638 CURVE SMOOTH",
"249 671 OFFCURVE",
"267 688 OFFCURVE",
"282 688 CURVE SMOOTH",
"294 688 OFFCURVE",
"300 675 OFFCURVE",
"300 648 CURVE SMOOTH",
"300 593 OFFCURVE",
"275 516 OFFCURVE",
"224 417 CURVE SMOOTH",
"163 299 OFFCURVE",
"105 217 OFFCURVE",
"51 170 CURVE"
);
}
);
width = 291;
}
);
note = f;
unicode = 0066;
},
{
glyphname = g;
lastChange = "2022-02-17 14:45:31 +0000";
layers = (
{
layerId = "769237BE-90A6-4D5E-A4C9-331744B3656A";
paths = (
{
closed = 1;
nodes = (
"72 -270 OFFCURVE",
"103 -261 OFFCURVE",
"130 -243 CURVE SMOOTH",
"201 -198 OFFCURVE",
"255 -130 OFFCURVE",
"299 -32 CURVE",
"365 9 OFFCURVE",
"420 64 OFFCURVE",
"452 114 CURVE SMOOTH",
"457 122 OFFCURVE",
"457 128 OFFCURVE",
"457 135 CURVE SMOOTH",
"457 143 OFFCURVE",
"452 146 OFFCURVE",
"446 146 CURVE SMOOTH",
"436 146 OFFCURVE",
"422 124 OFFCURVE",
"418 118 CURVE SMOOTH",
"370 53 OFFCURVE",
"340 33 OFFCURVE",
"313 13 CURVE",
"336 109 OFFCURVE",
"353 180 OFFCURVE",
"362 227 CURVE SMOOTH",
"372 279 LINE",
"372 290 OFFCURVE",
"366 296 OFFCURVE",
"353 296 CURVE SMOOTH",
"347 296 OFFCURVE",
"343 293 OFFCURVE",
"340 288 CURVE SMOOTH",
"329 264 OFFCURVE",
"322 245 OFFCURVE",
"319 232 CURVE",
"296 173 OFFCURVE",
"271 128 OFFCURVE",
"243 95 CURVE SMOOTH",
"204 50 OFFCURVE",
"162 27 OFFCURVE",
"117 27 CURVE SMOOTH",
"69 27 OFFCURVE",
"45 59 OFFCURVE",
"45 122 CURVE SMOOTH",
"45 174 OFFCURVE",
"63 222 OFFCURVE",
"99 266 CURVE SMOOTH",
"138 313 OFFCURVE",
"182 336 OFFCURVE",
"232 336 CURVE SMOOTH",
"277 336 OFFCURVE",
"299 320 OFFCURVE",
"299 287 CURVE SMOOTH",
"299 262 OFFCURVE",
"278 239 OFFCURVE",
"247 239 CURVE SMOOTH",
"228 239 OFFCURVE",
"218 233 OFFCURVE",
"218 221 CURVE SMOOTH",
"218 210 OFFCURVE",
"228 204 OFFCURVE",
"247 204 CURVE SMOOTH",
"298 204 OFFCURVE",
"331 243 OFFCURVE",
"331 287 CURVE SMOOTH",
"331 332 OFFCURVE",
"295 370 OFFCURVE",
"230 370 CURVE SMOOTH",
"171 370 OFFCURVE",
"120 343 OFFCURVE",
"75 289 CURVE SMOOTH",
"32 238 OFFCURVE",
"11 182 OFFCURVE",
"11 123 CURVE SMOOTH",
"11 80 OFFCURVE",
"21 47 OFFCURVE",
"42 24 CURVE SMOOTH",
"61 4 OFFCURVE",
"85 -6 OFFCURVE",
"116 -6 CURVE SMOOTH",
"160 -6 OFFCURVE",
"202 11 OFFCURVE",
"241 46 CURVE SMOOTH",
"264 66 OFFCURVE",
"286 92 OFFCURVE",
"305 123 CURVE",
"292 65 OFFCURVE",
"279 18 OFFCURVE",
"266 -19 CURVE",
"195 -56 OFFCURVE",
"140 -83 OFFCURVE",
"103 -99 CURVE",
"22 -142 OFFCURVE",
"-18 -182 OFFCURVE",
"-18 -220 CURVE SMOOTH",
"-18 -253 OFFCURVE",
"1 -270 OFFCURVE",
"39 -270 CURVE SMOOTH"
);
},
{
closed = 1;
nodes = (
"28 -243 OFFCURVE",
"20 -236 OFFCURVE",
"20 -222 CURVE SMOOTH",
"20 -193 OFFCURVE",
"50 -163 OFFCURVE",
"112 -131 CURVE SMOOTH",
"169 -104 OFFCURVE",
"211 -85 OFFCURVE",
"240 -72 CURVE",
"204 -138 OFFCURVE",
"160 -187 OFFCURVE",
"107 -220 CURVE SMOOTH",
"82 -235 OFFCURVE",
"61 -243 OFFCURVE",
"45 -243 CURVE SMOOTH"
);
}
);
width = 418;
}
);
note = g;
unicode = 0067;
},
{
glyphname = h;
lastChange = "2022-02-17 14:45:31 +0000";
layers = (
{
layerId = "769237BE-90A6-4D5E-A4C9-331744B3656A";
paths = (
{
closed = 1;
nodes = (
"378 -9 OFFCURVE",
"446 29 OFFCURVE",
"493 114 CURVE SMOOTH",
"496 119 OFFCURVE",
"497 125 OFFCURVE",
"497 130 CURVE SMOOTH",
"497 137 OFFCURVE",
"492 143 OFFCURVE",
"486 143 CURVE SMOOTH",
"473 143 OFFCURVE",
"470 135 OFFCURVE",
"459 117 CURVE SMOOTH",
"423 60 OFFCURVE",
"385 23 OFFCURVE",
"323 23 CURVE SMOOTH",
"281 23 OFFCURVE",
"263 42 OFFCURVE",
"263 80 CURVE SMOOTH",
"263 124 OFFCURVE",
"306 213 OFFCURVE",
"319 246 CURVE SMOOTH",
"334 283 OFFCURVE",
"341 313 OFFCURVE",
"341 338 CURVE SMOOTH",
"341 383 OFFCURVE",
"316 406 OFFCURVE",
"267 406 CURVE SMOOTH",
"207 406 OFFCURVE",
"144 349 OFFCURVE",
"78 235 CURVE",
"94 287 OFFCURVE",
"111 338 OFFCURVE",
"130 387 CURVE",
"171 386 OFFCURVE",
"213 406 OFFCURVE",
"256 445 CURVE SMOOTH",
"294 480 OFFCURVE",
"324 522 OFFCURVE",
"345 570 CURVE SMOOTH",
"359 602 OFFCURVE",
"366 632 OFFCURVE",
"366 661 CURVE SMOOTH",
"366 681 OFFCURVE",
"362 698 OFFCURVE",
"354 712 CURVE SMOOTH",
"345 730 OFFCURVE",
"331 739 OFFCURVE",
"313 739 CURVE SMOOTH",
"283 739 OFFCURVE",
"251 714 OFFCURVE",
"218 664 CURVE SMOOTH",
"197 633 OFFCURVE",
"177 594 OFFCURVE",
"157 547 CURVE SMOOTH",
"155 543 OFFCURVE",
"138 502 OFFCURVE",
"107 424 CURVE",
"97 433 OFFCURVE",
"90 440 OFFCURVE",
"86 446 CURVE SMOOTH",
"80 453 OFFCURVE",
"75 457 OFFCURVE",
"70 457 CURVE SMOOTH",
"59 457 OFFCURVE",
"53 452 OFFCURVE",
"53 441 CURVE SMOOTH",
"53 422 OFFCURVE",
"76 401 OFFCURVE",
"97 393 CURVE",
"49 250 OFFCURVE",
"14 142 OFFCURVE",
"-9 70 CURVE SMOOTH",
"-18 38 OFFCURVE",
"-23 21 OFFCURVE",
"-23 18 CURVE SMOOTH",
"-23 7 OFFCURVE",
"-17 1 OFFCURVE",
"-4 1 CURVE SMOOTH",
"1 1 OFFCURVE",
"5 4 OFFCURVE",
"8 9 CURVE SMOOTH",
"21 38 OFFCURVE",
"31 60 OFFCURVE",
"37 75 CURVE SMOOTH",
"123 273 OFFCURVE",
"199 372 OFFCURVE",
"266 372 CURVE SMOOTH",
"291 372 OFFCURVE",
"304 359 OFFCURVE",
"304 333 CURVE SMOOTH",
"304 325 OFFCURVE",
"303 315 OFFCURVE",
"300 304 CURVE SMOOTH",
"275 232 OFFCURVE",
"226 133 OFFCURVE",
"226 74 CURVE SMOOTH",
"226 19 OFFCURVE",
"257 -9 OFFCURVE",
"320 -9 CURVE SMOOTH"
);
},
{
closed = 1;
nodes = (
"183 524 OFFCURVE",
"218 598 OFFCURVE",
"248 644 CURVE SMOOTH",
"273 683 OFFCURVE",
"294 702 OFFCURVE",
"309 702 CURVE SMOOTH",
"322 702 OFFCURVE",
"328 690 OFFCURVE",
"328 665 CURVE SMOOTH",
"328 638 OFFCURVE",
"320 608 OFFCURVE",
"305 575 CURVE SMOOTH",
"287 538 OFFCURVE",
"264 505 OFFCURVE",
"237 478 CURVE SMOOTH",
"207 447 OFFCURVE",
"176 428 OFFCURVE",
"143 421 CURVE"
);
}
);
width = 459;
}
);
note = h;
unicode = 0068;
},
{
glyphname = i;
lastChange = "2022-02-17 14:45:31 +0000";
layers = (
{
layerId = "769237BE-90A6-4D5E-A4C9-331744B3656A";
paths = (
{
closed = 1;
nodes = (
"158 -7 OFFCURVE",
"213 46 OFFCURVE",
"251 114 CURVE SMOOTH",
"256 124 OFFCURVE",
"259 131 OFFCURVE",
"259 136 CURVE SMOOTH",
"259 143 OFFCURVE",
"255 146 OFFCURVE",
"246 146 CURVE SMOOTH",
"238 146 OFFCURVE",
"231 140 OFFCURVE",
"217 117 CURVE SMOOTH",
"184 66 OFFCURVE",
"144 27 OFFCURVE",
"95 27 CURVE SMOOTH",
"67 27 OFFCURVE",
"45 52 OFFCURVE",
"45 83 CURVE SMOOTH",
"45 108 OFFCURVE",
"56 145 OFFCURVE",
"79 196 CURVE SMOOTH",
"102 247 OFFCURVE",
"113 284 OFFCURVE",
"113 307 CURVE SMOOTH",
"113 324 OFFCURVE",
"107 333 OFFCURVE",
"96 333 CURVE SMOOTH",
"85 333 OFFCURVE",
"79 328 OFFCURVE",
"79 317 CURVE SMOOTH",
"79 288 OFFCURVE",
"68 249 OFFCURVE",
"45 199 CURVE SMOOTH",
"22 149 OFFCURVE",
"11 109 OFFCURVE",
"11 80 CURVE SMOOTH",
"11 31 OFFCURVE",
"46 -7 OFFCURVE",
"91 -7 CURVE SMOOTH"
);
},
{
closed = 1;
nodes = (
"159 396 OFFCURVE",
"171 408 OFFCURVE",
"171 431 CURVE SMOOTH",
"171 454 OFFCURVE",
"159 466 OFFCURVE",
"136 466 CURVE SMOOTH",
"113 466 OFFCURVE",
"101 454 OFFCURVE",
"101 431 CURVE SMOOTH",
"101 408 OFFCURVE",
"113 396 OFFCURVE",
"136 396 CURVE SMOOTH"
);
}
);
width = 217;
}
);
note = i;
unicode = 0069;
},
{
color = 11;
glyphname = idotless;
lastChange = "2022-02-17 14:45:31 +0000";
layers = (
{
layerId = "769237BE-90A6-4D5E-A4C9-331744B3656A";
paths = (
{
closed = 1;
nodes = (
"158 -7 OFFCURVE",
"213 46 OFFCURVE",
"251 114 CURVE SMOOTH",
"256 124 OFFCURVE",
"259 131 OFFCURVE",
"259 136 CURVE SMOOTH",
"259 143 OFFCURVE",
"255 146 OFFCURVE",
"246 146 CURVE SMOOTH",
"238 146 OFFCURVE",
"231 140 OFFCURVE",
"217 117 CURVE SMOOTH",
"184 66 OFFCURVE",
"144 27 OFFCURVE",
"95 27 CURVE SMOOTH",
"67 27 OFFCURVE",
"45 52 OFFCURVE",
"45 83 CURVE SMOOTH",
"45 108 OFFCURVE",
"56 145 OFFCURVE",
"79 196 CURVE SMOOTH",
"102 247 OFFCURVE",
"113 284 OFFCURVE",
"113 307 CURVE SMOOTH",
"113 324 OFFCURVE",
"107 333 OFFCURVE",
"96 333 CURVE SMOOTH",
"85 333 OFFCURVE",
"79 328 OFFCURVE",
"79 317 CURVE SMOOTH",
"79 288 OFFCURVE",
"68 249 OFFCURVE",
"45 199 CURVE SMOOTH",
"22 149 OFFCURVE",
"11 109 OFFCURVE",
"11 80 CURVE SMOOTH",
"11 31 OFFCURVE",
"46 -7 OFFCURVE",
"91 -7 CURVE SMOOTH"
);
}
);
width = 217;
}
);
unicode = 0131;
},
{
glyphname = j;
lastChange = "2022-02-17 14:45:31 +0000";
layers = (
{
layerId = "769237BE-90A6-4D5E-A4C9-331744B3656A";
paths = (
{
closed = 1;
nodes = (
"-175 -236 OFFCURVE",
"-128 -212 OFFCURVE",
"-80 -166 CURVE SMOOTH",
"-45 -134 OFFCURVE",
"-16 -95 OFFCURVE",
"9 -49 CURVE",
"120 -20 OFFCURVE",
"181 36 OFFCURVE",
"224 114 CURVE SMOOTH",
"227 119 OFFCURVE",
"228 125 OFFCURVE",
"228 130 CURVE SMOOTH",
"228 138 OFFCURVE",
"219 140 OFFCURVE",
"214 140 CURVE SMOOTH",
"207 140 OFFCURVE",
"197 129 OFFCURVE",
"190 117 CURVE SMOOTH",
"174 91 OFFCURVE",
"151 62 OFFCURVE",
"130 43 CURVE SMOOTH",
"106 22 OFFCURVE",
"73 5 OFFCURVE",
"30 -8 CURVE",
"52 39 OFFCURVE",
"73 98 OFFCURVE",
"94 169 CURVE SMOOTH",
"116 247 OFFCURVE",
"127 305 OFFCURVE",
"127 344 CURVE SMOOTH",
"127 359 OFFCURVE",
"121 367 OFFCURVE",
"110 367 CURVE SMOOTH",
"97 367 OFFCURVE",
"90 361 OFFCURVE",
"90 350 CURVE SMOOTH",
"90 312 OFFCURVE",
"78 252 OFFCURVE",
"55 169 CURVE SMOOTH",
"32 86 OFFCURVE",
"9 23 OFFCURVE",
"-13 -21 CURVE",
"-153 -46 LINE",
"-205 -58 OFFCURVE",
"-244 -76 OFFCURVE",
"-271 -101 CURVE SMOOTH",
"-294 -122 OFFCURVE",
"-305 -145 OFFCURVE",
"-305 -170 CURVE SMOOTH",
"-305 -209 OFFCURVE",
"-271 -236 OFFCURVE",
"-221 -236 CURVE SMOOTH"
);
},
{
closed = 1;
nodes = (
"-252 -201 OFFCURVE",
"-265 -191 OFFCURVE",
"-265 -170 CURVE SMOOTH",
"-265 -127 OFFCURVE",
"-226 -97 OFFCURVE",
"-147 -79 CURVE SMOOTH",
"-96 -70 OFFCURVE",
"-59 -63 OFFCURVE",
"-36 -60 CURVE",
"-98 -155 OFFCURVE",
"-160 -201 OFFCURVE",
"-225 -201 CURVE SMOOTH"
);
},
{
closed = 1;
nodes = (
"142 433 OFFCURVE",
"154 445 OFFCURVE",
"154 468 CURVE SMOOTH",
"154 491 OFFCURVE",
"142 503 OFFCURVE",
"119 503 CURVE SMOOTH",
"96 503 OFFCURVE",
"84 491 OFFCURVE",
"84 468 CURVE SMOOTH",
"84 445 OFFCURVE",
"96 433 OFFCURVE",
"119 433 CURVE SMOOTH"
);
}
);
width = 190;
}
);
note = j;
unicode = 006A;
},
{
color = 11;
glyphname = jdotless;
lastChange = "2022-02-17 14:45:31 +0000";
layers = (
{
layerId = "769237BE-90A6-4D5E-A4C9-331744B3656A";
paths = (
{
closed = 1;
nodes = (
"-175 -236 OFFCURVE",
"-128 -212 OFFCURVE",
"-80 -166 CURVE SMOOTH",
"-45 -134 OFFCURVE",
"-16 -95 OFFCURVE",
"9 -49 CURVE",
"120 -20 OFFCURVE",
"181 36 OFFCURVE",
"224 114 CURVE SMOOTH",
"227 119 OFFCURVE",
"228 125 OFFCURVE",
"228 130 CURVE SMOOTH",
"228 138 OFFCURVE",
"219 140 OFFCURVE",
"214 140 CURVE SMOOTH",
"207 140 OFFCURVE",
"197 129 OFFCURVE",
"190 117 CURVE SMOOTH",
"174 91 OFFCURVE",
"151 62 OFFCURVE",
"130 43 CURVE SMOOTH",
"106 22 OFFCURVE",
"73 5 OFFCURVE",
"30 -8 CURVE",
"52 39 OFFCURVE",
"73 98 OFFCURVE",
"94 169 CURVE SMOOTH",
"116 247 OFFCURVE",
"127 305 OFFCURVE",
"127 344 CURVE SMOOTH",
"127 359 OFFCURVE",
"121 367 OFFCURVE",
"110 367 CURVE SMOOTH",
"97 367 OFFCURVE",
"90 361 OFFCURVE",
"90 350 CURVE SMOOTH",
"90 312 OFFCURVE",
"78 252 OFFCURVE",
"55 169 CURVE SMOOTH",
"32 86 OFFCURVE",
"9 23 OFFCURVE",
"-13 -21 CURVE",
"-153 -46 LINE",
"-205 -58 OFFCURVE",
"-244 -76 OFFCURVE",
"-271 -101 CURVE SMOOTH",
"-294 -122 OFFCURVE",
"-305 -145 OFFCURVE",
"-305 -170 CURVE SMOOTH",
"-305 -209 OFFCURVE",
"-271 -236 OFFCURVE",
"-221 -236 CURVE SMOOTH"
);
},
{
closed = 1;
nodes = (
"-252 -201 OFFCURVE",
"-265 -191 OFFCURVE",
"-265 -170 CURVE SMOOTH",
"-265 -127 OFFCURVE",
"-226 -97 OFFCURVE",
"-147 -79 CURVE SMOOTH",
"-96 -70 OFFCURVE",
"-59 -63 OFFCURVE",
"-36 -60 CURVE",
"-98 -155 OFFCURVE",
"-160 -201 OFFCURVE",
"-225 -201 CURVE SMOOTH"
);
}
);
width = 190;
}
);
unicode = 0237;
},
{
glyphname = k;
lastChange = "2022-02-17 14:45:31 +0000";
layers = (
{
layerId = "769237BE-90A6-4D5E-A4C9-331744B3656A";
paths = (
{
closed = 1;
nodes = (
"322 -11 OFFCURVE",
"371 57 OFFCURVE",
"401 114 CURVE SMOOTH",
"402 116 OFFCURVE",
"403 124 OFFCURVE",
"403 127 CURVE SMOOTH",
"403 134 OFFCURVE",
"400 140 OFFCURVE",
"392 140 CURVE SMOOTH",
"384 140 OFFCURVE",
"372 124 OFFCURVE",
"367 117 CURVE SMOOTH",
"330 62 OFFCURVE",
"307 24 OFFCURVE",
"246 24 CURVE SMOOTH",
"208 24 OFFCURVE",
"179 43 OFFCURVE",
"159 81 CURVE SMOOTH",
"143 113 OFFCURVE",
"136 150 OFFCURVE",
"138 192 CURVE",
"151 188 OFFCURVE",
"166 186 OFFCURVE",
"181 186 CURVE SMOOTH",
"224 186 OFFCURVE",
"263 198 OFFCURVE",
"296 223 CURVE SMOOTH",
"333 250 OFFCURVE",
"351 283 OFFCURVE",
"351 324 CURVE SMOOTH",
"351 367 OFFCURVE",
"325 398 OFFCURVE",
"282 398 CURVE SMOOTH",
"258 398 OFFCURVE",
"231 389 OFFCURVE",
"202 371 CURVE SMOOTH",
"155 342 OFFCURVE",
"111 284 OFFCURVE",
"71 199 CURVE",
"88 260 OFFCURVE",
"108 323 OFFCURVE",
"133 387 CURVE",
"140 386 OFFCURVE",
"146 386 OFFCURVE",
"153 386 CURVE SMOOTH",
"194 386 OFFCURVE",
"234 403 OFFCURVE",
"271 437 CURVE SMOOTH",
"304 466 OFFCURVE",
"331 504 OFFCURVE",
"352 550 CURVE SMOOTH",
"372 594 OFFCURVE",
"382 633 OFFCURVE",
"382 667 CURVE SMOOTH",
"382 713 OFFCURVE",
"366 736 OFFCURVE",
"333 736 CURVE SMOOTH",
"286 736 OFFCURVE",
"236 687 OFFCURVE",
"183 588 CURVE",
"150 518 OFFCURVE",
"127 466 OFFCURVE",
"114 433 CURVE",
"105 449 OFFCURVE",
"97 457 OFFCURVE",
"91 457 CURVE SMOOTH",
"79 457 OFFCURVE",
"73 451 OFFCURVE",
"73 440 CURVE SMOOTH",
"73 424 OFFCURVE",
"82 410 OFFCURVE",
"101 399 CURVE",
"33 224 OFFCURVE",
"-1 95 OFFCURVE",
"-1 12 CURVE SMOOTH",
"-1 1 OFFCURVE",
"5 -5 OFFCURVE",
"18 -5 CURVE SMOOTH",
"24 -5 OFFCURVE",
"28 -2 OFFCURVE",
"31 4 CURVE SMOOTH",
"43 34 OFFCURVE",
"51 57 OFFCURVE",
"56 73 CURVE SMOOTH",
"69 109 OFFCURVE",
"85 147 OFFCURVE",
"104 188 CURVE",
"103 137 OFFCURVE",
"113 93 OFFCURVE",
"134 56 CURVE SMOOTH",
"160 11 OFFCURVE",
"197 -11 OFFCURVE",
"246 -11 CURVE SMOOTH"
);
},
{
closed = 1;
nodes = (
"152 219 OFFCURVE",
"138 223 OFFCURVE",
"129 230 CURVE",
"156 279 OFFCURVE",
"186 316 OFFCURVE",
"221 340 CURVE SMOOTH",
"244 356 OFFCURVE",
"264 364 OFFCURVE",
"280 364 CURVE SMOOTH",
"304 364 OFFCURVE",
"315 350 OFFCURVE",
"314 322 CURVE SMOOTH",
"312 291 OFFCURVE",
"295 265 OFFCURVE",
"262 245 CURVE SMOOTH",
"234 228 OFFCURVE",
"204 219 OFFCURVE",
"171 219 CURVE SMOOTH"
);
},
{
closed = 1;
nodes = (
"165 469 OFFCURVE",
"188 518 OFFCURVE",
"214 568 CURVE SMOOTH",
"261 657 OFFCURVE",
"300 701 OFFCURVE",
"329 701 CURVE SMOOTH",
"341 701 OFFCURVE",
"347 689 OFFCURVE",
"347 666 CURVE SMOOTH",
"347 635 OFFCURVE",
"337 598 OFFCURVE",
"316 555 CURVE SMOOTH",
"273 466 OFFCURVE",
"216 421 OFFCURVE",
"145 420 CURVE"
);
}
);
width = 367;
}
);
note = k;
unicode = 006B;
},
{
glyphname = kgreenlandic;
lastChange = "2022-02-17 14:45:31 +0000";
layers = (
{
layerId = "769237BE-90A6-4D5E-A4C9-331744B3656A";
paths = (
{
closed = 1;
nodes = (
"323 -11 OFFCURVE",
"363 43 OFFCURVE",
"402 116 CURVE SMOOTH",
"403 118 OFFCURVE",
"403 120 OFFCURVE",
"403 123 CURVE SMOOTH",
"403 134 OFFCURVE",
"402 142 OFFCURVE",
"391 142 CURVE SMOOTH",
"385 142 OFFCURVE",
"371 124 OFFCURVE",
"367 117 CURVE SMOOTH",
"344 79 OFFCURVE",
"309 24 OFFCURVE",
"246 24 CURVE SMOOTH",
"163 24 OFFCURVE",
"135 139 OFFCURVE",
"126 221 CURVE",
"169 262 OFFCURVE",
"293 364 OFFCURVE",
"339 364 CURVE SMOOTH",
"350 364 OFFCURVE",
"360 376 OFFCURVE",
"360 385 CURVE SMOOTH",
"360 392 OFFCURVE",
"355 398 OFFCURVE",
"341 398 CURVE SMOOTH",
"270 398 OFFCURVE",
"110 281 OFFCURVE",
"71 199 CURVE",
"108 333 OFFCURVE",
"151 448 OFFCURVE",
"214 568 CURVE SMOOTH",
"216 572 OFFCURVE",
"217 576 OFFCURVE",
"217 580 CURVE SMOOTH",
"217 591 OFFCURVE",
"208 598 OFFCURVE",
"198 598 CURVE SMOOTH",
"191 598 OFFCURVE",
"185 595 OFFCURVE",
"181 588 CURVE SMOOTH",
"104 439 OFFCURVE",
"-1 147 OFFCURVE",
"-1 12 CURVE SMOOTH",
"-1 1 OFFCURVE",
"5 -5 OFFCURVE",
"18 -5 CURVE SMOOTH",
"24 -5 OFFCURVE",
"30 -2 OFFCURVE",
"31 4 CURVE SMOOTH",
"40 50 OFFCURVE",
"67 151 OFFCURVE",
"90 185 CURVE",
"110 93 OFFCURVE",
"139 -11 OFFCURVE",
"246 -11 CURVE SMOOTH"
);
}
);
width = 367;
}
);
unicode = 0138;
},
{
glyphname = l;
lastChange = "2022-02-17 14:45:31 +0000";
layers = (
{
layerId = "769237BE-90A6-4D5E-A4C9-331744B3656A";
paths = (
{
closed = 1;
nodes = (
"195 -16 OFFCURVE",
"258 52 OFFCURVE",
"290 114 CURVE SMOOTH",
"294 121 OFFCURVE",
"295 130 OFFCURVE",
"295 133 CURVE SMOOTH",
"295 143 OFFCURVE",
"292 146 OFFCURVE",
"285 146 CURVE SMOOTH",
"275 146 OFFCURVE",
"260 122 OFFCURVE",
"256 117 CURVE SMOOTH",
"201 36 OFFCURVE",
"160 17 OFFCURVE",
"113 17 CURVE SMOOTH",
"74 17 OFFCURVE",
"54 49 OFFCURVE",
"54 112 CURVE SMOOTH",
"54 138 OFFCURVE",
"58 168 OFFCURVE",
"65 203 CURVE",
"140 264 OFFCURVE",
"208 348 OFFCURVE",
"269 454 CURVE SMOOTH",
"308 522 OFFCURVE",
"327 581 OFFCURVE",
"327 631 CURVE SMOOTH",
"327 679 OFFCURVE",
"312 703 OFFCURVE",
"282 703 CURVE SMOOTH",
"247 703 OFFCURVE",
"209 667 OFFCURVE",
"170 596 CURVE SMOOTH",
"137 537 OFFCURVE",
"103 456 OFFCURVE",
"69 354 CURVE SMOOTH",
"31 239 OFFCURVE",
"14 153 OFFCURVE",
"17 98 CURVE SMOOTH",
"22 21 OFFCURVE",
"52 -16 OFFCURVE",
"107 -16 CURVE SMOOTH"
);
},
{
closed = 1;
nodes = (
"113 361 OFFCURVE",
"145 448 OFFCURVE",
"178 523 CURVE SMOOTH",
"205 585 OFFCURVE",
"230 628 OFFCURVE",
"253 653 CURVE SMOOTH",
"264 664 OFFCURVE",
"273 670 OFFCURVE",
"280 670 CURVE SMOOTH",
"289 670 OFFCURVE",
"294 659 OFFCURVE",
"294 638 CURVE SMOOTH",
"294 593 OFFCURVE",
"275 537 OFFCURVE",
"238 472 CURVE SMOOTH",
"193 393 OFFCURVE",
"140 323 OFFCURVE",
"81 263 CURVE"
);
}
);
width = 256;
}
);
note = l;
unicode = 006C;
},
{
glyphname = m;
lastChange = "2022-02-17 14:45:31 +0000";
layers = (
{
layerId = "769237BE-90A6-4D5E-A4C9-331744B3656A";
paths = (
{
closed = 1;
nodes = (
"541 -9 OFFCURVE",
"616 51 OFFCURVE",
"647 114 CURVE SMOOTH",
"649 117 OFFCURVE",
"653 125 OFFCURVE",
"653 128 CURVE SMOOTH",
"653 137 OFFCURVE",
"647 142 OFFCURVE",
"636 142 CURVE SMOOTH",
"629 142 OFFCURVE",
"616 122 OFFCURVE",
"613 117 CURVE SMOOTH",
"582 71 OFFCURVE",
"531 26 OFFCURVE",
"483 26 CURVE SMOOTH",
"456 26 OFFCURVE",
"442 41 OFFCURVE",
"442 70 CURVE SMOOTH",
"442 106 OFFCURVE",
"468 176 OFFCURVE",
"491 237 CURVE SMOOTH",
"507 280 OFFCURVE",
"515 310 OFFCURVE",
"515 325 CURVE SMOOTH",
"515 376 OFFCURVE",
"495 402 OFFCURVE",
"455 402 CURVE SMOOTH",
"430 402 OFFCURVE",
"401 390 OFFCURVE",
"368 366 CURVE SMOOTH",
"343 348 OFFCURVE",
"320 322 OFFCURVE",
"297 288 CURVE",
"297 301 LINE SMOOTH",
"297 362 OFFCURVE",
"275 393 OFFCURVE",
"232 393 CURVE SMOOTH",
"195 393 OFFCURVE",
"158 375 OFFCURVE",
"122 339 CURVE SMOOTH",
"111 328 OFFCURVE",
"100 313 OFFCURVE",
"88 296 CURVE",
"93 327 OFFCURVE",
"96 355 OFFCURVE",
"96 381 CURVE SMOOTH",
"96 396 OFFCURVE",
"91 403 OFFCURVE",
"80 403 CURVE SMOOTH",
"68 403 OFFCURVE",
"62 397 OFFCURVE",
"62 386 CURVE SMOOTH",
"62 333 OFFCURVE",
"51 271 OFFCURVE",
"29 200 CURVE SMOOTH",
"-28 19 LINE",
"-28 6 OFFCURVE",
"-21 0 OFFCURVE",
"-8 0 CURVE SMOOTH",
"-2 0 OFFCURVE",
"2 3 OFFCURVE",
"5 10 CURVE SMOOTH",
"22 63 OFFCURVE",
"40 115 OFFCURVE",
"58 168 CURVE SMOOTH",
"79 222 OFFCURVE",
"108 270 OFFCURVE",
"145 311 CURVE SMOOTH",
"171 341 OFFCURVE",
"197 356 OFFCURVE",
"224 356 CURVE SMOOTH",
"248 356 OFFCURVE",
"260 338 OFFCURVE",
"260 303 CURVE SMOOTH",
"260 259 OFFCURVE",
"235 178 OFFCURVE",
"184 60 CURVE SMOOTH",
"174 38 OFFCURVE",
"169 25 OFFCURVE",
"169 21 CURVE SMOOTH",
"169 13 OFFCURVE",
"181 4 OFFCURVE",
"192 4 CURVE SMOOTH",
"197 4 OFFCURVE",
"201 7 OFFCURVE",
"204 12 CURVE",
"213 33 OFFCURVE",
"228 67 OFFCURVE",
"247 116 CURVE SMOOTH",
"264 159 OFFCURVE",
"279 193 OFFCURVE",
"291 216 CURVE SMOOTH",
"313 257 OFFCURVE",
"342 295 OFFCURVE",
"378 331 CURVE SMOOTH",
"400 354 OFFCURVE",
"423 365 OFFCURVE",
"446 365 CURVE SMOOTH",
"467 365 OFFCURVE",
"478 351 OFFCURVE",
"478 324 CURVE SMOOTH",
"478 311 OFFCURVE",
"471 285 OFFCURVE",
"456 244 CURVE SMOOTH",
"423 155 OFFCURVE",
"407 96 OFFCURVE",
"407 65 CURVE SMOOTH",
"407 16 OFFCURVE",
"433 -9 OFFCURVE",
"484 -9 CURVE SMOOTH"
);
}
);
width = 613;
}
);
note = m;
unicode = 006D;
},
{
glyphname = n;
lastChange = "2022-02-17 14:45:51 +0000";
layers = (
{
guideLines = (
{
position = "{223, 395}";
}
);
layerId = "769237BE-90A6-4D5E-A4C9-331744B3656A";
paths = (
{
closed = 1;
nodes = (
"361 -8 OFFCURVE",
"432 50 OFFCURVE",
"466 114 CURVE SMOOTH",
"468 117 OFFCURVE",
"472 129 OFFCURVE",
"472 132 CURVE SMOOTH",
"472 141 OFFCURVE",
"467 146 OFFCURVE",
"460 146 CURVE SMOOTH",
"449 146 OFFCURVE",
"444 136 OFFCURVE",
"432 118 CURVE SMOOTH",
"403 72 OFFCURVE",
"343 26 OFFCURVE",
"300 26 CURVE SMOOTH",
"273 26 OFFCURVE",
"265 43 OFFCURVE",
"265 67 CURVE SMOOTH",
"265 93 OFFCURVE",
"276 128 OFFCURVE",
"285 155 CURVE SMOOTH",
"312 232 OFFCURVE",
"326 284 OFFCURVE",
"326 311 CURVE SMOOTH",
"326 371 OFFCURVE",
"298 401 OFFCURVE",
"243 401 CURVE SMOOTH",
"190 401 OFFCURVE",
"141 370 OFFCURVE",
"96 308 CURVE",
"102 333 OFFCURVE",
"105 355 OFFCURVE",
"105 373 CURVE SMOOTH",
"105 386 OFFCURVE",
"96 410 OFFCURVE",
"83 410 CURVE SMOOTH",
"72 410 OFFCURVE",
"66 404 OFFCURVE",
"66 391 CURVE SMOOTH",
"66 325 OFFCURVE",
"44 233 OFFCURVE",
"1 114 CURVE SMOOTH",
"-22 51 OFFCURVE",
"-33 19 OFFCURVE",
"-33 17 CURVE SMOOTH",
"-33 9 OFFCURVE",
"-23 -2 OFFCURVE",
"-14 -2 CURVE SMOOTH",
"-9 -2 OFFCURVE",
"-4 2 OFFCURVE",
"-1 9 CURVE SMOOTH",
"14 45 OFFCURVE",
"25 72 OFFCURVE",
"31 91 CURVE SMOOTH",
"60 167 OFFCURVE",
"85 223 OFFCURVE",
"107 260 CURVE SMOOTH",
"149 331 OFFCURVE",
"193 366 OFFCURVE",
"238 366 CURVE SMOOTH",
"270 366 OFFCURVE",
"286 347 OFFCURVE",
"286 309 CURVE SMOOTH",
"286 298 OFFCURVE",
"285 286 OFFCURVE",
"282 272 CURVE SMOOTH",
"279 259 OFFCURVE",
"269 225 OFFCURVE",
"251 171 CURVE SMOOTH",
"235 125 OFFCURVE",
"225 85 OFFCURVE",
"225 68 CURVE SMOOTH",
"225 20 OFFCURVE",
"255 -8 OFFCURVE",
"304 -8 CURVE SMOOTH"
);
}
);
width = 432;
}
);
note = n;
unicode = 006E;
},
{
glyphname = eng;
lastChange = "2022-02-17 14:45:31 +0000";
layers = (
{
layerId = "769237BE-90A6-4D5E-A4C9-331744B3656A";
paths = (
{
closed = 1;
nodes = (
"126 -274 OFFCURVE",
"197 -103 OFFCURVE",
"285 155 CURVE SMOOTH",
"312 232 OFFCURVE",
"326 284 OFFCURVE",
"326 311 CURVE SMOOTH",
"326 371 OFFCURVE",
"298 401 OFFCURVE",
"243 401 CURVE SMOOTH",
"190 401 OFFCURVE",
"141 370 OFFCURVE",
"96 308 CURVE",
"102 333 OFFCURVE",
"105 355 OFFCURVE",
"105 373 CURVE SMOOTH",
"105 386 OFFCURVE",
"96 410 OFFCURVE",
"83 410 CURVE SMOOTH",
"72 410 OFFCURVE",
"66 404 OFFCURVE",
"66 391 CURVE SMOOTH",
"66 325 OFFCURVE",
"44 233 OFFCURVE",
"1 114 CURVE SMOOTH",
"-22 51 OFFCURVE",
"-33 19 OFFCURVE",
"-33 17 CURVE SMOOTH",
"-33 9 OFFCURVE",
"-23 -2 OFFCURVE",
"-14 -2 CURVE SMOOTH",
"-9 -2 OFFCURVE",
"-4 2 OFFCURVE",
"-1 9 CURVE SMOOTH",
"14 45 OFFCURVE",
"25 72 OFFCURVE",
"31 91 CURVE SMOOTH",
"60 167 OFFCURVE",
"85 223 OFFCURVE",
"107 260 CURVE SMOOTH",
"149 331 OFFCURVE",
"193 366 OFFCURVE",
"238 366 CURVE SMOOTH",
"270 366 OFFCURVE",
"286 347 OFFCURVE",
"286 309 CURVE SMOOTH",
"286 298 OFFCURVE",
"285 286 OFFCURVE",
"282 272 CURVE SMOOTH",
"279 259 OFFCURVE",
"269 225 OFFCURVE",
"251 171 CURVE SMOOTH",
"161 -87 OFFCURVE",
"107 -240 OFFCURVE",
"0 -240 CURVE SMOOTH",
"-47 -240 OFFCURVE",
"-76 -212 OFFCURVE",
"-76 -168 CURVE SMOOTH",
"-76 -115 OFFCURVE",
"-43 -78 OFFCURVE",
"2 -78 CURVE SMOOTH",
"15 -78 OFFCURVE",
"24 -67 OFFCURVE",
"24 -57 CURVE SMOOTH",
"24 -50 OFFCURVE",
"19 -43 OFFCURVE",
"6 -43 CURVE SMOOTH",
"-60 -43 OFFCURVE",
"-110 -97 OFFCURVE",
"-110 -172 CURVE SMOOTH",
"-110 -231 OFFCURVE",
"-67 -274 OFFCURVE",
"-3 -274 CURVE SMOOTH"
);
}
);
width = 350;
}
);
unicode = 014B;
},
{
glyphname = o;
lastChange = "2022-02-17 14:45:31 +0000";
layers = (
{
layerId = "769237BE-90A6-4D5E-A4C9-331744B3656A";
paths = (
{
closed = 1;
nodes = (
"201 -9 OFFCURVE",
"251 26 OFFCURVE",
"293 95 CURVE SMOOTH",
"330 156 OFFCURVE",
"349 217 OFFCURVE",
"349 278 CURVE SMOOTH",
"349 311 OFFCURVE",
"342 340 OFFCURVE",
"329 365 CURVE SMOOTH",
"312 398 OFFCURVE",
"288 414 OFFCURVE",
"257 414 CURVE SMOOTH",
"240 414 OFFCURVE",
"223 408 OFFCURVE",
"207 397 CURVE",
"200 404 OFFCURVE",
"190 408 OFFCURVE",
"179 408 CURVE SMOOTH",
"168 408 OFFCURVE",
"155 404 OFFCURVE",
"141 397 CURVE SMOOTH",
"103 378 OFFCURVE",
"72 343 OFFCURVE",
"48 290 CURVE SMOOTH",
"27 243 OFFCURVE",
"16 197 OFFCURVE",
"16 150 CURVE SMOOTH",
"16 106 OFFCURVE",
"25 70 OFFCURVE",
"44 41 CURVE SMOOTH",
"67 8 OFFCURVE",
"99 -9 OFFCURVE",
"142 -9 CURVE SMOOTH"
);
},
{
closed = 1;
nodes = (
"110 26 OFFCURVE",
"87 39 OFFCURVE",
"70 66 CURVE SMOOTH",
"57 89 OFFCURVE",
"50 117 OFFCURVE",
"50 151 CURVE SMOOTH",
"50 191 OFFCURVE",
"59 232 OFFCURVE",
"78 273 CURVE SMOOTH",
"99 319 OFFCURVE",
"125 350 OFFCURVE",
"156 367 CURVE SMOOTH",
"167 372 OFFCURVE",
"175 375 OFFCURVE",
"179 375 CURVE SMOOTH",
"180 375 OFFCURVE",
"181 375 OFFCURVE",
"182 374 CURVE",
"159 345 OFFCURVE",
"147 311 OFFCURVE",
"147 274 CURVE SMOOTH",
"147 225 OFFCURVE",
"168 200 OFFCURVE",
"211 200 CURVE SMOOTH",
"222 200 OFFCURVE",
"227 206 OFFCURVE",
"227 217 CURVE SMOOTH",
"227 228 OFFCURVE",
"222 234 OFFCURVE",
"211 234 CURVE SMOOTH",
"190 234 OFFCURVE",
"180 248 OFFCURVE",
"180 276 CURVE SMOOTH",
"180 299 OFFCURVE",
"188 322 OFFCURVE",
"203 345 CURVE SMOOTH",
"218 368 OFFCURVE",
"236 380 OFFCURVE",
"257 380 CURVE SMOOTH",
"276 380 OFFCURVE",
"290 368 OFFCURVE",
"301 343 CURVE SMOOTH",
"310 322 OFFCURVE",
"315 300 OFFCURVE",
"315 277 CURVE SMOOTH",
"315 224 OFFCURVE",
"299 171 OFFCURVE",
"267 117 CURVE SMOOTH",
"230 56 OFFCURVE",
"188 26 OFFCURVE",
"141 26 CURVE SMOOTH"
);
}
);
width = 360;
}
);
note = o;
unicode = 006F;
},
{
glyphname = oslash;
lastChange = "2022-02-17 14:45:31 +0000";
layers = (
{
layerId = "769237BE-90A6-4D5E-A4C9-331744B3656A";
paths = (
{
closed = 1;
nodes = (
"-6 -39 OFFCURVE",
"-2 -37 OFFCURVE",
"1 -34 CURVE SMOOTH",
"55 27 LINE",
"77 3 OFFCURVE",
"106 -9 OFFCURVE",
"142 -9 CURVE SMOOTH",
"201 -9 OFFCURVE",
"251 26 OFFCURVE",
"293 95 CURVE SMOOTH",
"330 156 OFFCURVE",
"349 217 OFFCURVE",
"349 278 CURVE SMOOTH",
"349 299 OFFCURVE",
"346 320 OFFCURVE",
"339 341 CURVE",
"410 420 LINE SMOOTH",
"413 423 OFFCURVE",
"415 426 OFFCURVE",
"415 430 CURVE SMOOTH",
"415 443 OFFCURVE",
"409 449 OFFCURVE",
"397 449 CURVE SMOOTH",
"393 449 OFFCURVE",
"389 447 OFFCURVE",
"386 444 CURVE SMOOTH",
"324 374 LINE",
"307 401 OFFCURVE",
"285 414 OFFCURVE",
"257 414 CURVE SMOOTH",
"240 414 OFFCURVE",
"223 408 OFFCURVE",
"207 397 CURVE",
"200 404 OFFCURVE",
"190 408 OFFCURVE",
"179 408 CURVE SMOOTH",
"168 408 OFFCURVE",
"155 404 OFFCURVE",
"141 397 CURVE SMOOTH",
"103 378 OFFCURVE",
"72 343 OFFCURVE",
"48 290 CURVE SMOOTH",
"27 243 OFFCURVE",
"16 197 OFFCURVE",
"16 150 CURVE SMOOTH",
"16 114 OFFCURVE",
"23 83 OFFCURVE",
"36 56 CURVE",
"-24 -9 LINE SMOOTH",
"-27 -12 OFFCURVE",
"-28 -16 OFFCURVE",
"-28 -20 CURVE SMOOTH",
"-28 -33 OFFCURVE",
"-22 -39 OFFCURVE",
"-10 -39 CURVE SMOOTH"
);
},
{
closed = 1;
nodes = (
"54 104 OFFCURVE",
"50 126 OFFCURVE",
"50 151 CURVE SMOOTH",
"50 191 OFFCURVE",
"59 232 OFFCURVE",
"78 273 CURVE SMOOTH",
"99 319 OFFCURVE",
"125 350 OFFCURVE",
"156 367 CURVE SMOOTH",
"167 372 OFFCURVE",
"175 375 OFFCURVE",
"179 375 CURVE SMOOTH",
"180 375 OFFCURVE",
"181 375 OFFCURVE",
"182 374 CURVE",
"159 345 OFFCURVE",
"147 311 OFFCURVE",
"147 274 CURVE SMOOTH",
"147 244 OFFCURVE",
"156 223 OFFCURVE",
"175 210 CURVE",
"61 84 LINE"
);
},
{
closed = 1;
nodes = (
"116 26 OFFCURVE",
"95 35 OFFCURVE",
"79 53 CURVE",
"212 200 LINE",
"222 201 OFFCURVE",
"227 206 OFFCURVE",
"227 217 CURVE",
"311 310 LINE",
"314 299 OFFCURVE",
"315 288 OFFCURVE",
"315 277 CURVE SMOOTH",
"315 224 OFFCURVE",
"299 171 OFFCURVE",
"267 117 CURVE SMOOTH",
"230 56 OFFCURVE",
"188 26 OFFCURVE",
"141 26 CURVE SMOOTH"
);
},
{
closed = 1;
nodes = (
"186 241 OFFCURVE",
"180 254 OFFCURVE",
"180 276 CURVE SMOOTH",
"180 299 OFFCURVE",
"188 322 OFFCURVE",
"203 345 CURVE SMOOTH",
"218 368 OFFCURVE",
"236 380 OFFCURVE",
"257 380 CURVE SMOOTH",
"274 380 OFFCURVE",
"288 369 OFFCURVE",
"299 347 CURVE",
"198 236 LINE"
);
}
);
width = 360;
}
);
note = oslash;
unicode = 00F8;
},
{
glyphname = oe;
lastChange = "2022-02-17 14:45:31 +0000";
layers = (
{
layerId = "769237BE-90A6-4D5E-A4C9-331744B3656A";
paths = (
{
closed = 1;
nodes = (
"508 -13 OFFCURVE",
"548 0 OFFCURVE",
"586 25 CURVE SMOOTH",
"621 48 OFFCURVE",
"650 79 OFFCURVE",
"672 116 CURVE",
"673 119 OFFCURVE",
"674 122 OFFCURVE",
"674 125 CURVE SMOOTH",
"674 137 OFFCURVE",
"668 143 OFFCURVE",
"657 143 CURVE SMOOTH",
"652 143 OFFCURVE",
"648 140 OFFCURVE",
"644 135 CURVE SMOOTH",
"615 96 OFFCURVE",
"590 69 OFFCURVE",
"570 54 CURVE SMOOTH",
"541 32 OFFCURVE",
"506 21 OFFCURVE",
"467 21 CURVE SMOOTH",
"387 21 OFFCURVE",
"345 75 OFFCURVE",
"345 156 CURVE SMOOTH",
"345 171 OFFCURVE",
"347 186 OFFCURVE",
"350 201 CURVE",
"369 194 OFFCURVE",
"391 191 OFFCURVE",
"418 191 CURVE SMOOTH",
"469 191 OFFCURVE",
"514 202 OFFCURVE",
"553 223 CURVE SMOOTH",
"598 248 OFFCURVE",
"621 280 OFFCURVE",
"621 321 CURVE SMOOTH",
"621 372 OFFCURVE",
"582 400 OFFCURVE",
"529 400 CURVE SMOOTH",
"497 400 OFFCURVE",
"465 391 OFFCURVE",
"433 373 CURVE SMOOTH",
"398 353 OFFCURVE",
"369 326 OFFCURVE",
"348 292 CURVE",
"346 323 OFFCURVE",
"338 350 OFFCURVE",
"325 372 CURVE SMOOTH",
"308 400 OFFCURVE",
"286 414 OFFCURVE",
"257 414 CURVE SMOOTH",
"240 414 OFFCURVE",
"223 408 OFFCURVE",
"207 397 CURVE",
"200 404 OFFCURVE",
"190 408 OFFCURVE",
"179 408 CURVE SMOOTH",
"168 408 OFFCURVE",
"155 404 OFFCURVE",
"141 397 CURVE SMOOTH",
"103 378 OFFCURVE",
"72 343 OFFCURVE",
"48 290 CURVE SMOOTH",
"27 243 OFFCURVE",
"16 197 OFFCURVE",
"16 150 CURVE SMOOTH",
"16 106 OFFCURVE",
"25 70 OFFCURVE",
"44 41 CURVE SMOOTH",
"67 8 OFFCURVE",
"99 -9 OFFCURVE",
"142 -9 CURVE SMOOTH",
"212 -9 OFFCURVE",
"269 38 OFFCURVE",
"312 131 CURVE",
"321 44 OFFCURVE",
"378 -13 OFFCURVE",
"467 -13 CURVE SMOOTH"
);
},
{
closed = 1;
nodes = (
"110 26 OFFCURVE",
"87 39 OFFCURVE",
"70 66 CURVE SMOOTH",
"57 89 OFFCURVE",
"50 117 OFFCURVE",
"50 151 CURVE SMOOTH",
"50 191 OFFCURVE",
"59 232 OFFCURVE",
"78 273 CURVE SMOOTH",
"99 319 OFFCURVE",
"125 350 OFFCURVE",
"156 367 CURVE SMOOTH",
"167 372 OFFCURVE",
"175 375 OFFCURVE",
"179 375 CURVE SMOOTH",
"180 375 OFFCURVE",
"181 375 OFFCURVE",
"182 374 CURVE",
"159 345 OFFCURVE",
"147 311 OFFCURVE",
"147 274 CURVE SMOOTH",
"147 225 OFFCURVE",
"168 200 OFFCURVE",
"211 200 CURVE SMOOTH",
"222 200 OFFCURVE",
"227 206 OFFCURVE",
"227 217 CURVE SMOOTH",
"227 228 OFFCURVE",
"222 234 OFFCURVE",
"211 234 CURVE SMOOTH",
"190 234 OFFCURVE",
"180 248 OFFCURVE",
"180 276 CURVE SMOOTH",
"180 299 OFFCURVE",
"188 322 OFFCURVE",
"203 345 CURVE SMOOTH",
"218 368 OFFCURVE",
"236 380 OFFCURVE",
"257 380 CURVE SMOOTH",
"276 380 OFFCURVE",
"290 368 OFFCURVE",
"301 343 CURVE SMOOTH",
"310 322 OFFCURVE",
"315 300 OFFCURVE",
"315 277 CURVE SMOOTH",
"315 224 OFFCURVE",
"299 171 OFFCURVE",
"267 117 CURVE SMOOTH",
"230 56 OFFCURVE",
"188 26 OFFCURVE",
"141 26 CURVE SMOOTH"
);
},
{
closed = 1;
nodes = (
"392 225 OFFCURVE",
"374 228 OFFCURVE",
"360 234 CURVE",
"374 271 OFFCURVE",
"395 301 OFFCURVE",
"424 325 CURVE SMOOTH",
"455 352 OFFCURVE",
"489 366 OFFCURVE",
"526 366 CURVE SMOOTH",
"566 366 OFFCURVE",
"586 352 OFFCURVE",
"586 323 CURVE SMOOTH",
"586 293 OFFCURVE",
"567 269 OFFCURVE",
"528 250 CURVE SMOOTH",
"495 233 OFFCURVE",
"457 225 OFFCURVE",
"415 225 CURVE SMOOTH"
);
}
);
width = 636;
}
);
note = oe;
unicode = 0153;
},
{
glyphname = p;
lastChange = "2022-02-17 14:45:31 +0000";
layers = (
{
layerId = "769237BE-90A6-4D5E-A4C9-331744B3656A";
paths = (
{
closed = 1;
nodes = (
"-19 -246 OFFCURVE",
"23 -164 OFFCURVE",
"56 1 CURVE",
"67 -12 OFFCURVE",
"88 -19 OFFCURVE",
"118 -19 CURVE SMOOTH",
"182 -19 OFFCURVE",
"239 8 OFFCURVE",
"290 62 CURVE SMOOTH",
"341 116 OFFCURVE",
"367 175 OFFCURVE",
"367 239 CURVE SMOOTH",
"367 280 OFFCURVE",
"357 315 OFFCURVE",
"336 342 CURVE SMOOTH",
"313 372 OFFCURVE",
"282 387 OFFCURVE",
"241 387 CURVE SMOOTH",
"194 387 OFFCURVE",
"151 365 OFFCURVE",
"114 322 CURVE",
"117 337 OFFCURVE",
"121 350 OFFCURVE",
"124 361 CURVE SMOOTH",
"132 392 OFFCURVE",
"137 407 OFFCURVE",
"140 407 CURVE SMOOTH",
"149 407 OFFCURVE",
"153 411 OFFCURVE",
"153 419 CURVE SMOOTH",
"153 430 OFFCURVE",
"146 439 OFFCURVE",
"135 439 CURVE SMOOTH",
"127 439 OFFCURVE",
"120 434 OFFCURVE",
"113 423 CURVE SMOOTH",
"98 400 OFFCURVE",
"84 350 OFFCURVE",
"70 274 CURVE SMOOTH",
"63 235 OFFCURVE",
"43 195 OFFCURVE",
"24 159 CURVE SMOOTH",
"-27 52 OFFCURVE",
"-59 -20 OFFCURVE",
"-73 -58 CURVE SMOOTH",
"-96 -118 OFFCURVE",
"-107 -164 OFFCURVE",
"-107 -195 CURVE SMOOTH",
"-107 -229 OFFCURVE",
"-94 -246 OFFCURVE",
"-69 -246 CURVE SMOOTH"
);
},
{
closed = 1;
nodes = (
"-70 -213 OFFCURVE",
"-71 -206 OFFCURVE",
"-71 -190 CURVE SMOOTH",
"-70 -169 OFFCURVE",
"-63 -141 OFFCURVE",
"-50 -104 CURVE SMOOTH",
"-30 -48 OFFCURVE",
"1 26 OFFCURVE",
"43 119 CURVE",
"27 18 OFFCURVE",
"10 -61 OFFCURVE",
"-8 -116 CURVE SMOOTH",
"-18 -146 OFFCURVE",
"-29 -170 OFFCURVE",
"-41 -189 CURVE SMOOTH",
"-51 -205 OFFCURVE",
"-59 -213 OFFCURVE",
"-65 -213 CURVE SMOOTH"
);
},
{
closed = 1;
nodes = (
"96 14 OFFCURVE",
"86 17 OFFCURVE",
"83 24 CURVE SMOOTH",
"78 34 OFFCURVE",
"72 39 OFFCURVE",
"65 39 CURVE SMOOTH",
"64 39 LINE",
"73 84 OFFCURVE",
"80 129 OFFCURVE",
"87 173 CURVE SMOOTH",
"94 212 OFFCURVE",
"97 232 OFFCURVE",
"98 233 CURVE",
"109 264 OFFCURVE",
"129 291 OFFCURVE",
"156 316 CURVE SMOOTH",
"184 341 OFFCURVE",
"213 353 OFFCURVE",
"242 353 CURVE SMOOTH",
"272 353 OFFCURVE",
"295 341 OFFCURVE",
"311 318 CURVE SMOOTH",
"325 297 OFFCURVE",
"332 271 OFFCURVE",
"332 238 CURVE SMOOTH",
"332 182 OFFCURVE",
"309 131 OFFCURVE",
"263 84 CURVE SMOOTH",
"218 37 OFFCURVE",
"167 14 OFFCURVE",
"111 14 CURVE SMOOTH"
);
}
);
width = 374;
}
);
note = p;
unicode = 0070;
},
{
glyphname = thorn;
lastChange = "2022-02-17 14:45:31 +0000";
layers = (
{
layerId = "769237BE-90A6-4D5E-A4C9-331744B3656A";
paths = (
{
closed = 1;
nodes = (
"-27 -201 OFFCURVE",
"23 -168 OFFCURVE",
"78 -102 CURVE SMOOTH",
"116 -56 OFFCURVE",
"156 18 OFFCURVE",
"180 67 CURVE",
"195 64 OFFCURVE",
"208 64 OFFCURVE",
"223 64 CURVE SMOOTH",
"309 64 OFFCURVE",
"377 78 OFFCURVE",
"443 118 CURVE SMOOTH",
"519 165 OFFCURVE",
"565 235 OFFCURVE",
"565 316 CURVE SMOOTH",
"565 371 OFFCURVE",
"545 417 OFFCURVE",
"505 452 CURVE SMOOTH",
"469 483 OFFCURVE",
"424 503 OFFCURVE",
"366 510 CURVE",
"370 516 OFFCURVE",
"416 633 OFFCURVE",
"458 706 CURVE SMOOTH",
"464 717 OFFCURVE",
"480 741 OFFCURVE",
"480 746 CURVE SMOOTH",
"480 755 OFFCURVE",
"471 760 OFFCURVE",
"458 760 CURVE SMOOTH",
"439 760 OFFCURVE",
"362 579 OFFCURVE",
"332 513 CURVE",
"302 513 LINE SMOOTH",
"289 513 OFFCURVE",
"284 505 OFFCURVE",
"284 498 CURVE SMOOTH",
"284 491 OFFCURVE",
"289 484 OFFCURVE",
"296 484 CURVE SMOOTH",
"298 484 OFFCURVE",
"300 484 OFFCURVE",
"302 485 CURVE SMOOTH",
"304 486 OFFCURVE",
"310 486 OFFCURVE",
"314 486 CURVE SMOOTH",
"317 486 LINE",
"270 378 OFFCURVE",
"224 234 OFFCURVE",
"164 106 CURVE",
"150 111 OFFCURVE",
"138 118 OFFCURVE",
"128 128 CURVE SMOOTH",
"124 132 OFFCURVE",
"120 134 OFFCURVE",
"114 134 CURVE SMOOTH",
"106 134 OFFCURVE",
"100 122 OFFCURVE",
"100 113 CURVE SMOOTH",
"100 98 OFFCURVE",
"117 85 OFFCURVE",
"150 74 CURVE",
"124 22 OFFCURVE",
"85 -46 OFFCURVE",
"58 -77 CURVE SMOOTH",
"19 -124 OFFCURVE",
"-26 -154 OFFCURVE",
"-77 -167 CURVE SMOOTH",
"-86 -170 OFFCURVE",
"-91 -175 OFFCURVE",
"-91 -182 CURVE SMOOTH",
"-91 -195 OFFCURVE",
"-85 -201 OFFCURVE",
"-72 -201 CURVE SMOOTH"
);
},
{
closed = 1;
nodes = (
"224 98 OFFCURVE",
"207 100 OFFCURVE",
"197 101 CURVE",
"237 180 OFFCURVE",
"296 369 OFFCURVE",
"352 483 CURVE",
"407 477 OFFCURVE",
"443 462 OFFCURVE",
"475 437 CURVE SMOOTH",
"512 407 OFFCURVE",
"530 368 OFFCURVE",
"530 319 CURVE SMOOTH",
"530 248 OFFCURVE",
"496 193 OFFCURVE",
"429 151 CURVE SMOOTH",
"372 116 OFFCURVE",
"309 98 OFFCURVE",
"233 98 CURVE SMOOTH"
);
}
);
width = 636;
}
);
note = thorn;
unicode = 00FE;
},
{
glyphname = q;
lastChange = "2022-02-17 14:45:31 +0000";
layers = (
{
layerId = "769237BE-90A6-4D5E-A4C9-331744B3656A";
paths = (
{
closed = 1;
nodes = (
"254 -299 OFFCURVE",
"285 -269 OFFCURVE",
"310 -208 CURVE SMOOTH",
"329 -160 OFFCURVE",
"339 -114 OFFCURVE",
"339 -70 CURVE SMOOTH",
"339 -31 OFFCURVE",
"328 1 OFFCURVE",
"302 32 CURVE",
"331 32 OFFCURVE",
"387 61 OFFCURVE",
"417 114 CURVE SMOOTH",
"420 119 OFFCURVE",
"422 125 OFFCURVE",
"422 131 CURVE SMOOTH",
"422 139 OFFCURVE",
"416 145 OFFCURVE",
"405 145 CURVE SMOOTH",
"400 145 OFFCURVE",
"390 128 OFFCURVE",
"383 117 CURVE SMOOTH",
"356 77 OFFCURVE",
"319 56 OFFCURVE",
"256 51 CURVE",
"288 150 OFFCURVE",
"314 222 OFFCURVE",
"334 267 CURVE SMOOTH",
"336 271 OFFCURVE",
"334 275 OFFCURVE",
"329 280 CURVE",
"339 292 OFFCURVE",
"344 305 OFFCURVE",
"344 318 CURVE SMOOTH",
"344 374 OFFCURVE",
"304 407 OFFCURVE",
"248 407 CURVE SMOOTH",
"189 407 OFFCURVE",
"134 375 OFFCURVE",
"85 310 CURVE SMOOTH",
"39 249 OFFCURVE",
"16 188 OFFCURVE",
"16 127 CURVE SMOOTH",
"16 90 OFFCURVE",
"24 60 OFFCURVE",
"39 36 CURVE SMOOTH",
"57 8 OFFCURVE",
"84 -6 OFFCURVE",
"120 -6 CURVE SMOOTH",
"156 -6 OFFCURVE",
"190 14 OFFCURVE",
"221 54 CURVE",
"182 -65 OFFCURVE",
"163 -155 OFFCURVE",
"163 -214 CURVE SMOOTH",
"163 -271 OFFCURVE",
"180 -299 OFFCURVE",
"215 -299 CURVE SMOOTH"
);
},
{
closed = 1;
nodes = (
"204 -266 OFFCURVE",
"197 -249 OFFCURVE",
"197 -214 CURVE SMOOTH",
"197 -166 OFFCURVE",
"211 -97 OFFCURVE",
"238 -7 CURVE SMOOTH",
"243 8 OFFCURVE",
"245 16 OFFCURVE",
"245 16 CURVE",
"286 14 OFFCURVE",
"306 -16 OFFCURVE",
"306 -75 CURVE SMOOTH",
"306 -100 OFFCURVE",
"301 -129 OFFCURVE",
"291 -163 CURVE SMOOTH",
"268 -235 OFFCURVE",
"234 -266 OFFCURVE",
"217 -266 CURVE SMOOTH"
);
},
{
closed = 1;
nodes = (
"75 28 OFFCURVE",
"51 61 OFFCURVE",
"51 126 CURVE SMOOTH",
"51 179 OFFCURVE",
"71 232 OFFCURVE",
"110 286 CURVE SMOOTH",
"153 344 OFFCURVE",
"199 373 OFFCURVE",
"248 373 CURVE SMOOTH",
"289 373 OFFCURVE",
"310 355 OFFCURVE",
"310 318 CURVE SMOOTH",
"310 302 OFFCURVE",
"282 277 OFFCURVE",
"266 277 CURVE SMOOTH",
"263 277 OFFCURVE",
"255 280 OFFCURVE",
"251 280 CURVE SMOOTH",
"240 280 OFFCURVE",
"234 274 OFFCURVE",
"234 263 CURVE SMOOTH",
"234 250 OFFCURVE",
"245 243 OFFCURVE",
"268 243 CURVE SMOOTH",
"275 243 OFFCURVE",
"281 244 OFFCURVE",
"287 247 CURVE",
"288 247 LINE",
"258 183 OFFCURVE",
"236 140 OFFCURVE",
"222 117 CURVE SMOOTH",
"185 58 OFFCURVE",
"152 28 OFFCURVE",
"123 28 CURVE SMOOTH"
);
}
);
width = 383;
}
);
note = q;
unicode = 0071;
},
{
glyphname = r;
lastChange = "2022-02-17 14:45:31 +0000";
layers = (
{
layerId = "769237BE-90A6-4D5E-A4C9-331744B3656A";
paths = (
{
closed = 1;
nodes = (
"333 -10 OFFCURVE",
"377 48 OFFCURVE",
"413 114 CURVE SMOOTH",
"415 117 OFFCURVE",
"420 132 OFFCURVE",
"420 139 CURVE SMOOTH",
"420 150 OFFCURVE",
"416 151 OFFCURVE",
"410 151 CURVE SMOOTH",
"400 151 OFFCURVE",
"385 127 OFFCURVE",
"379 117 CURVE SMOOTH",
"350 72 OFFCURVE",
"313 24 OFFCURVE",
"269 24 CURVE SMOOTH",
"241 24 OFFCURVE",
"227 45 OFFCURVE",
"227 88 CURVE SMOOTH",
"227 117 OFFCURVE",
"234 148 OFFCURVE",
"247 181 CURVE SMOOTH",
"267 231 OFFCURVE",
"294 284 OFFCURVE",
"327 341 CURVE",
"328 344 OFFCURVE",
"329 346 OFFCURVE",
"329 349 CURVE SMOOTH",
"329 361 OFFCURVE",
"323 367 OFFCURVE",
"310 367 CURVE SMOOTH",
"309 367 OFFCURVE",
"304 364 OFFCURVE",
"297 359 CURVE SMOOTH",
"262 336 OFFCURVE",
"233 324 OFFCURVE",
"210 324 CURVE SMOOTH",
"178 324 OFFCURVE",
"144 343 OFFCURVE",
"139 371 CURVE",
"142 392 OFFCURVE",
"144 411 OFFCURVE",
"144 426 CURVE SMOOTH",
"144 459 OFFCURVE",
"136 475 OFFCURVE",
"120 475 CURVE SMOOTH",
"105 475 OFFCURVE",
"98 459 OFFCURVE",
"98 426 CURVE SMOOTH",
"98 406 OFFCURVE",
"100 388 OFFCURVE",
"104 372 CURVE",
"85 284 OFFCURVE",
"39 180 OFFCURVE",
"0 117 CURVE",
"0 106 OFFCURVE",
"3 102 OFFCURVE",
"15 102 CURVE SMOOTH",
"19 102 OFFCURVE",
"28 103 OFFCURVE",
"34 114 CURVE SMOOTH",
"65 170 OFFCURVE",
"111 262 OFFCURVE",
"123 329 CURVE",
"149 301 OFFCURVE",
"176 289 OFFCURVE",
"209 289 CURVE SMOOTH",
"226 289 OFFCURVE",
"244 293 OFFCURVE",
"263 300 CURVE",
"216 213 OFFCURVE",
"192 141 OFFCURVE",
"192 85 CURVE SMOOTH",
"192 24 OFFCURVE",
"224 -10 OFFCURVE",
"268 -10 CURVE SMOOTH"
);
}
);
width = 379;
}
);
note = r;
unicode = 0072;
},
{
glyphname = s;
lastChange = "2022-02-17 14:45:31 +0000";
layers = (
{
layerId = "769237BE-90A6-4D5E-A4C9-331744B3656A";
paths = (
{
closed = 1;
nodes = (
"183 -20 OFFCURVE",
"225 -2 OFFCURVE",
"259 33 CURVE SMOOTH",
"293 68 OFFCURVE",
"310 111 OFFCURVE",
"310 161 CURVE SMOOTH",
"310 194 OFFCURVE",
"298 228 OFFCURVE",
"275 263 CURVE SMOOTH",
"212 351 LINE",
"250 405 LINE SMOOTH",
"261 420 OFFCURVE",
"266 437 OFFCURVE",
"266 458 CURVE SMOOTH",
"266 491 OFFCURVE",
"250 507 OFFCURVE",
"219 507 CURVE SMOOTH",
"198 507 OFFCURVE",
"182 496 OFFCURVE",
"171 473 CURVE SMOOTH",
"163 456 OFFCURVE",
"159 437 OFFCURVE",
"159 415 CURVE SMOOTH",
"159 396 OFFCURVE",
"163 376 OFFCURVE",
"171 355 CURVE",
"126 302 OFFCURVE",
"90 256 OFFCURVE",
"63 218 CURVE",
"22 194 OFFCURVE",
"-4 146 OFFCURVE",
"-4 98 CURVE SMOOTH",
"-4 61 OFFCURVE",
"10 31 OFFCURVE",
"39 9 CURVE SMOOTH",
"64 -10 OFFCURVE",
"96 -20 OFFCURVE",
"133 -20 CURVE SMOOTH"
);
},
{
closed = 1;
nodes = (
"69 15 OFFCURVE",
"35 45 OFFCURVE",
"31 105 CURVE",
"63 128 OFFCURVE",
"90 166 OFFCURVE",
"89 194 CURVE",
"96 196 OFFCURVE",
"103 197 OFFCURVE",
"112 197 CURVE SMOOTH",
"137 197 OFFCURVE",
"150 185 OFFCURVE",
"150 162 CURVE SMOOTH",
"150 154 OFFCURVE",
"138 138 OFFCURVE",
"138 130 CURVE SMOOTH",
"138 118 OFFCURVE",
"143 112 OFFCURVE",
"152 112 CURVE SMOOTH",
"159 112 OFFCURVE",
"165 115 OFFCURVE",
"170 122 CURVE SMOOTH",
"179 135 OFFCURVE",
"184 149 OFFCURVE",
"184 162 CURVE SMOOTH",
"184 205 OFFCURVE",
"161 228 OFFCURVE",
"114 231 CURVE",
"188 323 LINE",
"244 247 LINE SMOOTH",
"265 216 OFFCURVE",
"276 188 OFFCURVE",
"276 161 CURVE SMOOTH",
"276 120 OFFCURVE",
"262 85 OFFCURVE",
"235 57 CURVE SMOOTH",
"208 29 OFFCURVE",
"173 15 OFFCURVE",
"132 15 CURVE SMOOTH"
);
},
{
closed = 1;
nodes = (
"194 396 OFFCURVE",
"192 405 OFFCURVE",
"192 414 CURVE SMOOTH",
"192 453 OFFCURVE",
"201 472 OFFCURVE",
"219 472 CURVE SMOOTH",
"230 472 OFFCURVE",
"235 467 OFFCURVE",
"235 457 CURVE SMOOTH",
"235 448 OFFCURVE",
"230 434 OFFCURVE",
"221 417 CURVE SMOOTH",
"215 407 OFFCURVE",
"207 396 OFFCURVE",
"197 385 CURVE"
);
}
);
width = 365;
}
);
note = s;
unicode = 0073;
},
{
glyphname = germandbls;
lastChange = "2022-02-17 14:45:31 +0000";
layers = (
{
layerId = "769237BE-90A6-4D5E-A4C9-331744B3656A";
paths = (
{
closed = 1;
nodes = (
"-121 -322 OFFCURVE",
"-83 -293 OFFCURVE",
"-58 -254 CURVE SMOOTH",
"-11 -182 OFFCURVE",
"54 128 OFFCURVE",
"105 339 CURVE SMOOTH",
"152 536 OFFCURVE",
"204 700 OFFCURVE",
"312 700 CURVE SMOOTH",
"362 700 OFFCURVE",
"385 656 OFFCURVE",
"385 576 CURVE SMOOTH",
"385 533 OFFCURVE",
"374 505 OFFCURVE",
"364 484 CURVE",
"305 483 OFFCURVE",
"269 449 OFFCURVE",
"269 403 CURVE SMOOTH",
"269 364 OFFCURVE",
"285 337 OFFCURVE",
"308 306 CURVE SMOOTH",
"327 281 OFFCURVE",
"345 255 OFFCURVE",
"364 230 CURVE SMOOTH",
"385 199 OFFCURVE",
"396 171 OFFCURVE",
"396 144 CURVE SMOOTH",
"396 103 OFFCURVE",
"382 68 OFFCURVE",
"355 40 CURVE SMOOTH",
"328 12 OFFCURVE",
"293 -2 OFFCURVE",
"252 -2 CURVE SMOOTH",
"189 -2 OFFCURVE",
"151 34 OFFCURVE",
"151 88 CURVE SMOOTH",
"151 133 OFFCURVE",
"182 180 OFFCURVE",
"232 180 CURVE SMOOTH",
"257 180 OFFCURVE",
"270 168 OFFCURVE",
"270 145 CURVE SMOOTH",
"270 137 OFFCURVE",
"258 121 OFFCURVE",
"258 113 CURVE SMOOTH",
"258 101 OFFCURVE",
"263 95 OFFCURVE",
"272 95 CURVE SMOOTH",
"279 95 OFFCURVE",
"285 98 OFFCURVE",
"290 105 CURVE SMOOTH",
"299 118 OFFCURVE",
"304 132 OFFCURVE",
"304 145 CURVE SMOOTH",
"304 188 OFFCURVE",
"279 214 OFFCURVE",
"234 214 CURVE SMOOTH",
"166 214 OFFCURVE",
"116 148 OFFCURVE",
"116 81 CURVE SMOOTH",
"116 44 OFFCURVE",
"130 14 OFFCURVE",
"159 -8 CURVE SMOOTH",
"184 -27 OFFCURVE",
"216 -37 OFFCURVE",
"253 -37 CURVE SMOOTH",
"303 -37 OFFCURVE",
"345 -19 OFFCURVE",
"379 16 CURVE SMOOTH",
"413 51 OFFCURVE",
"430 94 OFFCURVE",
"430 144 CURVE SMOOTH",
"430 177 OFFCURVE",
"419 212 OFFCURVE",
"395 246 CURVE SMOOTH",
"332 334 LINE SMOOTH",
"320 351 OFFCURVE",
"307 382 OFFCURVE",
"307 406 CURVE SMOOTH",
"307 424 OFFCURVE",
"318 449 OFFCURVE",
"370 458 CURVE",
"397 460 OFFCURVE",
"420 542 OFFCURVE",
"420 589 CURVE SMOOTH",
"420 685 OFFCURVE",
"371 735 OFFCURVE",
"313 735 CURVE SMOOTH",
"207 735 OFFCURVE",
"145 616 OFFCURVE",
"99 458 CURVE",
"85 458 LINE SMOOTH",
"61 458 OFFCURVE",
"46 457 OFFCURVE",
"38 457 CURVE SMOOTH",
"23 457 OFFCURVE",
"16 451 OFFCURVE",
"16 440 CURVE SMOOTH",
"16 427 OFFCURVE",
"28 424 OFFCURVE",
"44 424 CURVE SMOOTH",
"89 424 LINE",
"68 342 LINE SMOOTH",
"13 127 OFFCURVE",
"-43 -170 OFFCURVE",
"-78 -228 CURVE SMOOTH",
"-96 -258 OFFCURVE",
"-129 -288 OFFCURVE",
"-162 -288 CURVE SMOOTH",
"-177 -288 OFFCURVE",
"-193 -281 OFFCURVE",
"-206 -264 CURVE SMOOTH",
"-216 -250 OFFCURVE",
"-222 -232 OFFCURVE",
"-222 -216 CURVE SMOOTH",
"-222 -212 OFFCURVE",
"-222 -208 OFFCURVE",
"-221 -204 CURVE SMOOTH",
"-219 -193 OFFCURVE",
"-224 -187 OFFCURVE",
"-230 -187 CURVE SMOOTH",
"-237 -187 OFFCURVE",
"-246 -194 OFFCURVE",
"-249 -208 CURVE SMOOTH",
"-250 -214 OFFCURVE",
"-251 -220 OFFCURVE",
"-251 -227 CURVE SMOOTH",
"-251 -252 OFFCURVE",
"-241 -278 OFFCURVE",
"-223 -297 CURVE SMOOTH",
"-204 -315 OFFCURVE",
"-181 -322 OFFCURVE",
"-161 -322 CURVE SMOOTH"
);
}
);
width = 485;
}
);
note = germandbls;
unicode = 00DF;
},
{
glyphname = t;
lastChange = "2022-02-17 14:45:31 +0000";
layers = (
{
layerId = "769237BE-90A6-4D5E-A4C9-331744B3656A";
paths = (
{
closed = 1;
nodes = (
"156 -13 OFFCURVE",
"212 38 OFFCURVE",
"251 112 CURVE SMOOTH",
"253 115 OFFCURVE",
"258 128 OFFCURVE",
"258 131 CURVE SMOOTH",
"258 142 OFFCURVE",
"254 146 OFFCURVE",
"246 146 CURVE SMOOTH",
"241 146 OFFCURVE",
"231 139 OFFCURVE",
"218 117 CURVE SMOOTH",
"185 61 OFFCURVE",
"145 19 OFFCURVE",
"93 19 CURVE SMOOTH",
"59 19 OFFCURVE",
"43 49 OFFCURVE",
"43 108 CURVE SMOOTH",
"43 117 OFFCURVE",
"43 127 OFFCURVE",
"44 138 CURVE",
"100 214 OFFCURVE",
"145 290 OFFCURVE",
"179 366 CURVE",
"244 366 LINE SMOOTH",
"255 366 OFFCURVE",
"261 372 OFFCURVE",
"261 383 CURVE SMOOTH",
"261 394 OFFCURVE",
"255 400 OFFCURVE",
"244 400 CURVE SMOOTH",
"195 400 LINE",
"211 440 OFFCURVE",
"223 475 OFFCURVE",
"232 506 CURVE SMOOTH",
"239 529 OFFCURVE",
"242 550 OFFCURVE",
"242 568 CURVE SMOOTH",
"242 604 OFFCURVE",
"231 622 OFFCURVE",
"208 622 CURVE SMOOTH",
"179 622 OFFCURVE",
"150 593 OFFCURVE",
"120 535 CURVE SMOOTH",
"100 497 OFFCURVE",
"81 452 OFFCURVE",
"64 400 CURVE",
"21 400 LINE SMOOTH",
"10 400 OFFCURVE",
"5 394 OFFCURVE",
"5 383 CURVE SMOOTH",
"5 372 OFFCURVE",
"10 366 OFFCURVE",
"21 366 CURVE SMOOTH",
"53 366 LINE",
"23 265 OFFCURVE",
"8 180 OFFCURVE",
"8 111 CURVE SMOOTH",
"8 28 OFFCURVE",
"34 -13 OFFCURVE",
"85 -13 CURVE SMOOTH"
);
},
{
closed = 1;
nodes = (
"60 258 OFFCURVE",
"73 312 OFFCURVE",
"90 366 CURVE",
"140 366 LINE",
"112 309 OFFCURVE",
"83 255 OFFCURVE",
"52 204 CURVE"
);
},
{
closed = 1;
nodes = (
"118 451 OFFCURVE",
"136 493 OFFCURVE",
"153 526 CURVE SMOOTH",
"172 562 OFFCURVE",
"187 580 OFFCURVE",
"198 580 CURVE SMOOTH",
"204 580 OFFCURVE",
"207 573 OFFCURVE",
"207 558 CURVE SMOOTH",
"207 544 OFFCURVE",
"204 527 OFFCURVE",
"199 508 CURVE SMOOTH",
"191 482 OFFCURVE",
"177 446 OFFCURVE",
"156 400 CURVE",
"101 400 LINE"
);
}
);
width = 218;
}
);
note = t;
unicode = 0074;
},
{
glyphname = u;
lastChange = "2022-02-17 14:45:31 +0000";
layers = (
{
layerId = "769237BE-90A6-4D5E-A4C9-331744B3656A";
paths = (
{
closed = 1;
nodes = (
"178 -6 OFFCURVE",
"235 50 OFFCURVE",
"284 163 CURVE",
"283 151 OFFCURVE",
"283 139 OFFCURVE",
"283 128 CURVE SMOOTH",
"283 39 OFFCURVE",
"310 -5 OFFCURVE",
"365 -5 CURVE SMOOTH",
"421 -5 OFFCURVE",
"478 47 OFFCURVE",
"512 114 CURVE SMOOTH",
"514 117 OFFCURVE",
"518 128 OFFCURVE",
"518 132 CURVE SMOOTH",
"518 137 OFFCURVE",
"515 140 OFFCURVE",
"504 140 CURVE SMOOTH",
"496 140 OFFCURVE",
"486 129 OFFCURVE",
"478 117 CURVE SMOOTH",
"442 61 OFFCURVE",
"405 26 OFFCURVE",
"364 26 CURVE SMOOTH",
"332 26 OFFCURVE",
"316 58 OFFCURVE",
"316 121 CURVE SMOOTH",
"316 175 OFFCURVE",
"328 248 OFFCURVE",
"351 342 CURVE SMOOTH",
"355 359 OFFCURVE",
"357 368 OFFCURVE",
"357 371 CURVE SMOOTH",
"357 382 OFFCURVE",
"351 388 OFFCURVE",
"339 388 CURVE SMOOTH",
"333 388 OFFCURVE",
"329 385 OFFCURVE",
"326 379 CURVE SMOOTH",
"315 352 OFFCURVE",
"308 331 OFFCURVE",
"305 316 CURVE",
"252 124 OFFCURVE",
"187 28 OFFCURVE",
"112 28 CURVE SMOOTH",
"69 28 OFFCURVE",
"47 49 OFFCURVE",
"47 91 CURVE SMOOTH",
"47 122 OFFCURVE",
"59 173 OFFCURVE",
"82 243 CURVE SMOOTH",
"106 314 OFFCURVE",
"118 356 OFFCURVE",
"118 370 CURVE SMOOTH",
"118 387 OFFCURVE",
"112 396 OFFCURVE",
"101 396 CURVE SMOOTH",
"89 396 OFFCURVE",
"83 390 OFFCURVE",
"83 377 CURVE SMOOTH",
"83 364 OFFCURVE",
"79 346 OFFCURVE",
"72 322 CURVE SMOOTH",
"59 285 OFFCURVE",
"47 247 OFFCURVE",
"35 210 CURVE SMOOTH",
"20 164 OFFCURVE",
"13 126 OFFCURVE",
"13 97 CURVE SMOOTH",
"13 28 OFFCURVE",
"46 -6 OFFCURVE",
"111 -6 CURVE SMOOTH"
);
}
);
width = 478;
}
);
note = u;
unicode = 0075;
},
{
glyphname = v;
lastChange = "2022-02-17 14:45:31 +0000";
layers = (
{
layerId = "769237BE-90A6-4D5E-A4C9-331744B3656A";
paths = (
{
closed = 1;
nodes = (
"163 -8 OFFCURVE",
"213 35 OFFCURVE",
"262 121 CURVE SMOOTH",
"306 199 OFFCURVE",
"328 268 OFFCURVE",
"328 328 CURVE SMOOTH",
"328 391 OFFCURVE",
"302 422 OFFCURVE",
"251 422 CURVE SMOOTH",
"216 422 OFFCURVE",
"193 391 OFFCURVE",
"193 356 CURVE SMOOTH",
"193 344 OFFCURVE",
"197 332 OFFCURVE",
"205 321 CURVE SMOOTH",
"214 308 OFFCURVE",
"224 301 OFFCURVE",
"237 301 CURVE SMOOTH",
"248 301 OFFCURVE",
"253 307 OFFCURVE",
"253 318 CURVE SMOOTH",
"253 324 OFFCURVE",
"249 329 OFFCURVE",
"240 334 CURVE SMOOTH",
"231 339 OFFCURVE",
"227 346 OFFCURVE",
"227 356 CURVE SMOOTH",
"227 377 OFFCURVE",
"235 388 OFFCURVE",
"251 388 CURVE SMOOTH",
"280 388 OFFCURVE",
"295 368 OFFCURVE",
"295 327 CURVE SMOOTH",
"295 272 OFFCURVE",
"274 209 OFFCURVE",
"233 138 CURVE SMOOTH",
"189 63 OFFCURVE",
"147 26 OFFCURVE",
"108 26 CURVE SMOOTH",
"70 26 OFFCURVE",
"51 58 OFFCURVE",
"51 123 CURVE SMOOTH",
"51 178 OFFCURVE",
"62 242 OFFCURVE",
"84 313 CURVE SMOOTH",
"97 354 OFFCURVE",
"103 374 OFFCURVE",
"103 373 CURVE SMOOTH",
"103 383 OFFCURVE",
"98 388 OFFCURVE",
"89 389 CURVE SMOOTH",
"79 389 OFFCURVE",
"71 380 OFFCURVE",
"64 363 CURVE",
"52 323 LINE SMOOTH",
"31 253 OFFCURVE",
"21 189 OFFCURVE",
"21 130 CURVE SMOOTH",
"21 38 OFFCURVE",
"51 -8 OFFCURVE",
"112 -8 CURVE SMOOTH"
);
}
);
width = 340;
}
);
note = v;
unicode = 0076;
},
{
glyphname = w;
lastChange = "2022-02-17 14:45:31 +0000";
layers = (
{
layerId = "769237BE-90A6-4D5E-A4C9-331744B3656A";
paths = (
{
closed = 1;
nodes = (
"157 -11 OFFCURVE",
"203 25 OFFCURVE",
"243 96 CURVE",
"244 29 OFFCURVE",
"269 -4 OFFCURVE",
"320 -4 CURVE SMOOTH",
"391 -4 OFFCURVE",
"451 37 OFFCURVE",
"500 118 CURVE SMOOTH",
"541 185 OFFCURVE",
"562 252 OFFCURVE",
"562 318 CURVE SMOOTH",
"562 367 OFFCURVE",
"550 404 OFFCURVE",
"527 431 CURVE SMOOTH",
"507 454 OFFCURVE",
"483 466 OFFCURVE",
"456 466 CURVE SMOOTH",
"417 466 OFFCURVE",
"386 439 OFFCURVE",
"386 398 CURVE SMOOTH",
"386 367 OFFCURVE",
"411 341 OFFCURVE",
"442 341 CURVE SMOOTH",
"453 341 OFFCURVE",
"458 347 OFFCURVE",
"458 358 CURVE SMOOTH",
"458 380 OFFCURVE",
"420 366 OFFCURVE",
"420 399 CURVE SMOOTH",
"420 422 OFFCURVE",
"432 433 OFFCURVE",
"455 433 CURVE SMOOTH",
"474 433 OFFCURVE",
"490 424 OFFCURVE",
"503 406 CURVE SMOOTH",
"519 385 OFFCURVE",
"527 355 OFFCURVE",
"527 317 CURVE SMOOTH",
"527 260 OFFCURVE",
"507 200 OFFCURVE",
"466 135 CURVE SMOOTH",
"422 65 OFFCURVE",
"376 30 OFFCURVE",
"328 30 CURVE SMOOTH",
"293 30 OFFCURVE",
"277 51 OFFCURVE",
"277 92 CURVE SMOOTH",
"277 113 OFFCURVE",
"282 144 OFFCURVE",
"292 186 CURVE SMOOTH",
"314 267 OFFCURVE",
"330 323 OFFCURVE",
"341 355 CURVE",
"343 366 OFFCURVE",
"337 372 OFFCURVE",
"322 372 CURVE SMOOTH",
"315 372 OFFCURVE",
"311 369 OFFCURVE",
"308 364 CURVE",
"282 293 OFFCURVE",
"264 238 OFFCURVE",
"254 201 CURVE",
"213 83 OFFCURVE",
"163 24 OFFCURVE",
"106 24 CURVE SMOOTH",
"67 24 OFFCURVE",
"48 49 OFFCURVE",
"48 98 CURVE SMOOTH",
"48 151 OFFCURVE",
"75 241 OFFCURVE",
"129 369 CURVE SMOOTH",
"130 371 OFFCURVE",
"130 373 OFFCURVE",
"130 376 CURVE SMOOTH",
"130 387 OFFCURVE",
"124 392 OFFCURVE",
"112 392 CURVE SMOOTH",
"101 392 OFFCURVE",
"84 356 OFFCURVE",
"59 284 CURVE SMOOTH",
"36 221 OFFCURVE",
"23 177 OFFCURVE",
"19 153 CURVE SMOOTH",
"16 135 OFFCURVE",
"14 118 OFFCURVE",
"14 101 CURVE SMOOTH",
"14 26 OFFCURVE",
"45 -11 OFFCURVE",
"106 -11 CURVE SMOOTH"
);
}
);
width = 582;
}
);
note = w;
unicode = 0077;
},
{
glyphname = x;
lastChange = "2022-02-17 14:45:31 +0000";
layers = (
{
layerId = "769237BE-90A6-4D5E-A4C9-331744B3656A";
paths = (
{
closed = 1;
nodes = (
"-1 -27 OFFCURVE",
"5 -22 OFFCURVE",
"10 -13 CURVE SMOOTH",
"22 9 LINE SMOOTH",
"38 39 OFFCURVE",
"64 69 OFFCURVE",
"95 104 CURVE SMOOTH",
"105 115 OFFCURVE",
"133 143 OFFCURVE",
"179 190 CURVE",
"199 123 OFFCURVE",
"214 80 OFFCURVE",
"223 62 CURVE SMOOTH",
"248 13 OFFCURVE",
"282 -12 OFFCURVE",
"325 -12 CURVE SMOOTH",
"387 -12 OFFCURVE",
"443 47 OFFCURVE",
"477 114 CURVE SMOOTH",
"479 117 OFFCURVE",
"479 120 OFFCURVE",
"479 123 CURVE SMOOTH",
"479 132 OFFCURVE",
"474 139 OFFCURVE",
"466 139 CURVE SMOOTH",
"459 139 OFFCURVE",
"447 124 OFFCURVE",
"443 117 CURVE SMOOTH",
"407 63 OFFCURVE",
"373 24 OFFCURVE",
"324 24 CURVE SMOOTH",
"295 24 OFFCURVE",
"268 50 OFFCURVE",
"245 102 CURVE SMOOTH",
"240 112 OFFCURVE",
"227 151 OFFCURVE",
"206 219 CURVE",
"311 328 OFFCURVE",
"363 396 OFFCURVE",
"363 425 CURVE SMOOTH",
"363 436 OFFCURVE",
"357 441 OFFCURVE",
"345 441 CURVE SMOOTH",
"336 441 OFFCURVE",
"330 433 OFFCURVE",
"325 418 CURVE SMOOTH",
"320 401 OFFCURVE",
"300 373 OFFCURVE",
"267 334 CURVE SMOOTH",
"254 319 OFFCURVE",
"229 292 OFFCURVE",
"193 254 CURVE",
"158 353 OFFCURVE",
"118 403 OFFCURVE",
"71 403 CURVE SMOOTH",
"43 403 OFFCURVE",
"29 396 OFFCURVE",
"29 382 CURVE SMOOTH",
"29 369 OFFCURVE",
"35 363 OFFCURVE",
"47 363 CURVE SMOOTH",
"54 363 OFFCURVE",
"67 369 OFFCURVE",
"74 369 CURVE SMOOTH",
"105 369 OFFCURVE",
"136 322 OFFCURVE",
"167 227 CURVE",
"60 118 OFFCURVE",
"-3 41 OFFCURVE",
"-24 -4 CURVE SMOOTH",
"-25 -6 OFFCURVE",
"-25 -8 OFFCURVE",
"-25 -11 CURVE SMOOTH",
"-25 -22 OFFCURVE",
"-19 -27 OFFCURVE",
"-8 -27 CURVE SMOOTH"
);
}
);
width = 443;
}
);
note = x;
unicode = 0078;
},
{
glyphname = y;
lastChange = "2022-02-17 14:45:31 +0000";
layers = (
{
layerId = "769237BE-90A6-4D5E-A4C9-331744B3656A";
paths = (
{
closed = 1;
nodes = (
"68 -234 OFFCURVE",
"114 -214 OFFCURVE",
"159 -174 CURVE SMOOTH",
"198 -139 OFFCURVE",
"228 -97 OFFCURVE",
"250 -48 CURVE",
"355 -24 OFFCURVE",
"431 31 OFFCURVE",
"478 116 CURVE SMOOTH",
"479 118 OFFCURVE",
"480 120 OFFCURVE",
"480 123 CURVE SMOOTH",
"480 127 OFFCURVE",
"478 141 OFFCURVE",
"471 141 CURVE SMOOTH",
"466 141 OFFCURVE",
"459 141 OFFCURVE",
"455 136 CURVE SMOOTH",
"453 133 OFFCURVE",
"446 121 OFFCURVE",
"443 117 CURVE SMOOTH",
"399 49 OFFCURVE",
"339 10 OFFCURVE",
"265 -9 CURVE",
"296 94 OFFCURVE",
"318 172 OFFCURVE",
"332 224 CURVE SMOOTH",
"370 367 LINE",
"371 380 OFFCURVE",
"365 387 OFFCURVE",
"351 387 CURVE SMOOTH",
"346 387 OFFCURVE",
"342 385 OFFCURVE",
"339 380 CURVE SMOOTH",
"321 343 OFFCURVE",
"308 316 OFFCURVE",
"301 297 CURVE SMOOTH",
"268 222 OFFCURVE",
"243 172 OFFCURVE",
"228 147 CURVE SMOOTH",
"193 92 OFFCURVE",
"154 54 OFFCURVE",
"110 34 CURVE SMOOTH",
"94 27 OFFCURVE",
"80 23 OFFCURVE",
"67 23 CURVE SMOOTH",
"40 23 OFFCURVE",
"27 38 OFFCURVE",
"27 69 CURVE SMOOTH",
"27 82 OFFCURVE",
"30 99 OFFCURVE",
"36 118 CURVE",
"59 175 OFFCURVE",
"78 217 OFFCURVE",
"93 244 CURVE SMOOTH",
"119 297 OFFCURVE",
"132 335 OFFCURVE",
"132 358 CURVE SMOOTH",
"132 373 OFFCURVE",
"122 394 OFFCURVE",
"107 394 CURVE SMOOTH",
"96 394 OFFCURVE",
"90 388 OFFCURVE",
"90 376 CURVE SMOOTH",
"90 372 OFFCURVE",
"96 359 OFFCURVE",
"96 352 CURVE SMOOTH",
"96 337 OFFCURVE",
"84 303 OFFCURVE",
"59 251 CURVE SMOOTH",
"8 143 LINE",
"-3 113 OFFCURVE",
"-8 87 OFFCURVE",
"-8 66 CURVE SMOOTH",
"-8 16 OFFCURVE",
"16 -9 OFFCURVE",
"63 -9 CURVE SMOOTH",
"84 -9 OFFCURVE",
"106 -3 OFFCURVE",
"130 8 CURVE SMOOTH",
"191 35 OFFCURVE",
"243 95 OFFCURVE",
"287 188 CURVE",
"263 99 OFFCURVE",
"242 30 OFFCURVE",
"225 -18 CURVE",
"111 -33 LINE SMOOTH",
"60 -40 OFFCURVE",
"21 -53 OFFCURVE",
"-6 -70 CURVE SMOOTH",
"-42 -92 OFFCURVE",
"-60 -124 OFFCURVE",
"-60 -165 CURVE SMOOTH",
"-60 -210 OFFCURVE",
"-24 -234 OFFCURVE",
"20 -234 CURVE SMOOTH"
);
},
{
closed = 1;
nodes = (
"-10 -201 OFFCURVE",
"-24 -188 OFFCURVE",
"-24 -161 CURVE SMOOTH",
"-24 -120 OFFCURVE",
"7 -92 OFFCURVE",
"70 -75 CURVE",
"132 -64 OFFCURVE",
"178 -58 OFFCURVE",
"208 -55 CURVE",
"188 -93 OFFCURVE",
"162 -126 OFFCURVE",
"129 -153 CURVE SMOOTH",
"91 -185 OFFCURVE",
"54 -201 OFFCURVE",
"19 -201 CURVE SMOOTH"
);
}
);
width = 443;
}
);
note = y;
unicode = 0079;
},
{
glyphname = z;
lastChange = "2022-02-17 14:45:31 +0000";
layers = (
{
layerId = "769237BE-90A6-4D5E-A4C9-331744B3656A";
paths = (
{
closed = 1;
nodes = (
"276 -13 OFFCURVE",
"309 -1 OFFCURVE",
"333 22 CURVE SMOOTH",
"354 42 OFFCURVE",
"364 66 OFFCURVE",
"364 95 CURVE SMOOTH",
"364 140 OFFCURVE",
"335 177 OFFCURVE",
"288 177 CURVE SMOOTH",
"272 177 OFFCURVE",
"255 171 OFFCURVE",
"236 160 CURVE SMOOTH",
"215 147 OFFCURVE",
"205 132 OFFCURVE",
"205 117 CURVE SMOOTH",
"205 106 OFFCURVE",
"211 101 OFFCURVE",
"222 101 CURVE SMOOTH",
"225 101 OFFCURVE",
"233 108 OFFCURVE",
"246 123 CURVE SMOOTH",
"257 136 OFFCURVE",
"272 142 OFFCURVE",
"289 142 CURVE SMOOTH",
"313 142 OFFCURVE",
"330 120 OFFCURVE",
"330 92 CURVE SMOOTH",
"330 74 OFFCURVE",
"323 59 OFFCURVE",
"309 46 CURVE SMOOTH",
"292 31 OFFCURVE",
"269 24 OFFCURVE",
"238 24 CURVE SMOOTH",
"220 24 OFFCURVE",
"191 26 OFFCURVE",
"152 31 CURVE SMOOTH",
"115 36 OFFCURVE",
"87 38 OFFCURVE",
"67 37 CURVE SMOOTH",
"65 37 LINE",
"206 184 OFFCURVE",
"309 294 OFFCURVE",
"374 367 CURVE SMOOTH",
"377 370 OFFCURVE",
"378 374 OFFCURVE",
"378 377 CURVE SMOOTH",
"378 389 OFFCURVE",
"372 395 OFFCURVE",
"359 395 CURVE SMOOTH",
"352 395 OFFCURVE",
"334 392 OFFCURVE",
"326 392 CURVE SMOOTH",
"314 392 OFFCURVE",
"294 393 OFFCURVE",
"267 395 CURVE SMOOTH",
"240 398 OFFCURVE",
"219 399 OFFCURVE",
"205 399 CURVE SMOOTH",
"146 399 OFFCURVE",
"112 385 OFFCURVE",
"85 352 CURVE SMOOTH",
"72 336 OFFCURVE",
"66 318 OFFCURVE",
"66 299 CURVE SMOOTH",
"66 263 OFFCURVE",
"93 238 OFFCURVE",
"129 238 CURVE SMOOTH",
"139 238 OFFCURVE",
"151 241 OFFCURVE",
"165 248 CURVE SMOOTH",
"180 255 OFFCURVE",
"187 264 OFFCURVE",
"187 273 CURVE SMOOTH",
"187 284 OFFCURVE",
"181 290 OFFCURVE",
"169 290 CURVE SMOOTH",
"162 290 OFFCURVE",
"147 272 OFFCURVE",
"127 272 CURVE SMOOTH",
"109 272 OFFCURVE",
"100 280 OFFCURVE",
"100 297 CURVE SMOOTH",
"100 323 OFFCURVE",
"115 342 OFFCURVE",
"145 355 CURVE SMOOTH",
"160 362 OFFCURVE",
"181 365 OFFCURVE",
"210 365 CURVE SMOOTH",
"225 365 OFFCURVE",
"244 364 OFFCURVE",
"268 362 CURVE SMOOTH",
"320 358 LINE",
"197 225 OFFCURVE",
"113 135 OFFCURVE",
"68 88 CURVE SMOOTH",
"30 50 OFFCURVE",
"9 28 OFFCURVE",
"4 22 CURVE SMOOTH",
"1 19 OFFCURVE",
"0 15 OFFCURVE",
"0 12 CURVE SMOOTH",
"0 2 OFFCURVE",
"8 -6 OFFCURVE",
"18 -6 CURVE",
"22 -5 LINE SMOOTH",
"43 0 OFFCURVE",
"58 3 OFFCURVE",
"67 3 CURVE SMOOTH",
"86 3 OFFCURVE",
"113 0 OFFCURVE",
"150 -5 CURVE SMOOTH",
"187 -10 OFFCURVE",
"215 -13 OFFCURVE",
"234 -13 CURVE SMOOTH"
);
}
);
width = 368;
}
);
note = z;
unicode = 007A;
},
{
glyphname = fi;
lastChange = "2022-02-17 14:45:31 +0000";
layers = (
{
layerId = "769237BE-90A6-4D5E-A4C9-331744B3656A";
paths = (
{
closed = 1;
nodes = (
"80 -290 OFFCURVE",
"101 -276 OFFCURVE",
"119 -249 CURVE SMOOTH",
"140 -217 OFFCURVE",
"150 -177 OFFCURVE",
"150 -126 CURVE SMOOTH",
"150 -84 OFFCURVE",
"143 -49 OFFCURVE",
"130 -22 CURVE",
"199 -6 OFFCURVE",
"255 30 OFFCURVE",
"297 85 CURVE",
"297 80 LINE SMOOTH",
"297 32 OFFCURVE",
"331 -7 OFFCURVE",
"382 -7 CURVE SMOOTH",
"446 -7 OFFCURVE",
"501 46 OFFCURVE",
"539 114 CURVE SMOOTH",
"544 124 OFFCURVE",
"547 131 OFFCURVE",
"547 136 CURVE SMOOTH",
"547 143 OFFCURVE",
"543 146 OFFCURVE",
"534 146 CURVE SMOOTH",
"526 146 OFFCURVE",
"519 140 OFFCURVE",
"505 117 CURVE SMOOTH",
"472 66 OFFCURVE",
"432 27 OFFCURVE",
"381 27 CURVE SMOOTH",
"353 27 OFFCURVE",
"331 52 OFFCURVE",
"331 83 CURVE SMOOTH",
"331 108 OFFCURVE",
"342 145 OFFCURVE",
"365 196 CURVE SMOOTH",
"388 247 OFFCURVE",
"399 284 OFFCURVE",
"399 307 CURVE SMOOTH",
"399 324 OFFCURVE",
"393 333 OFFCURVE",
"382 333 CURVE SMOOTH",
"371 333 OFFCURVE",
"365 328 OFFCURVE",
"365 317 CURVE SMOOTH",
"365 288 OFFCURVE",
"354 249 OFFCURVE",
"331 199 CURVE SMOOTH",
"321 178 OFFCURVE",
"313 158 OFFCURVE",
"308 141 CURVE",
"267 98 OFFCURVE",
"236 69 OFFCURVE",
"216 53 CURVE SMOOTH",
"188 31 OFFCURVE",
"153 16 OFFCURVE",
"111 8 CURVE",
"87 38 OFFCURVE",
"58 55 OFFCURVE",
"25 58 CURVE",
"36 124 LINE",
"106 153 OFFCURVE",
"179 249 OFFCURVE",
"255 410 CURVE SMOOTH",
"306 519 OFFCURVE",
"332 601 OFFCURVE",
"332 654 CURVE SMOOTH",
"332 695 OFFCURVE",
"315 716 OFFCURVE",
"282 716 CURVE SMOOTH",
"216 716 OFFCURVE",
"150 620 OFFCURVE",
"84 427 CURVE SMOOTH",
"41 299 OFFCURVE",
"9 174 OFFCURVE",
"-12 51 CURVE",
"-25 43 OFFCURVE",
"-31 33 OFFCURVE",
"-31 20 CURVE SMOOTH",
"-31 9 OFFCURVE",
"-27 0 OFFCURVE",
"-19 -8 CURVE",
"-24 -49 OFFCURVE",
"-26 -86 OFFCURVE",
"-26 -118 CURVE SMOOTH",
"-26 -175 OFFCURVE",
"-17 -218 OFFCURVE",
"0 -249 CURVE SMOOTH",
"15 -276 OFFCURVE",
"34 -290 OFFCURVE",
"57 -290 CURVE SMOOTH"
);
},
{
closed = 1;
nodes = (
"48 -257 OFFCURVE",
"36 -248 OFFCURVE",
"26 -227 CURVE SMOOTH",
"14 -202 OFFCURVE",
"8 -164 OFFCURVE",
"8 -113 CURVE SMOOTH",
"8 -86 OFFCURVE",
"10 -57 OFFCURVE",
"13 -26 CURVE",
"26 -29 OFFCURVE",
"40 -31 OFFCURVE",
"56 -31 CURVE SMOOTH",
"68 -31 OFFCURVE",
"81 -30 OFFCURVE",
"94 -28 CURVE",
"109 -52 OFFCURVE",
"116 -86 OFFCURVE",
"116 -131 CURVE SMOOTH",
"116 -203 OFFCURVE",
"89 -252 OFFCURVE",
"61 -256 CURVE SMOOTH"
);
},
{
closed = 1;
nodes = (
"73 276 OFFCURVE",
"103 375 OFFCURVE",
"138 467 CURVE SMOOTH",
"165 541 OFFCURVE",
"193 598 OFFCURVE",
"221 638 CURVE SMOOTH",
"244 671 OFFCURVE",
"262 688 OFFCURVE",
"277 688 CURVE SMOOTH",
"289 688 OFFCURVE",
"295 675 OFFCURVE",
"295 648 CURVE SMOOTH",
"295 593 OFFCURVE",
"270 516 OFFCURVE",
"219 417 CURVE SMOOTH",
"158 299 OFFCURVE",
"100 217 OFFCURVE",
"46 170 CURVE"
);
},
{
closed = 1;
nodes = (
"445 396 OFFCURVE",
"457 408 OFFCURVE",
"457 431 CURVE SMOOTH",
"457 454 OFFCURVE",
"445 466 OFFCURVE",
"422 466 CURVE SMOOTH",
"399 466 OFFCURVE",
"387 454 OFFCURVE",
"387 431 CURVE SMOOTH",
"387 408 OFFCURVE",
"399 396 OFFCURVE",
"422 396 CURVE SMOOTH"
);
}
);
width = 505;
}
);
note = fi;
unicode = FB01;
},
{
glyphname = fl;
lastChange = "2022-02-17 14:45:31 +0000";
layers = (
{
layerId = "769237BE-90A6-4D5E-A4C9-331744B3656A";
paths = (
{
closed = 1;
nodes = (
"80 -290 OFFCURVE",
"101 -276 OFFCURVE",
"119 -249 CURVE SMOOTH",
"140 -217 OFFCURVE",
"150 -177 OFFCURVE",
"150 -126 CURVE SMOOTH",
"150 -84 OFFCURVE",
"143 -49 OFFCURVE",
"130 -22 CURVE",
"203 -5 OFFCURVE",
"260 33 OFFCURVE",
"303 94 CURVE",
"308 20 OFFCURVE",
"338 -17 OFFCURVE",
"393 -17 CURVE SMOOTH",
"462 -17 OFFCURVE",
"542 50 OFFCURVE",
"576 114 CURVE SMOOTH",
"580 121 OFFCURVE",
"580 125 OFFCURVE",
"580 127 CURVE SMOOTH",
"580 131 LINE SMOOTH",
"580 141 OFFCURVE",
"578 146 OFFCURVE",
"567 146 CURVE SMOOTH",
"561 146 OFFCURVE",
"556 138 OFFCURVE",
"542 117 CURVE SMOOTH",
"497 52 OFFCURVE",
"446 17 OFFCURVE",
"399 17 CURVE SMOOTH",
"360 17 OFFCURVE",
"340 49 OFFCURVE",
"340 112 CURVE SMOOTH",
"340 138 OFFCURVE",
"344 168 OFFCURVE",
"351 203 CURVE",
"426 264 OFFCURVE",
"494 348 OFFCURVE",
"555 454 CURVE SMOOTH",
"594 522 OFFCURVE",
"613 581 OFFCURVE",
"613 631 CURVE SMOOTH",
"613 679 OFFCURVE",
"598 703 OFFCURVE",
"568 703 CURVE SMOOTH",
"533 703 OFFCURVE",
"495 667 OFFCURVE",
"456 596 CURVE SMOOTH",
"423 537 OFFCURVE",
"389 456 OFFCURVE",
"355 354 CURVE SMOOTH",
"326 266 OFFCURVE",
"309 195 OFFCURVE",
"304 142 CURVE",
"276 105 OFFCURVE",
"247 76 OFFCURVE",
"216 53 CURVE SMOOTH",
"188 31 OFFCURVE",
"153 16 OFFCURVE",
"111 8 CURVE",
"87 38 OFFCURVE",
"58 55 OFFCURVE",
"25 58 CURVE",
"36 124 LINE",
"106 153 OFFCURVE",
"179 249 OFFCURVE",
"255 410 CURVE SMOOTH",
"306 519 OFFCURVE",
"332 601 OFFCURVE",
"332 654 CURVE SMOOTH",
"332 695 OFFCURVE",
"315 716 OFFCURVE",
"282 716 CURVE SMOOTH",
"216 716 OFFCURVE",
"150 620 OFFCURVE",
"84 427 CURVE SMOOTH",
"41 299 OFFCURVE",
"9 174 OFFCURVE",
"-12 51 CURVE",
"-25 43 OFFCURVE",
"-31 33 OFFCURVE",
"-31 20 CURVE SMOOTH",
"-31 9 OFFCURVE",
"-27 0 OFFCURVE",
"-19 -8 CURVE",
"-24 -49 OFFCURVE",
"-26 -86 OFFCURVE",
"-26 -118 CURVE SMOOTH",
"-26 -175 OFFCURVE",
"-17 -218 OFFCURVE",
"0 -249 CURVE SMOOTH",
"15 -276 OFFCURVE",
"34 -290 OFFCURVE",
"57 -290 CURVE SMOOTH"
);
},
{
closed = 1;
nodes = (
"48 -257 OFFCURVE",
"36 -248 OFFCURVE",
"26 -227 CURVE SMOOTH",
"14 -202 OFFCURVE",
"8 -164 OFFCURVE",
"8 -113 CURVE SMOOTH",
"8 -86 OFFCURVE",
"10 -57 OFFCURVE",
"13 -26 CURVE",
"26 -29 OFFCURVE",
"40 -31 OFFCURVE",
"56 -31 CURVE SMOOTH",
"68 -31 OFFCURVE",
"81 -30 OFFCURVE",
"94 -28 CURVE",
"109 -52 OFFCURVE",
"116 -86 OFFCURVE",
"116 -131 CURVE SMOOTH",
"116 -203 OFFCURVE",
"89 -252 OFFCURVE",
"61 -256 CURVE SMOOTH"
);
},
{
closed = 1;
nodes = (
"73 276 OFFCURVE",
"103 375 OFFCURVE",
"138 467 CURVE SMOOTH",
"165 541 OFFCURVE",
"193 598 OFFCURVE",
"221 638 CURVE SMOOTH",
"244 671 OFFCURVE",
"262 688 OFFCURVE",
"277 688 CURVE SMOOTH",
"289 688 OFFCURVE",
"295 675 OFFCURVE",
"295 648 CURVE SMOOTH",
"295 593 OFFCURVE",
"270 516 OFFCURVE",
"219 417 CURVE SMOOTH",
"158 299 OFFCURVE",
"100 217 OFFCURVE",
"46 170 CURVE"
);
},
{
closed = 1;
nodes = (
"399 361 OFFCURVE",
"431 448 OFFCURVE",
"464 523 CURVE SMOOTH",
"491 585 OFFCURVE",
"516 628 OFFCURVE",
"539 653 CURVE SMOOTH",
"550 664 OFFCURVE",
"559 670 OFFCURVE",
"566 670 CURVE SMOOTH",
"575 670 OFFCURVE",
"580 659 OFFCURVE",
"580 638 CURVE SMOOTH",
"580 593 OFFCURVE",
"561 537 OFFCURVE",
"524 472 CURVE SMOOTH",
"479 393 OFFCURVE",
"426 323 OFFCURVE",
"367 263 CURVE"
);
}
);
width = 542;
}
);
note = fl;
unicode = FB02;
},
{
glyphname = ordfeminine;
lastChange = "2022-02-17 14:45:31 +0000";
layers = (
{
layerId = "769237BE-90A6-4D5E-A4C9-331744B3656A";
paths = (
{
closed = 1;
nodes = (
"261 441 OFFCURVE",
"281 452 OFFCURVE",
"301 471 CURVE SMOOTH",
"318 485 OFFCURVE",
"331 502 OFFCURVE",
"341 520 CURVE",
"343 522 OFFCURVE",
"344 525 OFFCURVE",
"344 528 CURVE SMOOTH",
"344 536 OFFCURVE",
"339 541 OFFCURVE",
"331 541 CURVE SMOOTH",
"327 541 OFFCURVE",
"323 539 OFFCURVE",
"321 535 CURVE",
"303 511 OFFCURVE",
"291 497 OFFCURVE",
"286 492 CURVE SMOOTH",
"269 475 OFFCURVE",
"255 468 OFFCURVE",
"242 468 CURVE SMOOTH",
"223 468 OFFCURVE",
"214 478 OFFCURVE",
"214 501 CURVE SMOOTH",
"214 515 OFFCURVE",
"217 534 OFFCURVE",
"225 556 CURVE SMOOTH",
"244 611 LINE",
"246 621 OFFCURVE",
"241 626 OFFCURVE",
"230 626 CURVE SMOOTH",
"224 626 OFFCURVE",
"221 624 OFFCURVE",
"218 619 CURVE SMOOTH",
"214 610 OFFCURVE",
"211 601 OFFCURVE",
"209 593 CURVE",
"206 587 OFFCURVE",
"204 581 OFFCURVE",
"202 576 CURVE SMOOTH",
"192 545 OFFCURVE",
"180 522 OFFCURVE",
"168 507 CURVE SMOOTH",
"151 484 OFFCURVE",
"129 472 OFFCURVE",
"105 472 CURVE SMOOTH",
"77 472 OFFCURVE",
"63 489 OFFCURVE",
"63 527 CURVE SMOOTH",
"63 534 OFFCURVE",
"64 543 OFFCURVE",
"66 552 CURVE SMOOTH",
"70 578 OFFCURVE",
"82 603 OFFCURVE",
"106 631 CURVE SMOOTH",
"130 659 OFFCURVE",
"154 673 OFFCURVE",
"179 673 CURVE SMOOTH",
"202 673 OFFCURVE",
"213 663 OFFCURVE",
"213 643 CURVE SMOOTH",
"213 632 OFFCURVE",
"201 621 OFFCURVE",
"191 621 CURVE",
"191 621 OFFCURVE",
"189 621 OFFCURVE",
"187 622 CURVE SMOOTH",
"183 623 OFFCURVE",
"182 623 OFFCURVE",
"181 623 CURVE SMOOTH",
"172 623 OFFCURVE",
"168 618 OFFCURVE",
"168 610 CURVE SMOOTH",
"168 600 OFFCURVE",
"177 595 OFFCURVE",
"192 595 CURVE SMOOTH",
"216 595 OFFCURVE",
"239 619 OFFCURVE",
"239 643 CURVE SMOOTH",
"239 677 OFFCURVE",
"215 699 OFFCURVE",
"179 699 CURVE SMOOTH",
"148 699 OFFCURVE",
"117 683 OFFCURVE",
"88 650 CURVE SMOOTH",
"62 620 OFFCURVE",
"45 589 OFFCURVE",
"39 557 CURVE SMOOTH",
"38 548 OFFCURVE",
"37 539 OFFCURVE",
"37 530 CURVE SMOOTH",
"37 506 OFFCURVE",
"41 487 OFFCURVE",
"50 472 CURVE SMOOTH",
"62 455 OFFCURVE",
"78 446 OFFCURVE",
"102 446 CURVE SMOOTH",
"135 446 OFFCURVE",
"164 461 OFFCURVE",
"188 493 CURVE",
"190 480 OFFCURVE",
"194 469 OFFCURVE",
"202 460 CURVE SMOOTH",
"211 448 OFFCURVE",
"225 441 OFFCURVE",
"243 441 CURVE SMOOTH"
);
}
);
width = 341;
}
);
note = ordfeminine;
unicode = 00AA;
},
{
glyphname = ordmasculine;
lastChange = "2022-02-17 14:45:31 +0000";
layers = (
{
layerId = "769237BE-90A6-4D5E-A4C9-331744B3656A";
paths = (
{
closed = 1;
nodes = (
"151 437 OFFCURVE",
"183 458 OFFCURVE",
"209 500 CURVE SMOOTH",
"231 538 OFFCURVE",
"242 574 OFFCURVE",
"242 612 CURVE SMOOTH",
"242 632 OFFCURVE",
"238 649 OFFCURVE",
"230 665 CURVE SMOOTH",
"219 686 OFFCURVE",
"204 696 OFFCURVE",
"184 696 CURVE SMOOTH",
"173 696 OFFCURVE",
"163 693 OFFCURVE",
"154 687 CURVE",
"150 691 OFFCURVE",
"144 693 OFFCURVE",
"137 693 CURVE SMOOTH",
"131 693 OFFCURVE",
"123 690 OFFCURVE",
"114 686 CURVE SMOOTH",
"89 674 OFFCURVE",
"70 651 OFFCURVE",
"56 620 CURVE SMOOTH",
"44 593 OFFCURVE",
"37 565 OFFCURVE",
"37 535 CURVE SMOOTH",
"37 508 OFFCURVE",
"42 486 OFFCURVE",
"54 468 CURVE SMOOTH",
"68 447 OFFCURVE",
"88 437 OFFCURVE",
"115 437 CURVE SMOOTH"
);
},
{
closed = 1;
nodes = (
"97 464 OFFCURVE",
"84 471 OFFCURVE",
"75 487 CURVE SMOOTH",
"67 499 OFFCURVE",
"63 515 OFFCURVE",
"63 536 CURVE SMOOTH",
"63 560 OFFCURVE",
"68 584 OFFCURVE",
"80 608 CURVE SMOOTH",
"92 635 OFFCURVE",
"107 653 OFFCURVE",
"125 662 CURVE SMOOTH",
"128 664 OFFCURVE",
"131 665 OFFCURVE",
"132 665 CURVE",
"121 649 OFFCURVE",
"115 631 OFFCURVE",
"115 609 CURVE SMOOTH",
"115 579 OFFCURVE",
"129 562 OFFCURVE",
"157 562 CURVE SMOOTH",
"165 562 OFFCURVE",
"169 567 OFFCURVE",
"169 575 CURVE SMOOTH",
"169 583 OFFCURVE",
"165 588 OFFCURVE",
"157 588 CURVE SMOOTH",
"146 588 OFFCURVE",
"141 595 OFFCURVE",
"141 611 CURVE SMOOTH",
"141 623 OFFCURVE",
"145 636 OFFCURVE",
"155 650 CURVE SMOOTH",
"163 663 OFFCURVE",
"173 670 OFFCURVE",
"184 670 CURVE SMOOTH",
"195 670 OFFCURVE",
"202 664 OFFCURVE",
"208 650 CURVE SMOOTH",
"214 635 OFFCURVE",
"216 623 OFFCURVE",
"216 611 CURVE SMOOTH",
"216 581 OFFCURVE",
"207 551 OFFCURVE",
"187 517 CURVE SMOOTH",
"166 482 OFFCURVE",
"142 464 OFFCURVE",
"115 464 CURVE SMOOTH"
);
}
);
width = 279;
}
);
note = ordmasculine;
unicode = 00BA;
},
{
glyphname = uni03A9;
lastChange = "2022-02-17 14:45:31 +0000";
layers = (
{
layerId = "769237BE-90A6-4D5E-A4C9-331744B3656A";
paths = (
{
closed = 1;
nodes = (
"500 5 OFFCURVE",
"527 17 OFFCURVE",
"547 73 CURVE SMOOTH",
"549 78 OFFCURVE",
"549 82 OFFCURVE",
"549 85 CURVE SMOOTH",
"549 89 OFFCURVE",
"548 91 OFFCURVE",
"546 91 CURVE SMOOTH",
"543 91 OFFCURVE",
"538 85 OFFCURVE",
"534 75 CURVE SMOOTH",
"521 41 OFFCURVE",
"503 30 OFFCURVE",
"480 30 CURVE SMOOTH",
"454 30 OFFCURVE",
"424 43 OFFCURVE",
"397 46 CURVE",
"424 89 OFFCURVE",
"460 137 OFFCURVE",
"483 187 CURVE SMOOTH",
"500 223 OFFCURVE",
"517 277 OFFCURVE",
"527 318 CURVE SMOOTH",
"534 350 OFFCURVE",
"537 382 OFFCURVE",
"537 411 CURVE SMOOTH",
"537 497 OFFCURVE",
"507 563 OFFCURVE",
"460 600 CURVE SMOOTH",
"429 625 OFFCURVE",
"389 638 OFFCURVE",
"349 638 CURVE SMOOTH",
"275 638 OFFCURVE",
"196 597 OFFCURVE",
"150 529 CURVE SMOOTH",
"116 479 OFFCURVE",
"104 418 OFFCURVE",
"104 355 CURVE SMOOTH",
"104 241 OFFCURVE",
"148 118 OFFCURVE",
"202 39 CURVE",
"189 39 OFFCURVE",
"118 68 OFFCURVE",
"67 68 CURVE SMOOTH",
"37 68 OFFCURVE",
"14 57 OFFCURVE",
"14 29 CURVE SMOOTH",
"14 9 OFFCURVE",
"33 2 OFFCURVE",
"33 14 CURVE SMOOTH",
"33 21 OFFCURVE",
"35 35 OFFCURVE",
"44 37 CURVE SMOOTH",
"51 38 OFFCURVE",
"58 39 OFFCURVE",
"64 39 CURVE SMOOTH",
"104 39 OFFCURVE",
"143 20 OFFCURVE",
"183 20 CURVE SMOOTH",
"194 20 OFFCURVE",
"206 21 OFFCURVE",
"217 25 CURVE",
"222 29 OFFCURVE",
"226 35 OFFCURVE",
"226 41 CURVE SMOOTH",
"226 45 OFFCURVE",
"224 49 OFFCURVE",
"221 53 CURVE SMOOTH",
"175 121 OFFCURVE",
"143 237 OFFCURVE",
"143 339 CURVE SMOOTH",
"143 391 OFFCURVE",
"152 439 OFFCURVE",
"170 475 CURVE SMOOTH",
"207 545 OFFCURVE",
"273 579 OFFCURVE",
"334 579 CURVE SMOOTH",
"402 579 OFFCURVE",
"467 538 OFFCURVE",
"486 461 CURVE SMOOTH",
"491 438 OFFCURVE",
"494 414 OFFCURVE",
"494 388 CURVE SMOOTH",
"494 255 OFFCURVE",
"427 93 OFFCURVE",
"353 34 CURVE",
"352 30 OFFCURVE",
"351 26 OFFCURVE",
"351 23 CURVE SMOOTH",
"351 13 OFFCURVE",
"356 6 OFFCURVE",
"363 6 CURVE SMOOTH",
"364 6 OFFCURVE",
"366 6 OFFCURVE",
"368 7 CURVE",
"368 7 OFFCURVE",
"368 9 OFFCURVE",
"369 9 CURVE",
"378 15 OFFCURVE",
"387 17 OFFCURVE",
"397 17 CURVE SMOOTH",
"421 17 OFFCURVE",
"448 5 OFFCURVE",
"473 5 CURVE SMOOTH"
);
}
);
width = 640;
}
);
note = uni03A9;
unicode = 03A9;
},
{
glyphname = pi;
lastChange = "2022-02-17 14:45:31 +0000";
layers = (
{
layerId = "769237BE-90A6-4D5E-A4C9-331744B3656A";
paths = (
{
closed = 1;
nodes = (
"359 -46 OFFCURVE",
"427 29 OFFCURVE",
"454 84 CURVE SMOOTH",
"460 95 OFFCURVE",
"452 101 OFFCURVE",
"444 101 CURVE SMOOTH",
"439 101 OFFCURVE",
"434 99 OFFCURVE",
"431 93 CURVE SMOOTH",
"394 34 OFFCURVE",
"350 -14 OFFCURVE",
"316 -14 CURVE SMOOTH",
"296 -14 OFFCURVE",
"289 10 OFFCURVE",
"289 44 CURVE SMOOTH",
"289 86 OFFCURVE",
"301 142 OFFCURVE",
"315 182 CURVE SMOOTH",
"362 310 LINE",
"408 306 OFFCURVE",
"451 321 OFFCURVE",
"489 357 CURVE SMOOTH",
"497 366 OFFCURVE",
"503 374 OFFCURVE",
"503 383 CURVE",
"505 389 OFFCURVE",
"503 391 OFFCURVE",
"500 391 CURVE",
"459 363 OFFCURVE",
"426 343 OFFCURVE",
"401 343 CURVE SMOOTH",
"376 343 OFFCURVE",
"342 345 OFFCURVE",
"297 362 CURVE SMOOTH",
"253 377 OFFCURVE",
"184 387 OFFCURVE",
"159 387 CURVE SMOOTH",
"112 387 OFFCURVE",
"64 374 OFFCURVE",
"16 327 CURVE SMOOTH",
"8 319 OFFCURVE",
"3 310 OFFCURVE",
"1 300 CURVE",
"1 297 OFFCURVE",
"3 295 OFFCURVE",
"6 295 CURVE SMOOTH",
"8 295 OFFCURVE",
"11 297 OFFCURVE",
"14 299 CURVE SMOOTH",
"54 334 OFFCURVE",
"94 349 OFFCURVE",
"145 349 CURVE",
"145 274 OFFCURVE",
"111 130 OFFCURVE",
"67 4 CURVE SMOOTH",
"65 -1 OFFCURVE",
"71 -4 OFFCURVE",
"78 -4 CURVE SMOOTH",
"87 -4 OFFCURVE",
"97 0 OFFCURVE",
"102 13 CURVE SMOOTH",
"132 98 OFFCURVE",
"184 298 OFFCURVE",
"184 346 CURVE",
"261 334 OFFCURVE",
"295 325 OFFCURVE",
"317 317 CURVE",
"286 242 OFFCURVE",
"264 151 OFFCURVE",
"256 71 CURVE SMOOTH",
"255 60 OFFCURVE",
"255 50 OFFCURVE",
"255 41 CURVE SMOOTH",
"255 -12 OFFCURVE",
"270 -46 OFFCURVE",
"312 -46 CURVE SMOOTH"
);
}
);
width = 450;
}
);
note = pi;
unicode = 03C0;
},
{
glyphname = zero;
lastChange = "2022-02-17 14:45:31 +0000";
layers = (
{
layerId = "769237BE-90A6-4D5E-A4C9-331744B3656A";
paths = (
{
closed = 1;
nodes = (
"338 -38 OFFCURVE",
"403 -16 OFFCURVE",
"463 29 CURVE SMOOTH",
"519 71 OFFCURVE",
"561 125 OFFCURVE",
"590 191 CURVE SMOOTH",
"614 247 OFFCURVE",
"626 307 OFFCURVE",
"626 372 CURVE SMOOTH",
"626 533 OFFCURVE",
"538 629 OFFCURVE",
"377 629 CURVE SMOOTH",
"374 629 OFFCURVE",
"368 629 OFFCURVE",
"361 628 CURVE SMOOTH",
"259 617 OFFCURVE",
"176 572 OFFCURVE",
"111 493 CURVE SMOOTH",
"48 417 OFFCURVE",
"17 327 OFFCURVE",
"17 222 CURVE SMOOTH",
"17 144 OFFCURVE",
"39 81 OFFCURVE",
"84 33 CURVE SMOOTH",
"129 -14 OFFCURVE",
"191 -38 OFFCURVE",
"269 -38 CURVE SMOOTH"
);
},
{
closed = 1;
nodes = (
"134 -4 OFFCURVE",
"51 82 OFFCURVE",
"51 219 CURVE SMOOTH",
"51 309 OFFCURVE",
"74 387 OFFCURVE",
"121 453 CURVE SMOOTH",
"150 494 OFFCURVE",
"189 528 OFFCURVE",
"236 554 CURVE SMOOTH",
"284 581 OFFCURVE",
"332 594 OFFCURVE",
"381 594 CURVE SMOOTH",
"430 594 OFFCURVE",
"472 582 OFFCURVE",
"509 558 CURVE SMOOTH",
"551 530 OFFCURVE",
"572 493 OFFCURVE",
"572 448 CURVE SMOOTH",
"572 407 OFFCURVE",
"552 373 OFFCURVE",
"513 345 CURVE SMOOTH",
"478 320 OFFCURVE",
"438 307 OFFCURVE",
"395 307 CURVE SMOOTH",
"332 307 OFFCURVE",
"300 332 OFFCURVE",
"300 381 CURVE SMOOTH",
"300 389 OFFCURVE",
"305 410 OFFCURVE",
"305 418 CURVE SMOOTH",
"305 429 OFFCURVE",
"299 435 OFFCURVE",
"287 435 CURVE SMOOTH",
"273 435 OFFCURVE",
"266 417 OFFCURVE",
"266 381 CURVE SMOOTH",
"266 346 OFFCURVE",
"279 318 OFFCURVE",
"305 299 CURVE SMOOTH",
"328 282 OFFCURVE",
"358 273 OFFCURVE",
"393 273 CURVE SMOOTH",
"434 273 OFFCURVE",
"472 283 OFFCURVE",
"509 303 CURVE SMOOTH",
"548 324 OFFCURVE",
"576 353 OFFCURVE",
"593 388 CURVE",
"593 371 LINE SMOOTH",
"593 311 OFFCURVE",
"582 255 OFFCURVE",
"559 204 CURVE SMOOTH",
"533 145 OFFCURVE",
"495 96 OFFCURVE",
"445 57 CURVE SMOOTH",
"391 16 OFFCURVE",
"333 -4 OFFCURVE",
"271 -4 CURVE SMOOTH"
);
}
);
width = 666;
}
);
note = zero;
unicode = 0030;
},
{
glyphname = one;
lastChange = "2022-02-17 14:45:31 +0000";
layers = (
{
layerId = "769237BE-90A6-4D5E-A4C9-331744B3656A";
paths = (
{
closed = 1;
nodes = (
"105 -1 OFFCURVE",
"111 5 OFFCURVE",
"111 17 CURVE SMOOTH",
"111 21 OFFCURVE",
"109 25 OFFCURVE",
"106 28 CURVE SMOOTH",
"104 31 LINE SMOOTH",
"102 34 OFFCURVE",
"101 37 OFFCURVE",
"102 42 CURVE SMOOTH",
"127 173 OFFCURVE",
"181 351 OFFCURVE",
"265 574 CURVE SMOOTH",
"271 591 OFFCURVE",
"274 602 OFFCURVE",
"274 605 CURVE SMOOTH",
"274 617 OFFCURVE",
"269 623 OFFCURVE",
"258 623 CURVE SMOOTH",
"245 623 OFFCURVE",
"239 602 OFFCURVE",
"234 589 CURVE SMOOTH",
"226 568 OFFCURVE",
"208 549 OFFCURVE",
"180 533 CURVE SMOOTH",
"172 528 OFFCURVE",
"148 516 OFFCURVE",
"108 499 CURVE SMOOTH",
"101 496 OFFCURVE",
"98 491 OFFCURVE",
"98 484 CURVE SMOOTH",
"98 472 OFFCURVE",
"103 466 OFFCURVE",
"114 466 CURVE SMOOTH",
"129 466 OFFCURVE",
"160 481 OFFCURVE",
"206 510 CURVE",
"133 305 OFFCURVE",
"87 151 OFFCURVE",
"68 49 CURVE SMOOTH",
"66 39 OFFCURVE",
"67 29 OFFCURVE",
"72 18 CURVE SMOOTH",
"77 5 OFFCURVE",
"84 -1 OFFCURVE",
"94 -1 CURVE SMOOTH"
);
}
);
width = 251;
}
);
note = one;
unicode = 0031;
},
